SplineFontDB: 3.0
FontName: Spiral
FullName: Spiral
FamilyName: Spiral
Weight: Book
Copyright: Digitized data copyright (c) 2014, Santhosh Thottingal, Kavya Manohar,\nSwathanthra Malayalam Computing(http://smc.org.in) with reserved font name "Chilanka".
Version: 1.0.0-beta.20141116
ItalicAngle: 0
UnderlinePosition: -600
UnderlineWidth: 100
Ascent: 1434
Descent: 614
InvalidEm: 0
sfntRevision: 0x00060000
LayerCount: 2
Layer: 0 1 "Back" 1
Layer: 1 1 "Fore" 0
XUID: [1021 393 960756424 15359094]
FSType: 0
OS2Version: 1
OS2_WeightWidthSlopeOnly: 0
OS2_UseTypoMetrics: 1
CreationTime: 1201144287
ModificationTime: 1425728349
PfmFamily: 33
TTFWeight: 400
TTFWidth: 5
LineGap: 0
VLineGap: 0
OS2TypoAscent: 0
OS2TypoAOffset: 1
OS2TypoDescent: 0
OS2TypoDOffset: 1
OS2TypoLinegap: 0
OS2WinAscent: 0
OS2WinAOffset: 1
OS2WinDescent: 0
OS2WinDOffset: 1
HheadAscent: 0
HheadAOffset: 1
HheadDescent: 0
HheadDOffset: 1
OS2SubXSize: 1331
OS2SubYSize: 1433
OS2SubXOff: 274
OS2SubYOff: 286
OS2SupXSize: 1331
OS2SupYSize: 1433
OS2SupXOff: -944
OS2SupYOff: 983
OS2StrikeYSize: 102
OS2StrikeYPos: 530
OS2CapHeight: 0
OS2XHeight: 0
OS2Vendor: 'SMC '
OS2CodePages: 00000001.00000000
OS2UnicodeRanges: 80800003.00002000.00000000.00000000
Lookup: 4 0 0 "'akhn' Akhand in Malay+AQEA-lam lookup 0" { "'akhn' Akhand in Malay+AQEA-lam lookup 0 subtable"  } ['akhn' ('mlym' <'dflt' > ) ]
Lookup: 4 0 0 "'akhn' Akhand in Malay+AQEA-lam2 lookup 0" { "'akhn' Akhand in Malay+AQEA-lam2 lookup 0 subtable"  } ['akhn' ('mlm2' <'dflt' > ) ]
Lookup: 4 0 0 "'pref' Pre Base Forms in Malay+AQEA-lam2 lookup 1" { "'pref' Pre Base Forms in Malay+AQEA-lam2 lookup 1 subtable"  } ['pref' ('mlm2' <'dflt' > ) ]
Lookup: 4 0 0 "'half' Half Forms in Malay+AQEA-lam lookup 1" { "'half' Half Forms in Malay+AQEA-lam lookup 1 subtable"  } ['half' ('mlym' <'dflt' > ) ]
Lookup: 4 0 0 "'blwf' Below Base Forms in Malay+AQEA-lam lookup 2" { "'blwf' Below Base Forms in Malay+AQEA-lam lookup 2 subtable"  } ['blwf' ('mlym' <'dflt' > ) ]

StartChar: .notdef
Encoding: 0 -1 0
Width: 692
GlyphClass: 2
Flags: MW
LayerCount: 2
Back
Fore
SplineSet
45 1 m 1,0,-1
 45 1119 l 1,1,-1
 606 1119 l 1,2,-1
 606 1 l 1,3,-1
 45 1 l 1,0,-1
102 55 m 1,4,-1
 552 55 l 1,5,-1
 552 1063 l 1,6,-1
 102 1063 l 1,7,-1
 102 55 l 1,4,-1
EndSplineSet
EndChar

StartChar: exclam
Encoding: 2 33 2
Width: 607
GlyphClass: 2
Flags: MW
LayerCount: 2
Back
Fore
SplineSet
303 -1 m 1,0,-1
 303 164 l 1,1,-1
 450 164 l 1,2,-1
 450 -1 l 1,3,-1
 303 -1 l 1,0,-1
450 687 m 1,4,-1
 406 299 l 1,5,-1
 350 299 l 1,6,7
 305 683 305 683 305 687 c 2,8,-1
 303 1280 l 1,9,-1
 450 1280 l 1,10,-1
 450 687 l 1,4,-1
EndSplineSet
EndChar

StartChar: quotedbl
Encoding: 3 34 3
Width: 782
GlyphClass: 2
Flags: MW
LayerCount: 2
Back
Fore
SplineSet
663 952 m 2,0,-1
 639 832 l 1,1,-1
 585 832 l 1,2,-1
 560 952 l 2,3,4
 539 1053 539 1053 539 1067 c 2,5,-1
 539 1262 l 1,6,-1
 686 1262 l 1,7,-1
 686 1067 l 1,8,9
 681 1039 681 1039 663 952 c 2,0,-1
427 952 m 2,10,-1
 402 832 l 1,11,-1
 350 832 l 1,12,-1
 326 952 l 1,13,14
 303 1053 303 1053 301 1067 c 1,15,-1
 301 1262 l 1,16,-1
 451 1262 l 1,17,-1
 451 1067 l 1,18,19
 446 1039 446 1039 427 952 c 2,10,-1
EndSplineSet
EndChar

StartChar: numbersign
Encoding: 4 35 4
Width: 942
GlyphClass: 2
Flags: MW
LayerCount: 2
Back
Fore
SplineSet
807 781 m 1,0,-1
 746 450 l 1,1,-1
 938 450 l 1,2,-1
 938 349 l 1,3,-1
 728 349 l 1,4,-1
 659 -28 l 1,5,-1
 544 -28 l 1,6,-1
 612 349 l 1,7,-1
 366 349 l 1,8,-1
 296 -28 l 1,9,-1
 183 -28 l 1,10,-1
 251 349 l 1,11,-1
 68 349 l 1,12,-1
 68 450 l 1,13,-1
 272 450 l 1,14,-1
 330 781 l 1,15,-1
 134 781 l 1,16,-1
 134 882 l 1,17,-1
 350 882 l 1,18,-1
 413 1231 l 1,19,-1
 530 1231 l 1,20,-1
 462 882 l 1,21,-1
 711 882 l 1,22,-1
 774 1231 l 1,23,-1
 891 1231 l 1,24,-1
 824 882 l 1,25,-1
 996 882 l 1,26,-1
 996 781 l 1,27,-1
 807 781 l 1,0,-1
446 781 m 1,28,-1
 384 450 l 1,29,-1
 633 450 l 1,30,-1
 692 781 l 1,31,-1
 446 781 l 1,28,-1
EndSplineSet
EndChar

StartChar: dollar
Encoding: 5 36 5
Width: 955
GlyphClass: 2
Flags: MW
LayerCount: 2
Back
Fore
SplineSet
566 -31 m 1,0,-1
 566 -212 l 1,1,-1
 483 -212 l 1,2,-1
 483 -31 l 1,3,4
 293 -18 293 -18 198.5 76 c 128,-1,5
 104 170 104 170 104 360 c 1,6,-1
 225 360 l 1,7,8
 237 222 237 222 287.5 155 c 128,-1,9
 338 88 338 88 483 70 c 1,10,-1
 483 576 l 1,11,12
 301 630 301 630 214 699 c 128,-1,13
 127 768 127 768 127 921 c 0,14,15
 127 1223 127 1223 483 1267 c 1,16,-1
 483 1362 l 1,17,-1
 566 1362 l 1,18,-1
 566 1267 l 1,19,20
 727 1254 727 1254 820 1169.5 c 128,-1,21
 913 1085 913 1085 915 937 c 1,22,-1
 795 937 l 1,23,24
 791 1033 791 1033 732 1097.5 c 128,-1,25
 673 1162 673 1162 566 1164 c 1,26,-1
 566 699 l 1,27,28
 800 636 800 636 877.5 568.5 c 128,-1,29
 955 501 955 501 955 348 c 0,30,31
 955 -3 955 -3 566 -31 c 1,0,-1
483 1164 m 1,32,33
 249 1132 249 1132 249 937 c 0,34,35
 249 768 249 768 483 707 c 1,36,-1
 483 1164 l 1,32,33
566 567 m 1,37,-1
 566 70 l 1,38,39
 829 100 829 100 830 326 c 0,40,41
 830 510 830 510 566 567 c 1,37,-1
EndSplineSet
EndChar

StartChar: percent
Encoding: 6 37 6
Width: 1485
GlyphClass: 2
Flags: MW
LayerCount: 2
Back
Fore
SplineSet
1397.5 56.5 m 128,-1,1
 1312 -30 1312 -30 1190 -30 c 128,-1,2
 1068 -30 1068 -30 984 56 c 128,-1,3
 900 142 900 142 899 264 c 0,4,5
 899 386 899 386 984.5 472 c 128,-1,6
 1070 558 1070 558 1193 558 c 128,-1,7
 1316 558 1316 558 1399 473 c 128,-1,8
 1482 388 1482 388 1482.5 265.5 c 128,-1,0
 1483 143 1483 143 1397.5 56.5 c 128,-1,1
505 -30 m 1,9,-1
 413 -30 l 1,10,-1
 1105 1251 l 1,11,-1
 1196 1251 l 1,12,-1
 505 -30 l 1,9,-1
623.5 705.5 m 128,-1,14
 538 620 538 620 416 620 c 128,-1,15
 294 620 294 620 209.5 704.5 c 128,-1,16
 125 789 125 789 125 913 c 128,-1,17
 125 1037 125 1037 209.5 1121.5 c 128,-1,18
 294 1206 294 1206 417 1206 c 128,-1,19
 540 1206 540 1206 624.5 1120.5 c 128,-1,20
 709 1035 709 1035 709 913 c 128,-1,13
 709 791 709 791 623.5 705.5 c 128,-1,14
1328 401.5 m 128,-1,22
 1272 458 1272 458 1191 458 c 128,-1,23
 1110 458 1110 458 1055 402.5 c 128,-1,24
 1000 347 1000 347 1000 266 c 128,-1,25
 1000 185 1000 185 1055 129.5 c 128,-1,26
 1110 74 1110 74 1190 74 c 128,-1,27
 1270 74 1270 74 1327 129.5 c 128,-1,28
 1384 185 1384 185 1384 265 c 128,-1,21
 1384 345 1384 345 1328 401.5 c 128,-1,22
553 1050 m 128,-1,30
 498 1107 498 1107 417 1107 c 128,-1,31
 336 1107 336 1107 281 1050 c 128,-1,32
 226 993 226 993 226 913 c 128,-1,33
 226 833 226 833 281 778 c 128,-1,34
 336 723 336 723 417 723 c 128,-1,35
 498 723 498 723 553 778 c 128,-1,36
 608 833 608 833 608 913 c 128,-1,29
 608 993 608 993 553 1050 c 128,-1,30
EndSplineSet
EndChar

StartChar: ampersand
Encoding: 7 38 7
Width: 1107
GlyphClass: 2
Flags: MW
LayerCount: 2
Back
Fore
SplineSet
947 2 m 1,0,-1
 832 147 l 1,1,2
 640 -38 640 -38 466 -38 c 128,-1,3
 292 -38 292 -38 194 55 c 0,4,5
 96 148 96 148 96 292 c 128,-1,6
 96 436 96 436 169 515 c 128,-1,7
 242 594 242 594 394 682 c 1,8,9
 242 872 242 872 242 984 c 128,-1,10
 242 1096 242 1096 329 1171.5 c 128,-1,11
 416 1247 416 1247 539 1247 c 128,-1,12
 662 1247 662 1247 740.5 1173.5 c 128,-1,13
 819 1100 819 1100 819 987 c 128,-1,14
 819 874 819 874 755.5 806 c 128,-1,15
 692 738 692 738 566 670 c 1,16,-1
 824 356 l 1,17,18
 886 466 886 466 888 576 c 1,19,-1
 1011 576 l 1,20,21
 1006 417 1006 417 903 260 c 1,22,-1
 1112 2 l 1,23,-1
 947 2 l 1,0,-1
534 1144 m 0,24,25
 368 1144 368 1144 368 980 c 0,26,27
 368 902 368 902 453 803 c 1,28,-1
 502 747 l 1,29,30
 701 872 701 872 701 982 c 0,31,32
 701 1054 701 1054 653 1099 c 128,-1,33
 605 1144 605 1144 534 1144 c 0,24,25
458 609 m 1,34,35
 225 461 225 461 225 318 c 0,36,37
 225 218 225 218 297.5 147.5 c 128,-1,38
 370 77 370 77 473 77 c 0,39,40
 617 77 617 77 758 236 c 1,41,-1
 458 609 l 1,34,35
EndSplineSet
EndChar

StartChar: quotesingle
Encoding: 8 39 8
Width: 577
GlyphClass: 2
Flags: MW
LayerCount: 2
Back
Fore
SplineSet
425 952 m 2,0,-1
 401 832 l 1,1,-1
 347 832 l 1,2,-1
 322 952 l 2,3,4
 301 1053 301 1053 301 1067 c 2,5,-1
 301 1262 l 1,6,-1
 448 1262 l 1,7,-1
 448 1067 l 1,8,9
 443 1039 443 1039 425 952 c 2,0,-1
EndSplineSet
EndChar

StartChar: parenleft
Encoding: 9 40 9
Width: 500
GlyphClass: 2
Flags: MW
LayerCount: 2
Back
Fore
SplineSet
425 -343 m 1,0,1
 127 33 127 33 127 484 c 128,-1,2
 127 935 127 935 425 1311 c 1,3,-1
 500 1311 l 1,4,5
 254 922 254 922 254 484 c 128,-1,6
 254 46 254 46 500 -343 c 1,7,-1
 425 -343 l 1,0,1
EndSplineSet
EndChar

StartChar: parenright
Encoding: 10 41 10
Width: 714
GlyphClass: 2
Flags: MW
LayerCount: 2
Back
Fore
SplineSet
215 -343 m 1,0,-1
 138 -343 l 1,1,2
 384 46 384 46 384 484 c 128,-1,3
 384 922 384 922 138 1311 c 1,4,-1
 215 1311 l 1,5,6
 512 935 512 935 512 484 c 128,-1,7
 512 33 512 33 215 -343 c 1,0,-1
EndSplineSet
EndChar

StartChar: asterisk
Encoding: 11 42 11
Width: 655
GlyphClass: 2
Flags: MW
LayerCount: 2
Back
Fore
SplineSet
445 925 m 1,0,-1
 578 757 l 1,1,-1
 504 703 l 1,2,-1
 386 881 l 1,3,-1
 268 703 l 1,4,-1
 196 755 l 1,5,-1
 325 925 l 1,6,-1
 123 982 l 1,7,-1
 150 1067 l 1,8,-1
 349 994 l 1,9,-1
 339 1205 l 1,10,-1
 433 1205 l 1,11,-1
 423 994 l 1,12,-1
 622 1067 l 1,13,-1
 649 982 l 1,14,-1
 445 925 l 1,0,-1
EndSplineSet
EndChar

StartChar: plus
Encoding: 12 43 12
Width: 955
GlyphClass: 2
Flags: MW
LayerCount: 2
Back
Fore
SplineSet
592 373 m 1,0,-1
 592 0 l 1,1,-1
 488 0 l 1,2,-1
 488 373 l 1,3,-1
 115 373 l 1,4,-1
 115 477 l 1,5,-1
 488 477 l 1,6,-1
 488 850 l 1,7,-1
 592 850 l 1,8,-1
 592 477 l 1,9,-1
 965 477 l 1,10,-1
 965 373 l 1,11,-1
 592 373 l 1,0,-1
EndSplineSet
EndChar

StartChar: comma
Encoding: 13 44 13
Width: 385
GlyphClass: 2
Flags: MW
LayerCount: 2
Back
Fore
SplineSet
127 -263 m 1,0,-1
 127 -216 l 1,1,2
 212 -209 212 -209 235 -143 c 0,3,4
 244 -117 244 -117 244 0 c 1,5,-1
 127 0 l 1,6,-1
 127 164 l 1,7,-1
 310 164 l 1,8,-1
 310 -40 l 2,9,10
 310 -256 310 -256 127 -263 c 1,0,-1
EndSplineSet
EndChar

StartChar: hyphen
Encoding: 14 45 14
Width: 555
GlyphClass: 2
Flags: MW
LayerCount: 2
Back
Fore
SplineSet
109 368 m 1,0,-1
 109 494 l 1,1,-1
 527 494 l 1,2,-1
 527 368 l 1,3,-1
 109 368 l 1,0,-1
EndSplineSet
EndChar

StartChar: period
Encoding: 15 46 15
Width: 432
GlyphClass: 2
Flags: MW
LayerCount: 2
Back
Fore
SplineSet
127 0 m 1,0,-1
 127 166 l 1,1,-1
 308 166 l 1,2,-1
 308 0 l 1,3,-1
 127 0 l 1,0,-1
EndSplineSet
EndChar

StartChar: slash
Encoding: 16 47 16
Width: 572
GlyphClass: 2
Flags: MW
LayerCount: 2
Back
Fore
SplineSet
211 -30 m 1,0,-1
 74 -30 l 1,1,-1
 501 1286 l 1,2,-1
 638 1286 l 1,3,-1
 211 -30 l 1,0,-1
EndSplineSet
EndChar

StartChar: zero
Encoding: 17 48 17
Width: 1046
GlyphClass: 2
Flags: MW
LayerCount: 2
Back
Fore
SplineSet
623 -22 m 128,-1,1
 200 -22 200 -22 200 622 c 0,2,3
 200 1303 200 1303 623 1303 c 128,-1,4
 1046 1303 1046 1303 1046 640.5 c 128,-1,0
 1046 -22 1046 -22 623 -22 c 128,-1,1
618 93 m 0,5,6
 902 93 902 93 902 640.5 c 128,-1,7
 902 1188 902 1188 623 1188 c 128,-1,8
 344 1188 344 1188 344 640.5 c 128,-1,9
 344 93 344 93 618 93 c 0,5,6
EndSplineSet
EndChar

StartChar: one
Encoding: 18 49 18
Width: 646
GlyphClass: 2
Flags: MW
LayerCount: 2
Back
Fore
SplineSet
501 0 m 1,0,-1
 501 920 l 1,1,-1
 200 920 l 1,2,-1
 200 1014 l 1,3,4
 392 1033 392 1033 447.5 1088.5 c 128,-1,5
 503 1144 503 1144 504 1280 c 1,6,-1
 646 1280 l 1,7,-1
 646 0 l 1,8,-1
 501 0 l 1,0,-1
EndSplineSet
EndChar

StartChar: two
Encoding: 19 50 19
Width: 1054
GlyphClass: 2
Flags: MW
LayerCount: 2
Back
Fore
SplineSet
431 296 m 128,-1,1
 374 238 374 238 367 125 c 1,2,-1
 1054 125 l 1,3,-1
 1054 0 l 1,4,-1
 202 0 l 1,5,6
 210 217 210 217 288 327.5 c 128,-1,7
 366 438 366 438 563 550 c 2,8,-1
 736 648 l 2,9,10
 887 734 887 734 887 924 c 0,11,12
 887 1040 887 1040 812.5 1114 c 128,-1,13
 738 1188 738 1188 622 1188 c 0,14,15
 372 1188 372 1188 345 868 c 1,16,-1
 200 868 l 1,17,18
 217 1303 217 1303 626 1303 c 0,19,20
 807 1303 807 1303 924 1202.5 c 128,-1,21
 1041 1102 1041 1102 1041 897 c 0,22,23
 1041 692 1041 692 870 587 c 2,24,-1
 704 486 l 2,25,0
 488 354 488 354 431 296 c 128,-1,1
EndSplineSet
EndChar

StartChar: three
Encoding: 20 51 20
Width: 1069
GlyphClass: 2
Flags: MW
LayerCount: 2
Back
Fore
SplineSet
628 -22 m 0,0,1
 240 -22 240 -22 200 373 c 1,2,-1
 345 373 l 1,3,4
 367 93 367 93 634 93 c 0,5,6
 922 93 922 93 922 368 c 0,7,8
 922 577 922 577 738 606 c 0,9,10
 719 609 719 609 556 615 c 1,11,-1
 559 736 l 1,12,13
 692 739 692 739 735 749 c 0,14,15
 884 785 884 785 884 954 c 0,16,17
 884 1188 884 1188 635 1188 c 128,-1,18
 386 1188 386 1188 371 908 c 1,19,-1
 229 908 l 1,20,21
 242 1303 242 1303 634 1303 c 0,22,23
 815 1303 815 1303 922.5 1216 c 128,-1,24
 1030 1129 1030 1129 1030 959 c 0,25,26
 1030 761 1030 761 820 679 c 1,27,28
 955 635 955 635 1012 560 c 128,-1,29
 1069 485 1069 485 1069 371 c 0,30,31
 1069 185 1069 185 946.5 81.5 c 128,-1,32
 824 -22 824 -22 628 -22 c 0,0,1
EndSplineSet
EndChar

StartChar: four
Encoding: 21 52 21
Width: 1098
GlyphClass: 2
Flags: MW
LayerCount: 2
Back
Fore
SplineSet
903 293 m 1,0,-1
 903 0 l 1,1,-1
 758 0 l 1,2,-1
 758 293 l 1,3,-1
 200 293 l 1,4,-1
 200 450 l 1,5,-1
 798 1280 l 1,6,-1
 903 1280 l 1,7,-1
 903 418 l 1,8,-1
 1098 418 l 1,9,-1
 1098 293 l 1,10,-1
 903 293 l 1,0,-1
758 1051 m 1,11,-1
 310 418 l 1,12,-1
 758 418 l 1,13,-1
 758 1051 l 1,11,-1
EndSplineSet
EndChar

StartChar: five
Encoding: 22 53 22
Width: 1073
GlyphClass: 2
Flags: MW
LayerCount: 2
Back
Fore
SplineSet
627 -23 m 0,0,1
 277 -23 277 -23 200 309 c 1,2,-1
 342 309 l 1,3,4
 406 93 406 93 625 92 c 0,5,6
 770 92 770 92 848 181 c 128,-1,7
 926 270 926 270 926 420 c 0,8,9
 926 570 926 570 848 655 c 128,-1,10
 770 740 770 740 626 740 c 0,11,12
 482 740 482 740 374 620 c 1,13,-1
 242 620 l 1,14,-1
 339 1280 l 1,15,-1
 1003 1280 l 1,16,-1
 1003 1155 l 1,17,-1
 451 1155 l 1,18,-1
 393 766 l 1,19,20
 515 855 515 855 651 855 c 0,21,22
 845 854 845 854 959 745 c 128,-1,23
 1073 636 1073 636 1073 436 c 128,-1,24
 1073 236 1073 236 951 106.5 c 128,-1,25
 829 -23 829 -23 627 -23 c 0,0,1
EndSplineSet
EndChar

StartChar: six
Encoding: 23 54 23
Width: 1062
GlyphClass: 2
Flags: MW
LayerCount: 2
Back
Fore
SplineSet
637 -22 m 0,0,1
 200 -22 200 -22 200 604 c 0,2,3
 200 1302 200 1302 668 1302 c 0,4,5
 974 1302 974 1302 1035 988 c 1,6,-1
 891 988 l 1,7,8
 842 1187 842 1187 655 1187 c 0,9,10
 346 1187 346 1187 346 640 c 1,11,12
 472 806 472 806 658 806 c 128,-1,13
 844 806 844 806 953 696 c 128,-1,14
 1062 586 1062 586 1062 402 c 128,-1,15
 1062 218 1062 218 944.5 98 c 128,-1,16
 827 -22 827 -22 637 -22 c 0,0,1
847.5 608.5 m 128,-1,18
 779 691 779 691 647 691 c 128,-1,19
 515 691 515 691 435.5 610.5 c 0,20,21
 356 530 356 530 356 402 c 128,-1,22
 356 274 356 274 433 183.5 c 128,-1,23
 510 93 510 93 636 93 c 128,-1,24
 762 93 762 93 839 179.5 c 128,-1,25
 916 266 916 266 916 396 c 128,-1,17
 916 526 916 526 847.5 608.5 c 128,-1,18
EndSplineSet
EndChar

StartChar: seven
Encoding: 24 55 24
Width: 1066
GlyphClass: 2
Flags: MW
LayerCount: 2
Back
Fore
SplineSet
527 0 m 1,0,-1
 376 0 l 1,1,2
 433 424 433 424 927 1155 c 1,3,-1
 200 1155 l 1,4,-1
 200 1280 l 1,5,-1
 1066 1280 l 1,6,-1
 1066 1160 l 1,7,8
 633 594 633 594 527 0 c 1,0,-1
EndSplineSet
EndChar

StartChar: eight
Encoding: 25 56 25
Width: 1072
GlyphClass: 2
Flags: MW
LayerCount: 2
Back
Fore
SplineSet
947 83.5 m 128,-1,1
 822 -22 822 -22 634.5 -22 c 128,-1,2
 447 -22 447 -22 323.5 84 c 128,-1,3
 200 190 200 190 200 370 c 0,4,5
 200 581 200 581 442 690 c 1,6,7
 339 754 339 754 294 812.5 c 128,-1,8
 249 871 249 871 249 964 c 0,9,10
 249 1124 249 1124 359.5 1213 c 128,-1,11
 470 1302 470 1302 635 1302 c 128,-1,12
 800 1302 800 1302 911.5 1214.5 c 128,-1,13
 1023 1127 1023 1127 1023 964 c 0,14,15
 1023 872 1023 872 978.5 811.5 c 128,-1,16
 934 751 934 751 829 690 c 1,17,18
 1072 581 1072 581 1072 368 c 0,19,0
 1072 189 1072 189 947 83.5 c 128,-1,1
637 1187 m 128,-1,21
 530 1187 530 1187 462 1130 c 128,-1,22
 394 1073 394 1073 394 967 c 128,-1,23
 394 861 394 861 463 803 c 128,-1,24
 532 745 532 745 636 745 c 128,-1,25
 740 745 740 745 809 802 c 128,-1,26
 878 859 878 859 878 965 c 128,-1,27
 878 1071 878 1071 811 1129 c 128,-1,20
 744 1187 744 1187 637 1187 c 128,-1,21
846.5 559 m 128,-1,29
 766 630 766 630 638 630 c 128,-1,30
 510 630 510 630 428 560 c 128,-1,31
 346 490 346 490 346 366 c 128,-1,32
 346 242 346 242 426.5 167.5 c 128,-1,33
 507 93 507 93 634 93 c 128,-1,34
 761 93 761 93 844 166.5 c 128,-1,35
 927 240 927 240 927 364 c 128,-1,28
 927 488 927 488 846.5 559 c 128,-1,29
EndSplineSet
EndChar

StartChar: nine
Encoding: 26 57 26
Width: 1049
GlyphClass: 2
Flags: MW
LayerCount: 2
Back
Fore
SplineSet
1049 675 m 0,0,1
 1049 -22 1049 -22 592 -22 c 0,2,3
 287 -22 287 -22 231 292 c 1,4,-1
 374 292 l 1,5,6
 421 93 421 93 604 93 c 0,7,8
 913 93 913 93 913 632 c 1,9,10
 764 472 764 472 590 472 c 128,-1,11
 416 472 416 472 308 587 c 128,-1,12
 200 702 200 702 200 884 c 128,-1,13
 200 1066 200 1066 318 1184 c 128,-1,14
 436 1302 436 1302 622 1302 c 0,15,16
 1049 1302 1049 1302 1049 675 c 0,0,1
823.5 670 m 128,-1,18
 904 752 904 752 904 881 c 128,-1,19
 904 1010 904 1010 827.5 1098.5 c 128,-1,20
 751 1187 751 1187 623 1187 c 128,-1,21
 495 1187 495 1187 420 1101 c 128,-1,22
 345 1015 345 1015 345 882 c 128,-1,23
 345 749 345 749 416 668.5 c 128,-1,24
 487 588 487 588 615 588 c 128,-1,17
 743 588 743 588 823.5 670 c 128,-1,18
EndSplineSet
EndChar

StartChar: colon
Encoding: 27 58 27
Width: 373
GlyphClass: 2
Flags: MW
LayerCount: 2
Back
Fore
SplineSet
147 0 m 1,0,-1
 147 166 l 1,1,-1
 328 166 l 1,2,-1
 328 0 l 1,3,-1
 147 0 l 1,0,-1
147 709 m 1,4,-1
 147 875 l 1,5,-1
 328 875 l 1,6,-1
 328 709 l 1,7,-1
 147 709 l 1,4,-1
EndSplineSet
EndChar

StartChar: semicolon
Encoding: 28 59 28
Width: 425
GlyphClass: 2
Flags: MW
LayerCount: 2
Back
Fore
SplineSet
163 709 m 1,0,-1
 163 875 l 1,1,-1
 344 875 l 1,2,-1
 344 709 l 1,3,-1
 163 709 l 1,0,-1
162 -263 m 1,4,-1
 162 -216 l 1,5,6
 245 -209 245 -209 270 -143 c 0,7,8
 279 -111 279 -111 279 0 c 1,9,-1
 162 0 l 1,10,-1
 162 164 l 1,11,-1
 345 164 l 1,12,-1
 345 -40 l 2,13,14
 345 -256 345 -256 162 -263 c 1,4,-1
EndSplineSet
EndChar

StartChar: less
Encoding: 29 60 29
Width: 944
GlyphClass: 2
Flags: MW
LayerCount: 2
Back
Fore
SplineSet
86 412 m 1,0,-1
 86 522 l 1,1,-1
 947 886 l 1,2,-1
 947 768 l 1,3,-1
 217 468 l 1,4,-1
 947 166 l 1,5,-1
 947 48 l 1,6,-1
 86 412 l 1,0,-1
EndSplineSet
EndChar

StartChar: equal
Encoding: 30 61 30
Width: 973
GlyphClass: 2
Flags: MW
LayerCount: 2
Back
Fore
SplineSet
115 572 m 1,0,-1
 115 677 l 1,1,-1
 965 677 l 1,2,-1
 965 572 l 1,3,-1
 115 572 l 1,0,-1
115 253 m 1,4,-1
 115 361 l 1,5,-1
 965 361 l 1,6,-1
 965 253 l 1,7,-1
 115 253 l 1,4,-1
EndSplineSet
EndChar

StartChar: greater
Encoding: 31 62 31
Width: 969
GlyphClass: 2
Flags: MW
LayerCount: 2
Back
Fore
SplineSet
115 48 m 1,0,-1
 115 166 l 1,1,-1
 842 463 l 1,2,-1
 115 768 l 1,3,-1
 115 886 l 1,4,-1
 971 522 l 1,5,-1
 971 412 l 1,6,-1
 115 48 l 1,0,-1
EndSplineSet
EndChar

StartChar: question
Encoding: 32 63 32
Width: 939
GlyphClass: 2
Flags: MW
LayerCount: 2
Back
Fore
SplineSet
601 585 m 2,0,1
 547 533 547 533 547 454 c 2,2,-1
 547 374 l 1,3,-1
 407 374 l 1,4,-1
 407 460 l 2,5,6
 407 569 407 569 521 679 c 2,7,-1
 643 797 l 2,8,9
 732 884 732 884 732 988 c 0,10,11
 732 1092 732 1092 663 1147 c 128,-1,12
 594 1202 594 1202 488 1202 c 0,13,14
 247 1202 247 1202 242 925 c 1,15,-1
 113 925 l 1,16,17
 118 1320 118 1320 498 1320 c 0,18,19
 662 1320 662 1320 766.5 1234 c 128,-1,20
 871 1148 871 1148 871 998 c 128,-1,21
 871 848 871 848 779 758 c 2,22,-1
 601 585 l 2,0,1
407 18 m 1,23,-1
 407 180 l 1,24,-1
 547 180 l 1,25,-1
 547 18 l 1,26,-1
 407 18 l 1,23,-1
EndSplineSet
EndChar

StartChar: at
Encoding: 33 64 33
Width: 1734
GlyphClass: 2
Flags: MW
LayerCount: 2
Back
Fore
SplineSet
1738 690 m 0,0,1
 1738 473 1738 473 1598 308.5 c 128,-1,2
 1458 144 1458 144 1264 144 c 0,3,4
 1102 144 1102 144 1076 294 c 1,5,6
 948 151 948 151 820 151 c 128,-1,7
 692 151 692 151 614.5 244.5 c 128,-1,8
 537 338 537 338 537 468 c 0,9,10
 537 650 537 650 669.5 800 c 128,-1,11
 802 950 802 950 985 950 c 0,12,13
 1128 950 1128 950 1203 775 c 1,14,-1
 1248 913 l 1,15,-1
 1372 913 l 1,16,-1
 1218 430 l 2,17,18
 1196 361 1196 361 1196 327.5 c 128,-1,19
 1196 294 1196 294 1226.5 269.5 c 128,-1,20
 1257 245 1257 245 1297 245 c 0,21,22
 1414 245 1414 245 1510 375 c 128,-1,23
 1606 505 1606 505 1606 667 c 0,24,25
 1606 901 1606 901 1414.5 1063 c 128,-1,26
 1223 1225 1223 1225 995 1225 c 0,27,28
 682 1226 682 1226 470 1016 c 0,29,30
 258 806 258 806 258 534 c 128,-1,31
 258 262 258 262 450.5 82.5 c 128,-1,32
 643 -97 643 -97 936 -97 c 0,33,34
 1076 -97 1076 -97 1272 -43 c 1,35,-1
 1314 -142 l 1,36,37
 1122 -212 1122 -212 928 -212 c 0,38,39
 611 -212 611 -212 369 -14 c 128,-1,40
 127 184 127 184 127 491 c 0,41,42
 127 842 127 842 382.5 1091 c 128,-1,43
 638 1340 638 1340 992 1340 c 0,44,45
 1282 1340 1282 1340 1510 1154 c 128,-1,46
 1738 968 1738 968 1738 690 c 0,0,1
972 859 m 0,47,48
 852 859 852 859 763.5 735 c 128,-1,49
 675 611 675 611 675 466 c 0,50,51
 675 381 675 381 726.5 313 c 128,-1,52
 778 245 778 245 861 245 c 0,53,54
 990 245 990 245 1071 398.5 c 128,-1,55
 1152 552 1152 552 1152 688 c 0,56,57
 1152 763 1152 763 1100 811 c 128,-1,58
 1048 859 1048 859 972 859 c 0,47,48
EndSplineSet
EndChar

StartChar: braceleft
Encoding: 34 123 34
Width: 526
GlyphClass: 2
Flags: MW
LayerCount: 2
Back
Fore
SplineSet
451 -371 m 2,0,1
 262 -371 262 -371 262 -148 c 2,2,-1
 262 150 l 2,3,4
 262 375 262 375 117 403 c 1,5,-1
 117 509 l 1,6,7
 262 541 262 541 262 764 c 2,8,-1
 262 1062 l 2,9,10
 262 1283 262 1283 451 1283 c 2,11,-1
 525 1283 l 1,12,-1
 525 1189 l 1,13,14
 443 1189 443 1189 411.5 1164.5 c 128,-1,15
 380 1140 380 1140 380 1060 c 2,16,-1
 380 737 l 2,17,18
 380 525 380 525 211 457 c 1,19,20
 380 383 380 383 380 176 c 2,21,-1
 380 -145 l 2,22,23
 380 -229 380 -229 413 -252 c 128,-1,24
 446 -275 446 -275 525 -277 c 1,25,-1
 525 -371 l 1,26,-1
 451 -371 l 2,0,1
EndSplineSet
EndChar

StartChar: bar
Encoding: 35 124 35
Width: 335
GlyphClass: 2
Flags: MW
LayerCount: 2
Back
Fore
SplineSet
147 -371 m 1,0,-1
 147 1280 l 1,1,-1
 251 1280 l 1,2,-1
 251 -371 l 1,3,-1
 147 -371 l 1,0,-1
EndSplineSet
EndChar

StartChar: braceright
Encoding: 36 125 36
Width: 504
GlyphClass: 2
Flags: MW
LayerCount: 2
Back
Fore
SplineSet
328 150 m 2,0,-1
 328 -148 l 2,1,2
 328 -371 328 -371 136 -371 c 2,3,-1
 59 -371 l 1,4,-1
 59 -277 l 1,5,6
 143 -275 143 -275 175 -252 c 128,-1,7
 207 -229 207 -229 207 -145 c 2,8,-1
 207 176 l 2,9,10
 207 383 207 383 377 455 c 1,11,12
 207 530 207 530 207 737 c 2,13,-1
 207 1060 l 2,14,15
 207 1140 207 1140 174 1164.5 c 128,-1,16
 141 1189 141 1189 59 1189 c 1,17,-1
 59 1283 l 1,18,-1
 136 1283 l 2,19,20
 328 1283 328 1283 328 1062 c 2,21,-1
 328 764 l 2,22,23
 328 542 328 542 467 509 c 1,24,-1
 467 403 l 1,25,26
 328 371 328 371 328 150 c 2,0,-1
EndSplineSet
EndChar

StartChar: asciitilde
Encoding: 37 126 37
Width: 910
GlyphClass: 2
Flags: MW
LayerCount: 2
Back
Fore
SplineSet
882 933 m 2,0,1
 882 704 882 704 707 704 c 0,2,3
 623 704 623 704 540 763 c 2,4,-1
 395 866 l 2,5,6
 348 899 348 899 304 899 c 0,7,8
 209 899 209 899 196 751 c 1,9,-1
 123 751 l 1,10,11
 139 1002 139 1002 306 1002 c 0,12,13
 355 1002 355 1002 397 975 c 2,14,-1
 609 839 l 2,15,16
 659 807 659 807 705 807 c 0,17,18
 805 807 805 807 808 950 c 1,19,-1
 882 950 l 1,20,-1
 882 933 l 2,0,1
EndSplineSet
EndChar

StartChar: anuswara
Encoding: 39 3330 39
Width: 824
VWidth: 0
GlyphClass: 2
Flags: MW
LayerCount: 2
Back
Fore
SplineSet
380 666 m 1,0,1
 498 688 498 688 595.5 627.5 c 128,-1,2
 693 567 693 567 735 475 c 128,-1,3
 777 383 777 383 761 283.5 c 128,-1,4
 745 184 745 184 676.5 109.5 c 128,-1,5
 608 35 608 35 506.5 11 c 128,-1,6
 405 -13 405 -13 304.5 28.5 c 128,-1,7
 204 70 204 70 146.5 165 c 128,-1,8
 89 260 89 260 101 356 c 0,9,10
 132 611 132 611 380 666 c 1,0,1
607.5 416.5 m 128,-1,12
 583 470 583 470 526 505 c 128,-1,13
 469 540 469 540 403.5 529 c 128,-1,14
 338 518 338 518 293 473 c 1,15,16
 289 463 289 463 282 454 c 0,17,18
 244 407 244 407 240 347 c 128,-1,19
 236 287 236 287 268 234 c 128,-1,20
 300 181 300 181 358 157 c 128,-1,21
 416 133 416 133 475 147.5 c 128,-1,22
 534 162 534 162 574 205 c 128,-1,23
 614 248 614 248 623 305.5 c 128,-1,11
 632 363 632 363 607.5 416.5 c 128,-1,12
EndSplineSet
EndChar

StartChar: ml_a
Encoding: 41 3333 41
Width: 2508
GlyphClass: 2
Flags: MW
LayerCount: 2
Back
Fore
SplineSet
877 981 m 1,0,1
 962 1010 962 1010 1049 1008 c 0,2,3
 1202 1005 1202 1005 1322 917 c 0,4,5
 1398 861 1398 861 1447 778 c 1,6,7
 1514 883 1514 883 1631.5 942.5 c 128,-1,8
 1749 1002 1749 1002 1884 994.5 c 128,-1,9
 2019 987 2019 987 2133 917 c 128,-1,10
 2247 847 2247 847 2317.5 733 c 128,-1,11
 2388 619 2388 619 2404 488 c 0,12,13
 2426 305 2426 305 2340 167 c 0,14,15
 2292 90 2292 90 2215.5 42 c 128,-1,16
 2139 -6 2139 -6 2063 -9 c 0,17,18
 1918 -14 1918 -14 1820 72.5 c 128,-1,19
 1722 159 1722 159 1704.5 294 c 128,-1,20
 1687 429 1687 429 1771 542.5 c 128,-1,21
 1855 656 1855 656 1978 677.5 c 128,-1,22
 2101 699 2101 699 2201 654 c 1,23,24
 2146 745 2146 745 2061 797 c 128,-1,25
 1976 849 1976 849 1877 854 c 0,26,27
 1713 863 1713 863 1605 753 c 0,28,29
 1567 714 1567 714 1543 662 c 128,-1,30
 1519 610 1519 610 1514 520 c 0,31,32
 1515 489 1515 489 1515 448 c 2,33,-1
 1516 65 l 2,34,35
 1516 36 1516 36 1495.5 16 c 128,-1,36
 1475 -4 1475 -4 1451 -4 c 128,-1,37
 1427 -4 1427 -4 1411 5 c 0,38,39
 1376 25 1376 25 1376 64 c 2,40,-1
 1372 440 l 2,41,42
 1372 484 1372 484 1374 521 c 1,43,44
 1363 713 1363 713 1239 804 c 0,45,46
 1156 865 1156 865 1049 868 c 1,47,48
 1145 758 1145 758 1129 624 c 0,49,50
 1118 536 1118 536 1059 468 c 1,51,52
 1126 418 1126 418 1149.5 344.5 c 128,-1,53
 1173 271 1173 271 1158 209 c 0,54,55
 1130 91 1130 91 1033.5 33.5 c 128,-1,56
 937 -24 937 -24 842 -9 c 0,57,58
 664 18 664 18 571 170 c 0,59,60
 495 294 495 294 502 450 c 0,61,62
 514 706 514 706 686 867 c 1,63,64
 522 859 522 859 402 764.5 c 128,-1,65
 282 670 282 670 251 537 c 0,66,67
 203 331 203 331 346 183 c 0,68,69
 391 137 391 137 438.5 112.5 c 128,-1,70
 486 88 486 88 486 52 c 128,-1,71
 486 16 486 16 465.5 -4.5 c 128,-1,72
 445 -25 445 -25 421.5 -25 c 128,-1,73
 398 -25 398 -25 383 -17 c 0,74,75
 224 65 224 65 148.5 227.5 c 128,-1,76
 73 390 73 390 115 570 c 128,-1,77
 157 750 157 750 307.5 868.5 c 128,-1,78
 458 987 458 987 652 1005 c 0,79,80
 775 1016 775 1016 877 981 c 1,0,1
876 830 m 1,81,82
 764 775 764 775 705.5 670.5 c 128,-1,83
 647 566 647 566 641.5 448 c 128,-1,84
 636 330 636 330 692.5 238 c 128,-1,85
 749 146 749 146 847 131.5 c 128,-1,86
 945 117 945 117 998 187 c 0,87,88
 1036 238 1036 238 1018 296 c 0,89,90
 994 372 994 372 916 379 c 1,91,92
 828 356 828 356 794 390 c 0,93,94
 773 411 773 411 774 436 c 0,95,96
 774 515 774 515 895 520 c 1,97,98
 922 530 922 530 952.5 557.5 c 128,-1,99
 983 585 983 585 989.5 637.5 c 128,-1,100
 996 690 996 690 968 743 c 128,-1,101
 940 796 940 796 876 830 c 1,81,82
2173 510 m 0,102,103
 2102 557 2102 557 2018 542.5 c 128,-1,104
 1934 528 1934 528 1883.5 459.5 c 128,-1,105
 1833 391 1833 391 1843.5 310 c 128,-1,106
 1854 229 1854 229 1911.5 178.5 c 128,-1,107
 1969 128 1969 128 2033 130 c 0,108,109
 2155 135 2155 135 2221 241 c 0,110,111
 2273.52579853 323.540540541 2273.52579853 323.540540541 2258.5 397 c 0,112,113
 2254 419 2254 419 2230 453.5 c 128,-1,114
 2206 488 2206 488 2173 510 c 0,102,103
EndSplineSet
EndChar

StartChar: ml_aa
Encoding: 42 3334 42
Width: 2668
GlyphClass: 2
Flags: MW
LayerCount: 2
Back
Fore
SplineSet
877 976 m 1,0,1
 962 1005 962 1005 1049 1003 c 0,2,3
 1202 1000 1202 1000 1322 912 c 0,4,5
 1398 856 1398 856 1447 772 c 1,6,7
 1514 877 1514 877 1631.5 937 c 128,-1,8
 1749 997 1749 997 1884 990 c 0,9,10
 2085 980 2085 980 2223 846.5 c 128,-1,11
 2361 713 2361 713 2396 531 c 1,12,13
 2539 423 2539 423 2593 257 c 0,14,15
 2627 153 2627 153 2616 40.5 c 128,-1,16
 2605 -72 2605 -72 2546 -173 c 128,-1,17
 2487 -274 2487 -274 2381 -341.5 c 128,-1,18
 2275 -409 2275 -409 2152.5 -419 c 128,-1,19
 2030 -429 2030 -429 1914 -380.5 c 128,-1,20
 1798 -332 1798 -332 1719 -237 c 0,21,22
 1702 -217 1702 -217 1702.5 -190 c 128,-1,23
 1703 -163 1703 -163 1723.5 -142.5 c 128,-1,24
 1744 -122 1744 -122 1775 -122 c 128,-1,25
 1806 -122 1806 -122 1827 -148 c 0,26,27
 1883 -215 1883 -215 1968 -251 c 0,28,29
 2144 -325 2144 -325 2301 -225.5 c 128,-1,30
 2458 -126 2458 -126 2476 54 c 0,31,32
 2491 205 2491 205 2400 330 c 1,33,34
 2367 138 2367 138 2222.5 44.5 c 128,-1,35
 2078 -49 2078 -49 1936.5 -3 c 128,-1,36
 1795 43 1795 43 1736 165 c 0,37,38
 1707 224 1707 224 1705 290 c 0,39,40
 1702 400 1702 400 1767 488 c 128,-1,41
 1832 576 1832 576 1930 614 c 0,42,43
 2068 667 2068 667 2218 622 c 1,44,45
 2161 732 2161 732 2069 788.5 c 128,-1,46
 1977 845 1977 845 1878 850 c 128,-1,47
 1779 855 1779 855 1711 821 c 0,48,49
 1590 760 1590 760 1545 661 c 0,50,51
 1519 604 1519 604 1514 514 c 0,52,53
 1515 483 1515 483 1515 443 c 2,54,-1
 1516 60 l 2,55,56
 1516 31 1516 31 1495.5 11 c 128,-1,57
 1475 -9 1475 -9 1446 -9 c 128,-1,58
 1417 -9 1417 -9 1396.5 11 c 128,-1,59
 1376 31 1376 31 1376 59 c 2,60,-1
 1372 435 l 2,61,62
 1372 479 1372 479 1374 515 c 1,63,64
 1363 707 1363 707 1239 799 c 0,65,66
 1156 860 1156 860 1049 863 c 1,67,68
 1145 753 1145 753 1129 618 c 0,69,70
 1118 530 1118 530 1059 463 c 1,71,72
 1126 413 1126 413 1149.5 339 c 128,-1,73
 1173 265 1173 265 1158 204 c 0,74,75
 1130 86 1130 86 1033.5 28.5 c 128,-1,76
 937 -29 937 -29 842 -15 c 0,77,78
 664 12 664 12 571 165 c 0,79,80
 495 289 495 289 502 444 c 0,81,82
 514 700 514 700 686 861 c 1,83,84
 522 853 522 853 402 759 c 128,-1,85
 282 665 282 665 251 532 c 128,-1,86
 220 399 220 399 275 280.5 c 128,-1,87
 330 162 330 162 447 102 c 0,88,89
 486 83 486 83 486 34 c 0,90,91
 486 11 486 11 465.5 -9.5 c 128,-1,92
 445 -30 445 -30 421.5 -30 c 128,-1,93
 398 -30 398 -30 383 -22 c 0,94,95
 224 60 224 60 148.5 222 c 128,-1,96
 73 384 73 384 115 564.5 c 128,-1,97
 157 745 157 745 307.5 863 c 128,-1,98
 458 981 458 981 652 999 c 0,99,100
 775 1011 775 1011 877 976 c 1,0,1
876 824 m 1,101,102
 764 769 764 769 705.5 665 c 128,-1,103
 647 561 647 561 641.5 443 c 128,-1,104
 636 325 636 325 692.5 233 c 128,-1,105
 749 141 749 141 846.5 126 c 128,-1,106
 944 111 944 111 998 182 c 0,107,108
 1036 233 1036 233 1018 291 c 0,109,110
 994 367 994 367 916 374 c 1,111,112
 842 354 842 354 808 374 c 128,-1,113
 774 394 774 394 774 425 c 0,114,115
 774 485 774 485 815 499 c 128,-1,116
 856 513 856 513 895 514 c 1,117,118
 922 524 922 524 952.5 551.5 c 128,-1,119
 983 579 983 579 989.5 632 c 128,-1,120
 996 685 996 685 968 737.5 c 128,-1,121
 940 790 940 790 876 824 c 1,101,102
2266 450 m 1,122,123
 2118 536 2118 536 1984 485 c 0,124,125
 1920 461 1920 461 1881.5 408.5 c 128,-1,126
 1843 356 1843 356 1844 308 c 0,127,128
 1847 219 1847 219 1905 169 c 128,-1,129
 1963 119 1963 119 2029 124 c 0,130,131
 2152 133 2152 133 2213 230.5 c 128,-1,132
 2274 328 2274 328 2266 450 c 1,122,123
EndSplineSet
EndChar

StartChar: ml_i
Encoding: 43 3335 43
Width: 1974
GlyphClass: 2
Flags: MW
LayerCount: 2
Back
Fore
SplineSet
959 243 m 6,0,1
 957 572 l 6,2,3
 957 632 957 632 922.5 699.5 c 132,-1,4
 888 767 888 767 828 800 c 5,5,6
 827 800 l 5,7,8
 720 859 720 859 588.5 841.5 c 132,-1,9
 457 824 457 824 365 742 c 5,10,11
 490 772 490 772 591.5 711 c 132,-1,12
 693 650 693 650 734 542 c 132,-1,13
 775 434 775 434 730 326 c 4,14,15
 707 262 707 262 657 214.5 c 132,-1,16
 607 167 607 167 546 146 c 132,-1,17
 485 125 485 125 416.5 131 c 132,-1,18
 348 137 348 137 284.5 175 c 132,-1,19
 221 213 221 213 178 279 c 4,20,21
 93 409 93 409 120 573 c 4,22,23
 132 647 132 647 168 711 c 5,24,25
 216 807 216 807 302 874 c 4,26,27
 473 1007 473 1007 695 985 c 132,-1,28
 917 963 917 963 1024 804 c 5,29,30
 1069 876 1069 876 1151.5 932 c 132,-1,31
 1234 988 1234 988 1354 991 c 4,32,33
 1595 997 1595 997 1750 816 c 4,34,35
 1822 732 1822 732 1851 627 c 5,36,37
 1903 473 1903 473 1839 301 c 4,38,39
 1810 225 1810 225 1754.5 160 c 132,-1,40
 1699 95 1699 95 1634.5 60.5 c 132,-1,41
 1570 26 1570 26 1509.5 8.5 c 132,-1,42
 1449 -9 1449 -9 1394 -14.5 c 132,-1,43
 1339 -20 1339 -20 1279.5 -21.5 c 132,-1,44
 1220 -23 1220 -23 1168.5 -21 c 132,-1,45
 1117 -19 1117 -19 1089.5 -20 c 132,-1,46
 1062 -21 1062 -21 839 -21 c 4,47,48
 616 -21 616 -21 439 -26.5 c 132,-1,49
 262 -32 262 -32 242 -123 c 4,50,51
 238 -157 238 -157 263 -179 c 4,52,53
 310 -220 310 -220 362 -223 c 4,54,55
 460 -229 460 -229 597 -228 c 132,-1,56
 734 -227 734 -227 828 -228 c 6,57,-1
 1804 -229 l 5,58,-1
 1819 -229 l 6,59,60
 1834 -229 1834 -229 1854.5 -249.5 c 132,-1,61
 1875 -270 1875 -270 1875 -299 c 132,-1,62
 1875 -328 1875 -328 1854.5 -348.5 c 132,-1,63
 1834 -369 1834 -369 1805 -369 c 6,64,-1
 1804 -369 l 5,65,-1
 828 -368 l 5,66,-1
 784 -368 l 6,67,68
 740 -368 740 -368 611 -369.5 c 132,-1,69
 482 -371 482 -371 367 -364 c 4,70,71
 206 -353 206 -353 135 -240 c 4,72,73
 90 -170 90 -170 103 -105 c 4,74,75
 127 13 127 13 236 69 c 4,76,77
 318 111 318 111 432.5 114 c 132,-1,78
 547 117 547 117 789 118 c 132,-1,79
 1031 119 1031 119 1140 119.5 c 132,-1,80
 1249 120 1249 120 1356 123.5 c 132,-1,81
 1463 127 1463 127 1557 179 c 4,82,83
 1558 179 1558 179 1558 180 c 4,84,85
 1663 235 1663 235 1708.5 357 c 132,-1,86
 1754 479 1754 479 1718 585 c 4,87,88
 1717 587 1717 587 1717 588 c 4,89,90
 1695 669 1695 669 1632.5 734 c 132,-1,91
 1570 799 1570 799 1486 829.5 c 132,-1,92
 1402 860 1402 860 1319 846 c 5,93,-1
 1316 846 l 5,94,95
 1234 835 1234 835 1172.5 767.5 c 132,-1,96
 1111 700 1111 700 1103 615 c 4,97,98
 1099 570 1099 570 1099.5 406 c 132,-1,99
 1100 242 1100 242 1099 215 c 5,100,-1
 1099 213 l 5,101,102
 1098 173 1098 173 1064 154 c 4,103,104
 1048 145 1048 145 1024.5 145 c 132,-1,105
 1001 145 1001 145 980.5 165 c 132,-1,106
 960 185 960 185 959.5 200 c 132,-1,107
 959 215 959 215 959 243 c 6,0,1
262 438 m 4,108,109
 262 436 262 436 262 434 c 4,110,111
 284 338 284 338 361 294 c 5,112,113
 380 275 380 275 423 272.5 c 132,-1,114
 466 270 466 270 499 282 c 4,115,116
 576 309 576 309 599 374 c 5,117,118
 630 436 630 436 588.5 515 c 132,-1,119
 547 594 547 594 473 605 c 4,120,121
 470 606 470 606 468 606 c 4,122,123
 388 624 388 624 324.5 564.5 c 132,-1,124
 261 505 261 505 262 438 c 4,108,109
EndSplineSet
EndChar

StartChar: ml_u
Encoding: 45 3337 45
Width: 1511
GlyphClass: 2
Flags: MW
LayerCount: 2
Back
Fore
SplineSet
115 505 m 0,0,1
 92 732 92 732 329 902 c 0,2,3
 451 989 451 989 689.5 993.5 c 128,-1,4
 928 998 928 998 1071 915 c 0,5,6
 1333 764 1333 764 1395.5 522 c 128,-1,7
 1458 280 1458 280 1278 110 c 0,8,9
 1196 32 1196 32 1099.5 7.5 c 128,-1,10
 1003 -17 1003 -17 868 -20 c 2,11,-1
 525 -27 l 2,12,13
 240 -33 240 -33 249 -152 c 0,14,15
 256 -254 256 -254 493 -254 c 2,16,-1
 1325 -255 l 1,17,18
 1336 -255 l 2,19,20
 1346 -255 1346 -255 1371 -269.5 c 128,-1,21
 1396 -284 1396 -284 1396 -319 c 128,-1,22
 1396 -354 1396 -354 1375 -374.5 c 0,23,24
 1354 -395 1354 -395 1340 -395 c 2,25,-1
 1325 -395 l 1,26,-1
 493 -394 l 2,27,28
 256 -394 256 -394 149.5 -274 c 128,-1,29
 43 -154 43 -154 166 0 c 0,30,31
 229 78 229 78 326.5 94.5 c 128,-1,32
 424 111 424 111 523 113 c 2,33,-1
 865 120 l 2,34,35
 1089 124 1089 124 1164 195 c 0,36,37
 1301 325 1301 325 1257 498.5 c 128,-1,38
 1213 672 1213 672 1052 764.5 c 128,-1,39
 891 857 891 857 724 853.5 c 128,-1,40
 557 850 557 850 458 809 c 1,41,42
 540 796 540 796 612 735.5 c 128,-1,43
 684 675 684 675 702 589 c 0,44,45
 736 426 736 426 637.5 313 c 128,-1,46
 539 200 539 200 408 214 c 128,-1,47
 277 228 277 228 201.5 310.5 c 128,-1,48
 126 393 126 393 115 505 c 0,0,1
514 635 m 0,49,50
 417 717 417 717 314 642 c 0,51,52
 270 610 270 610 254 544.5 c 128,-1,53
 238 479 238 479 291.5 420 c 128,-1,54
 345 361 345 361 413.5 354 c 128,-1,55
 482 347 482 347 533.5 406.5 c 128,-1,56
 585 466 585 466 571 532.5 c 128,-1,57
 557 599 557 599 514 635 c 0,49,50
EndSplineSet
EndChar

StartChar: ml_r
Encoding: 47 3339 47
Width: 1680
GlyphClass: 2
Flags: MW
LayerCount: 2
Back
Fore
SplineSet
849 -540 m 6,0,-1
 708 -541 l 5,1,2
 364 -535 364 -535 220 -358 c 4,3,4
 131 -248 131 -248 141.5 -122.5 c 132,-1,5
 152 3 152 3 246 95 c 4,6,7
 307 155 307 155 394 190 c 5,8,9
 266 259 266 259 185.5 374 c 132,-1,10
 105 489 105 489 100.5 632 c 132,-1,11
 96 775 96 775 190.5 889 c 132,-1,12
 285 1003 285 1003 436 990 c 4,13,14
 529 982 529 982 597 919 c 132,-1,15
 665 856 665 856 681 764.5 c 132,-1,16
 697 673 697 673 656 591 c 132,-1,17
 615 509 615 509 537 469 c 4,18,19
 418 408 418 408 298 456 c 5,20,-1
 301 453 l 5,21,22
 352 373 352 373 454 316 c 4,23,24
 618 226 618 226 875 238 c 4,25,26
 1213 254 1213 254 1360 436 c 5,27,28
 1359 436 1359 436 1356 434 c 4,29,30
 1266 409 1266 409 1176 450 c 132,-1,31
 1086 491 1086 491 1042.5 569.5 c 132,-1,32
 999 648 999 648 1005.5 733 c 132,-1,33
 1012 818 1012 818 1065.5 885 c 132,-1,34
 1119 952 1119 952 1201 977.5 c 132,-1,35
 1283 1003 1283 1003 1366 976 c 132,-1,36
 1449 949 1449 949 1502 880 c 132,-1,37
 1555 811 1555 811 1572 725 c 4,38,39
 1599 587 1599 587 1539 459 c 4,40,41
 1457 286 1457 286 1275 192 c 5,42,43
 1380 154 1380 154 1448 82 c 4,44,45
 1541 -15 1541 -15 1545.5 -140.5 c 132,-1,46
 1550 -266 1550 -266 1468 -360 c 4,47,48
 1326 -526 1326 -526 1052 -538 c 4,49,50
 989 -541 989 -541 925 -540.5 c 132,-1,51
 861 -540 861 -540 849 -540 c 6,0,-1
502 815 m 4,52,53
 436 876 436 876 351 837 c 4,54,55
 296 812 296 812 267 754 c 4,56,57
 267 753 267 753 261.5 732 c 132,-1,58
 256 711 256 711 269.5 671.5 c 132,-1,59
 283 632 283 632 316 606.5 c 132,-1,60
 349 581 349 581 390.5 576.5 c 132,-1,61
 432 572 432 572 471 592.5 c 132,-1,62
 510 613 510 613 530.5 654 c 132,-1,63
 551 695 551 695 543 739.5 c 132,-1,64
 535 784 535 784 502 815 c 4,52,53
1395 790 m 4,65,66
 1332 871 1332 871 1242 843 c 4,67,68
 1202 831 1202 831 1175.5 797.5 c 132,-1,69
 1149 764 1149 764 1145.5 721.5 c 132,-1,70
 1142 679 1142 679 1164 639 c 132,-1,71
 1186 599 1186 599 1230 579 c 132,-1,72
 1274 559 1274 559 1321 569.5 c 132,-1,73
 1368 580 1368 580 1399 616 c 132,-1,74
 1430 652 1430 652 1434 699 c 5,75,76
 1424 752 1424 752 1395 790 c 4,65,66
772.5 95.5 m 132,-1,78
 723 96 723 96 641.5 96 c 132,-1,79
 560 96 560 96 478 71.5 c 132,-1,80
 396 47 396 47 341.5 -6.5 c 132,-1,81
 287 -60 287 -60 281 -131.5 c 132,-1,82
 275 -203 275 -203 327 -267 c 4,83,84
 436 -401 436 -401 730 -401 c 4,85,86
 830 -401 830 -401 930 -401 c 4,87,88
 1249 -401 1249 -401 1348 -286 c 4,89,90
 1408 -216 1408 -216 1405.5 -144.5 c 132,-1,91
 1403 -73 1403 -73 1349 -17 c 4,92,93
 1255 81 1255 81 1069 91 c 4,94,95
 998 95 998 95 928 95 c 6,96,-1
 840 95 l 6,97,77
 822 95 822 95 772.5 95.5 c 132,-1,78
EndSplineSet
EndChar

StartChar: ml_l
Encoding: 48 3340 48
Width: 2088
GlyphClass: 2
Flags: MW
LayerCount: 2
Back
Fore
SplineSet
1103 520 m 5,0,-1
 1105 464 l 5,1,-1
 1102 72 l 6,2,3
 1101 32 1101 32 1067 12 c 4,4,5
 1051 3 1051 3 1027.5 3 c 132,-1,6
 1004 3 1004 3 983.5 23.5 c 132,-1,7
 963 44 963 44 962 73 c 5,8,-1
 964 463 l 6,9,10
 964 477 964 477 963.5 487 c 132,-1,11
 963 497 963 497 962 539 c 4,12,13
 960 667 960 667 896 750 c 4,14,15
 809 863 809 863 647.5 862 c 132,-1,16
 486 861 486 861 368 747 c 4,17,18
 309 690 309 690 275 611 c 5,19,20
 394 702 394 702 531.5 678 c 132,-1,21
 669 654 669 654 751 554 c 4,22,23
 807 485 807 485 823 398 c 132,-1,24
 839 311 839 311 810 226.5 c 132,-1,25
 781 142 781 142 714 83 c 132,-1,26
 647 24 647 24 554 5 c 132,-1,27
 461 -14 461 -14 367.5 22 c 132,-1,28
 274 58 274 58 211 131 c 4,29,30
 87 275 87 275 101.5 486.5 c 132,-1,31
 116 698 116 698 272.5 849 c 132,-1,32
 429 1000 429 1000 647 1002 c 4,33,34
 754 1003 754 1003 848 961 c 4,35,36
 975 905 975 905 1043 779 c 5,37,38
 1115 889 1115 889 1219 943 c 4,39,40
 1435 1053 1435 1053 1641.5 969.5 c 132,-1,41
 1848 886 1848 886 1936 688 c 132,-1,42
 2024 490 2024 490 1964 293 c 4,43,44
 1937 203 1937 203 1875 130.5 c 132,-1,45
 1813 58 1813 58 1720 21.5 c 132,-1,46
 1627 -15 1627 -15 1534 3.5 c 132,-1,47
 1441 22 1441 22 1373.5 81 c 132,-1,48
 1306 140 1306 140 1277 224.5 c 132,-1,49
 1248 309 1248 309 1264.5 396.5 c 132,-1,50
 1281 484 1281 484 1337 553 c 4,51,52
 1419 653 1419 653 1559 676 c 132,-1,53
 1699 699 1699 699 1820 602 c 5,54,55
 1755 777 1755 777 1586 840 c 4,56,57
 1436 896 1436 896 1297 825 c 4,58,59
 1231 791 1231 791 1186 737 c 4,60,61
 1108 644 1108 644 1103 520 c 5,0,-1
518 538 m 132,-1,63
 442 551 442 551 376.5 511 c 132,-1,64
 311 471 311 471 288 397.5 c 132,-1,65
 265 324 265 324 296 254 c 4,66,67
 302 240 302 240 315 225 c 4,68,69
 358 176 358 176 415.5 154 c 132,-1,70
 473 132 473 132 527.5 143 c 132,-1,71
 582 154 582 154 621.5 188.5 c 132,-1,72
 661 223 661 223 678 272 c 4,73,74
 714 378 714 378 642 466 c 4,75,62
 594 525 594 525 518 538 c 132,-1,63
1710.5 508 m 132,-1,77
 1645 548 1645 548 1569.5 535.5 c 132,-1,78
 1494 523 1494 523 1453 473 c 132,-1,79
 1412 423 1412 423 1402.5 371.5 c 132,-1,80
 1393 320 1393 320 1410 270.5 c 132,-1,81
 1427 221 1427 221 1466 186.5 c 132,-1,82
 1505 152 1505 152 1559.5 141.5 c 132,-1,83
 1614 131 1614 131 1680 156.5 c 132,-1,84
 1746 182 1746 182 1792 253 c 5,85,86
 1822 323 1822 323 1799 395.5 c 132,-1,76
 1776 468 1776 468 1710.5 508 c 132,-1,77
EndSplineSet
EndChar

StartChar: ml_e
Encoding: 49 3342 49
Width: 2420
GlyphClass: 2
Flags: MW
LayerCount: 2
Back
Fore
SplineSet
104 388 m 128,-1,1
 122 516 122 516 217 603.5 c 128,-1,2
 312 691 312 691 442 698.5 c 128,-1,3
 572 706 572 706 677.5 627.5 c 128,-1,4
 783 549 783 549 816.5 409 c 128,-1,5
 850 269 850 269 764 138 c 1,6,-1
 983 136 l 1,7,8
 967 464 967 464 1139 714 c 0,9,10
 1230 847 1230 847 1383.5 929 c 128,-1,11
 1537 1011 1537 1011 1709 1000 c 0,12,13
 1831 992 1831 992 1941.5 935.5 c 128,-1,14
 2052 879 2052 879 2133 788 c 0,15,16
 2294 607 2294 607 2316 371.5 c 128,-1,17
 2338 136 2338 136 2252 -63 c 128,-1,18
 2166 -262 2166 -262 1995 -395 c 0,19,20
 1956 -426 1956 -426 1918.5 -403.5 c 128,-1,21
 1881 -381 1881 -381 1881 -343.5 c 128,-1,22
 1881 -306 1881 -306 1909 -285 c 0,23,24
 2052 -174 2052 -174 2123.5 -7.5 c 128,-1,25
 2195 159 2195 159 2177 353.5 c 128,-1,26
 2159 548 2159 548 2026 697.5 c 128,-1,27
 1893 847 1893 847 1680 861 c 0,28,29
 1568 868 1568 868 1447 803.5 c 128,-1,30
 1326 739 1326 739 1251 630 c 0,31,32
 1106 420 1106 420 1123 135 c 1,33,-1
 1664 130 l 1,34,-1
 1668 631 l 1,35,-1
 1668 632 l 2,36,37
 1668 661 1668 661 1688.5 681 c 128,-1,38
 1709 701 1709 701 1738 701.5 c 128,-1,39
 1767 702 1767 702 1787.5 681.5 c 128,-1,40
 1808 661 1808 661 1808 646 c 2,41,-1
 1808 630 l 1,42,-1
 1804 58 l 2,43,44
 1804 45 1804 45 1799 33 c 1,45,46
 1797 -49 1797 -49 1769 -126 c 0,47,48
 1723 -258 1723 -258 1614 -342 c 128,-1,49
 1505 -426 1505 -426 1366 -412 c 0,50,51
 1278 -403 1278 -403 1206 -353 c 0,52,53
 1044 -242 1044 -242 999 -4 c 1,54,-1
 578 -0 l 2,55,56
 549 0 549 0 528.5 20.5 c 128,-1,57
 508 41 508 41 508 65 c 0,58,59
 508 116 508 116 547 132 c 0,60,61
 624 166 624 166 660 238 c 128,-1,62
 696 310 696 310 677.5 388.5 c 128,-1,63
 659 467 659 467 594 515 c 128,-1,64
 529 563 529 563 449.5 558.5 c 128,-1,65
 370 554 370 554 312 500.5 c 128,-1,66
 254 447 254 447 242.5 368.5 c 128,-1,67
 231 290 231 290 272 222.5 c 128,-1,68
 313 155 313 155 388 128 c 0,69,70
 435 112 435 112 435 54 c 0,71,72
 435 33 435 33 414.5 12.5 c 128,-1,73
 394 -8 394 -8 373 -8 c 128,-1,74
 352 -8 352 -8 340 -4 c 0,75,76
 219 39 219 39 152.5 149.5 c 128,-1,0
 86 260 86 260 104 388 c 128,-1,1
1142 -6 m 1,77,78
 1179 -166 1179 -166 1272.5 -230 c 128,-1,79
 1366 -294 1366 -294 1461 -264 c 0,80,81
 1586 -225 1586 -225 1637 -80 c 0,82,83
 1649 -46 1649 -46 1654 -10 c 1,84,-1
 1142 -6 l 1,77,78
EndSplineSet
EndChar

StartChar: ml_ee
Encoding: 50 3343 50
Width: 2444
GlyphClass: 2
Flags: MW
LayerCount: 2
Back
Fore
SplineSet
976 140 m 5,0,1
 964 471 964 471 1150 724 c 4,2,3
 1247 855 1247 855 1400.5 936 c 132,-1,4
 1554 1017 1554 1017 1736.5 1012 c 132,-1,5
 1919 1007 1919 1007 2057 897 c 4,6,7
 2131 839 2131 839 2177 756 c 4,8,9
 2250 626 2250 626 2227 500.5 c 132,-1,10
 2204 375 2204 375 2137 306 c 4,11,12
 2136 305 2136 305 2139.5 303 c 132,-1,13
 2143 301 2143 301 2148 298 c 4,14,15
 2266 234 2266 234 2317 110 c 4,16,17
 2351 27 2351 27 2343 -64.5 c 132,-1,18
 2335 -156 2335 -156 2292 -223 c 4,19,20
 2209 -353 2209 -353 2070 -388.5 c 132,-1,21
 1931 -424 1931 -424 1805 -356 c 4,22,23
 1767 -336 1767 -336 1767 -288 c 4,24,25
 1767 -265 1767 -265 1787.5 -244.5 c 132,-1,26
 1808 -224 1808 -224 1831.5 -224 c 132,-1,27
 1855 -224 1855 -224 1871 -233 c 4,28,29
 1949 -275 1949 -275 2035 -253 c 132,-1,30
 2121 -231 2121 -231 2169 -156 c 4,31,32
 2234 -55 2234 -55 2182 71 c 4,33,34
 2156 135 2156 135 2088 171.5 c 132,-1,35
 2020 208 2020 208 1972 203 c 132,-1,36
 1924 198 1924 198 1903 198 c 132,-1,37
 1882 198 1882 198 1861.5 218.5 c 132,-1,38
 1841 239 1841 239 1841 265.5 c 4,39,40
 1842 292 1842 292 1860.5 315 c 4,41,42
 1879 338 1879 338 1928 341 c 5,43,44
 1992 354 1992 354 2028 394 c 4,45,46
 2129 505 2129 505 2071 651 c 4,47,48
 2039 732 2039 732 1970 787 c 4,49,50
 1868 868 1868 868 1727.5 872 c 132,-1,51
 1587 876 1587 876 1463.5 811 c 132,-1,52
 1340 746 1340 746 1260 638 c 4,53,54
 1104 425 1104 425 1116 139 c 5,55,-1
 1656 138 l 5,56,-1
 1660 640 l 5,57,-1
 1660 641 l 6,58,59
 1660 681 1660 681 1700.5 705 c 132,-1,60
 1741 729 1741 729 1780 690 c 4,61,62
 1801 669 1801 669 1800.5 654.5 c 132,-1,63
 1800 640 1800 640 1800 639 c 6,64,-1
 1796 67 l 6,65,66
 1796 54 1796 54 1791 42 c 5,67,68
 1789 -40 1789 -40 1761 -117 c 4,69,70
 1715 -248 1715 -248 1606 -332 c 132,-1,71
 1497 -416 1497 -416 1359 -403 c 4,72,73
 1271 -394 1271 -394 1197 -345 c 4,74,75
 1034 -235 1034 -235 991 -0 c 5,76,-1
 570 1 l 6,77,78
 541 1 541 1 520.5 21.5 c 132,-1,79
 500 42 500 42 500 66.5 c 132,-1,80
 500 91 500 91 513.5 110 c 132,-1,81
 527 129 527 129 554.5 139.5 c 132,-1,82
 582 150 582 150 613 177.5 c 132,-1,83
 644 205 644 205 662 240 c 4,84,85
 701 314 701 314 682 396 c 132,-1,86
 663 478 663 478 595 527 c 132,-1,87
 527 576 527 576 446.5 568.5 c 132,-1,88
 366 561 366 561 309.5 507 c 132,-1,89
 253 453 253 453 242.5 376.5 c 132,-1,90
 232 300 232 300 271 232.5 c 132,-1,91
 310 165 310 165 382 137 c 4,92,93
 427 120 427 120 427 63 c 4,94,95
 427 42 427 42 406.5 21.5 c 132,-1,96
 386 1 386 1 364.5 1 c 132,-1,97
 343 1 343 1 330 6 c 4,98,99
 213 52 213 52 149.5 161.5 c 132,-1,100
 86 271 86 271 104 396 c 132,-1,101
 122 521 122 521 213.5 608 c 132,-1,102
 305 695 305 695 435.5 707.5 c 132,-1,103
 566 720 566 720 676.5 640.5 c 132,-1,104
 787 561 787 561 821 417 c 132,-1,105
 855 273 855 273 765 140 c 5,106,-1
 976 140 l 5,0,1
1134 -1 m 5,107,108
 1170 -158 1170 -158 1264 -221 c 132,-1,109
 1358 -284 1358 -284 1453 -255 c 4,110,111
 1578 -216 1578 -216 1629 -71 c 4,112,113
 1641 -38 1641 -38 1646 -2 c 5,114,-1
 1134 -1 l 5,107,108
EndSplineSet
EndChar

StartChar: ml_n
Encoding: 52 3346 52
Width: 1358
GlyphClass: 2
Flags: MW
LayerCount: 2
Back
Fore
SplineSet
473 966 m 4,0,1
 754 1082 754 1082 1034 955 c 4,2,3
 1203 878 1203 878 1246 734 c 4,4,5
 1271 659 1271 659 1246.5 584 c 132,-1,6
 1222 509 1222 509 1160 461 c 5,7,8
 1264 376 1264 376 1256 250 c 4,9,10
 1250 152 1250 152 1177 86 c 4,11,12
 1069 -18 1069 -18 916 3 c 4,13,14
 846 12 846 12 798.5 40.5 c 132,-1,15
 751 69 751 69 751 98.5 c 132,-1,16
 751 128 751 128 765.5 153.5 c 132,-1,17
 780 179 780 179 810.5 179 c 132,-1,18
 841 179 841 179 858 169 c 4,19,20
 908 138 908 138 975 143 c 4,21,22
 1042 148 1042 148 1083 189 c 4,23,24
 1111 214 1111 214 1114 260 c 4,25,26
 1117 306 1117 306 1091 333 c 5,27,28
 1050 385 1050 385 934 394 c 4,29,30
 910 394 910 394 886.5 396 c 132,-1,31
 863 398 863 398 844.5 418.5 c 132,-1,32
 826 439 826 439 826 466.5 c 132,-1,33
 826 494 826 494 846.5 514.5 c 132,-1,34
 867 535 867 535 894 535 c 6,35,-1
 964 535 l 6,36,37
 1008 535 1008 535 1030 546.5 c 132,-1,38
 1052 558 1052 558 1054 559 c 4,39,40
 1089 576 1089 576 1107 615.5 c 132,-1,41
 1125 655 1125 655 1113 691 c 4,42,43
 1113 692 1113 692 1113 693 c 4,44,45
 1080 804 1080 804 902 854 c 4,46,47
 901 854 901 854 901 855 c 4,48,49
 698 912 698 912 517 831 c 4,50,51
 424 790 424 790 359 720 c 4,52,53
 359 719 359 719 358 719 c 4,54,55
 267 624 267 624 247 487 c 5,56,57
 342 570 342 570 461 556 c 132,-1,58
 580 542 580 542 652 452 c 4,59,60
 688 407 688 407 704 348 c 4,61,62
 735 236 735 236 672 131 c 132,-1,63
 609 26 609 26 496.5 4 c 132,-1,64
 384 -18 384 -18 291 39 c 132,-1,65
 198 96 198 96 154 193 c 4,66,67
 79 350 79 350 109 520.5 c 132,-1,68
 139 691 139 691 257 815 c 4,69,70
 347 914 347 914 473 966 c 4,0,1
1116 433 m 5,71,-1
 1115 433 l 5,72,-1
 1116 433 l 5,71,-1
567 314 m 4,73,74
 557 356 557 356 504.5 394.5 c 132,-1,75
 452 433 452 433 390 410 c 4,76,77
 388 409 388 409 386 409 c 4,78,79
 334 393 334 393 307 334.5 c 132,-1,80
 280 276 280 276 302 226 c 4,81,82
 305 219 305 219 306 211 c 5,83,84
 336 173 336 173 378.5 153 c 132,-1,85
 421 133 421 133 461 142 c 5,86,-1
 464 142 l 5,87,88
 516 151 516 151 549.5 205 c 132,-1,89
 583 259 583 259 568 310 c 4,90,91
 567 312 567 312 567 314 c 4,73,74
EndSplineSet
EndChar

StartChar: k1
Encoding: 55 3349 55
Width: 1924
GlyphClass: 2
Flags: MW
LayerCount: 2
Back
Fore
SplineSet
796 946 m 0,0,1
 971 1039 971 1039 1147 950 c 0,2,3
 1226 910 1226 910 1292 829.5 c 128,-1,4
 1358 749 1358 749 1386 628 c 1,5,6
 1620 610 1620 610 1738 481 c 0,7,8
 1816 397 1816 397 1823 305 c 128,-1,9
 1830 213 1830 213 1796.5 143 c 128,-1,10
 1763 73 1763 73 1699 29.5 c 128,-1,11
 1635 -14 1635 -14 1557.5 -19 c 128,-1,12
 1480 -24 1480 -24 1410 10 c 0,13,14
 1370 29 1370 29 1370 79 c 0,15,16
 1370 103 1370 103 1390.5 123 c 128,-1,17
 1411 143 1411 143 1434 143 c 128,-1,18
 1457 143 1457 143 1482.5 130.5 c 128,-1,19
 1508 118 1508 118 1547.5 120.5 c 128,-1,20
 1587 123 1587 123 1620 146 c 0,21,22
 1691 194 1691 194 1685.5 266 c 128,-1,23
 1680 338 1680 338 1637 385 c 0,24,25
 1561 467 1561 467 1403 485 c 1,26,27
 1404 295 1404 295 1304 157 c 0,28,29
 1243 73 1243 73 1152.5 25 c 128,-1,30
 1062 -23 1062 -23 961 -20 c 0,31,32
 787 -14 787 -14 668 127 c 1,33,34
 605 23 605 23 488 -10 c 0,35,36
 419 -30 419 -30 349 -18 c 0,37,38
 196 9 196 9 129 146 c 0,39,40
 90 227 90 227 104 320.5 c 128,-1,41
 118 414 118 414 189 485 c 0,42,43
 319 613 319 613 564 626 c 1,44,45
 592 746 592 746 655.5 825.5 c 128,-1,46
 719 905 719 905 796 946 c 0,0,1
710 629 m 1,47,-1
 1219 631 l 2,48,49
 1222 631 1222 631 1229 631.5 c 128,-1,50
 1236 632 1236 632 1240 632 c 1,51,52
 1195 769 1195 769 1083.5 825.5 c 128,-1,53
 972 882 972 882 863 823.5 c 128,-1,54
 754 765 754 765 710 629 c 1,47,-1
694 489 m 1,55,56
 687 489 l 1,57,58
 684 347 684 347 752 247 c 0,59,60
 834 125 834 125 964 120 c 0,61,62
 1029 118 1029 118 1089 150 c 128,-1,63
 1149 182 1149 182 1191 239 c 0,64,65
 1266 342 1266 342 1263 492 c 1,66,-1
 1261 492 l 2,67,68
 1244 492 1244 492 1220 491 c 2,69,-1
 694 489 l 1,55,56
547 484 m 1,70,71
 374 470 374 470 294 392 c 0,72,73
 249 348 249 348 240.5 290 c 128,-1,74
 232 232 232 232 270.5 181.5 c 128,-1,75
 309 131 309 131 359 122 c 0,76,77
 489 99 489 99 548 201 c 0,78,79
 576 249 576 249 573 300 c 1,80,-1
 573 301 l 1,81,82
 546 387 546 387 547 484 c 1,70,71
EndSplineSet
EndChar

StartChar: k2
Encoding: 56 3350 56
Width: 1761
GlyphClass: 2
Flags: MW
LayerCount: 2
Back
Fore
SplineSet
1542 1008.5 m 128,-1,1
 1562 1029 1562 1029 1591 1029.5 c 128,-1,2
 1620 1030 1620 1030 1641 1009 c 128,-1,3
 1662 988 1662 988 1662 973.5 c 128,-1,4
 1662 959 1662 959 1661 958 c 2,5,-1
 1650 51 l 2,6,7
 1650 22 1650 22 1629.5 1.5 c 128,-1,8
 1609 -19 1609 -19 1580 -19 c 2,9,-1
 909 -16 l 2,10,11
 880 -16 880 -16 859.5 4.5 c 128,-1,12
 839 25 839 25 839 50 c 128,-1,13
 839 75 839 75 853.5 95 c 128,-1,14
 868 115 868 115 908 126.5 c 128,-1,15
 948 138 948 138 999 175 c 128,-1,16
 1050 212 1050 212 1084 263 c 0,17,18
 1156 369 1156 369 1143 501.5 c 128,-1,19
 1130 634 1130 634 1026.5 731 c 128,-1,20
 923 828 923 828 768.5 844.5 c 128,-1,21
 614 861 614 861 474 770.5 c 128,-1,22
 334 680 334 680 273 523 c 1,23,24
 377 586 377 586 498.5 558 c 128,-1,25
 620 530 620 530 685 421 c 0,26,27
 717 368 717 368 727 294 c 128,-1,28
 737 220 737 220 698.5 139.5 c 128,-1,29
 660 59 660 59 594 22 c 0,30,31
 468 -48 468 -48 349 -6.5 c 128,-1,32
 230 35 230 35 167 135 c 0,33,34
 48 325 48 325 139 567 c 0,35,36
 216 771 216 771 397.5 888.5 c 128,-1,37
 579 1006 579 1006 782 984 c 128,-1,38
 985 962 985 962 1124.5 831 c 128,-1,39
 1264 700 1264 700 1283 511 c 0,40,41
 1305 287 1305 287 1151 123 c 1,42,-1
 1511 122 l 1,43,-1
 1522 959 l 1,44,-1
 1522 960 l 2,45,0
 1522 988 1522 988 1542 1008.5 c 128,-1,1
522 396 m 0,46,47
 445 452 445 452 360 411 c 0,48,49
 319 391 319 391 288.5 345.5 c 128,-1,50
 258 300 258 300 271 235 c 1,51,52
 312 155 312 155 384 130.5 c 128,-1,53
 456 106 456 106 505 133 c 0,54,55
 601 186 601 186 586 289 c 0,56,57
 577 356 577 356 522 396 c 0,46,47
EndSplineSet
EndChar

StartChar: k3
Encoding: 57 3351 57
Width: 1885
GlyphClass: 2
Flags: MW
LayerCount: 2
Back
Fore
SplineSet
527 988 m 5,0,1
 549 990 549 990 567 977 c 132,-1,2
 585 964 585 964 593 945 c 4,3,4
 612 899 612 899 577 867 c 4,5,6
 556 852 556 852 507 839 c 4,7,8
 401 812 401 812 320 715 c 132,-1,9
 239 618 239 618 242.5 473 c 132,-1,10
 246 328 246 328 355 225 c 132,-1,11
 464 122 464 122 612 123 c 4,12,13
 686 124 686 124 753.5 158 c 132,-1,14
 821 192 821 192 854 267.5 c 132,-1,15
 887 343 887 343 884 430 c 5,16,17
 884 494.5 l 6,18,19
 884 543 884 543 886 600 c 4,20,21
 896 810 896 810 1048 911 c 4,22,23
 1158 984 1158 984 1304 979 c 4,24,25
 1493 972 1493 972 1628 842 c 4,26,27
 1712 761 1712 761 1753 652.5 c 132,-1,28
 1794 544 1794 544 1783.5 432 c 132,-1,29
 1773 320 1773 320 1712.5 221 c 132,-1,30
 1652 122 1652 122 1555 58.5 c 132,-1,31
 1458 -5 1458 -5 1346 -17 c 4,32,33
 1324 -18 1324 -18 1306.5 -4.5 c 132,-1,34
 1289 9 1289 9 1282 28 c 4,35,36
 1254 101 1254 101 1344 124 c 4,37,38
 1371 131 1371 131 1397.5 137.5 c 132,-1,39
 1424 144 1424 144 1442 156 c 4,40,41
 1503 184 1503 184 1549.5 236 c 132,-1,42
 1596 288 1596 288 1619 350 c 4,43,44
 1672 493 1672 493 1617 612 c 5,45,46
 1593 677 1593 677 1542.5 728.5 c 132,-1,47
 1492 780 1492 780 1429 807 c 4,48,49
 1282 870 1282 870 1159 814 c 4,50,51
 1089 785 1089 785 1055 713 c 132,-1,52
 1021 641 1021 641 1025 560 c 5,53,-1
 1025 498.5 l 6,54,55
 1025 448 1025 448 1022 382 c 4,56,57
 1012 167 1012 167 859 59 c 4,58,59
 750 -17 750 -17 604 -17 c 4,60,61
 414.503184713 -17 414.503184713 -17 273.5 109.5 c 4,62,63
 186 188 186 188 140 296 c 132,-1,64
 94 404 94 404 100.5 517.5 c 132,-1,65
 107 631 107 631 164.5 733.5 c 132,-1,66
 222 836 222 836 318.5 904 c 132,-1,67
 415 972 415 972 527 988 c 5,0,1
EndSplineSet
EndChar

StartChar: k4
Encoding: 58 3352 58
Width: 2469
GlyphClass: 2
Flags: MW
LayerCount: 2
Back
Fore
SplineSet
1132 855 m 4,0,1
 1264 1006 1264 1006 1487 996 c 132,-1,2
 1710 986 1710 986 1826 839 c 4,3,4
 1885 765 1885 765 1902 684 c 132,-1,5
 1919 603 1919 603 1917 492 c 6,6,-1
 1914 309 l 6,7,8
 1913 264 1913 264 1871 246 c 4,9,10
 1858 241 1858 241 1844 241 c 6,11,-1
 1165 236 l 5,12,-1
 1165 126 l 5,13,-1
 2228 126 l 5,14,-1
 2229 920 l 6,15,16
 2229 949 2229 949 2249.5 970 c 132,-1,17
 2270 991 2270 991 2299 991 c 132,-1,18
 2328 991 2328 991 2349 970 c 132,-1,19
 2370 949 2370 949 2369 920 c 6,20,-1
 2368 56 l 6,21,22
 2368 27 2368 27 2347.5 6.5 c 132,-1,23
 2327 -14 2327 -14 2298 -14 c 6,24,-1
 1095 -14 l 6,25,26
 1066 -14 1066 -14 1045.5 6.5 c 132,-1,27
 1025 27 1025 27 1025 56 c 6,28,-1
 1025 235 l 5,29,-1
 560 232 l 6,30,31
 534 232 534 232 506.5 255 c 132,-1,32
 479 278 479 278 491.5 317 c 132,-1,33
 504 356 504 356 540 369 c 4,34,35
 620 397 620 397 661.5 474.5 c 132,-1,36
 703 552 703 552 680.5 637 c 132,-1,37
 658 722 658 722 584 769 c 132,-1,38
 510 816 510 816 430.5 801 c 132,-1,39
 351 786 351 786 300.5 732.5 c 132,-1,40
 250 679 250 679 241.5 605.5 c 132,-1,41
 233 532 233 532 269.5 468 c 132,-1,42
 306 404 306 404 374 375 c 4,43,44
 401 364 401 364 411.5 336.5 c 132,-1,45
 422 309 422 309 410.5 282 c 132,-1,46
 399 255 399 255 371.5 244.5 c 132,-1,47
 344 234 344 234 317 246 c 4,48,49
 207 294 207 294 148 398.5 c 132,-1,50
 89 503 89 503 102.5 621.5 c 132,-1,51
 116 740 116 740 198 827.5 c 132,-1,52
 280 915 280 915 409 939 c 132,-1,53
 538 963 538 963 658.5 886.5 c 132,-1,54
 779 810 779 810 818.5 660.5 c 132,-1,55
 858 511 858 511 763 373 c 5,56,-1
 1025 375 l 5,57,-1
 1026 490 l 5,58,59
 1024 600 1024 600 1045 689.5 c 132,-1,60
 1066 779 1066 779 1132 855 c 4,0,1
1717 752 m 4,61,62
 1640 849 1640 849 1482.5 856 c 132,-1,63
 1325 863 1325 863 1238 763 c 4,64,65
 1195 714 1195 714 1180.5 652.5 c 132,-1,66
 1166 591 1166 591 1166 490 c 6,67,-1
 1165 376 l 5,68,-1
 1775 380 l 5,69,-1
 1777 494 l 6,70,71
 1779 590 1779 590 1767 647 c 132,-1,72
 1755 704 1755 704 1717 752 c 4,61,62
EndSplineSet
EndChar

StartChar: ng
Encoding: 59 3353 59
Width: 2036
GlyphClass: 2
Flags: MW
LayerCount: 2
Back
Fore
SplineSet
1139 394 m 6,0,-1
 1141 59 l 5,1,-1
 1141 58 l 6,2,3
 1141 29 1141 29 1120.5 8.5 c 132,-1,4
 1100 -12 1100 -12 1071 -12 c 132,-1,5
 1042 -12 1042 -12 1021.5 8.5 c 132,-1,6
 1001 29 1001 29 1001 57 c 4,7,8
 998 417 998 417 998 418 c 4,9,10
 997 633 997 633 944 707 c 4,11,12
 930 726 930 726 930 727 c 4,13,14
 867 820 867 820 745 846.5 c 132,-1,15
 623 873 623 873 514 829 c 4,16,17
 513 828 513 828 487.5 819.5 c 132,-1,18
 462 811 462 811 419 779 c 4,19,20
 333 716 333 716 284 616 c 5,21,22
 373 679 373 679 486 680 c 132,-1,23
 599 681 599 681 696 607.5 c 132,-1,24
 793 534 793 534 819 416 c 5,25,26
 843 326 843 326 816.5 237 c 132,-1,27
 790 148 790 148 721 84 c 132,-1,28
 652 20 652 20 570 4 c 4,29,30
 412 -27 412 -27 287 59 c 4,31,32
 98 190 98 190 100 451 c 4,33,34
 101 612 101 612 201.5 756.5 c 132,-1,35
 302 901 302 901 462 959 c 5,36,37
 615 1021 615 1021 791.5 981.5 c 132,-1,38
 968 942 968 942 1067 772 c 5,39,40
 1200 1002 1200 1002 1500 1004 c 4,41,42
 1709 1005 1709 1005 1838 873 c 4,43,44
 1925 788 1925 788 1925 661.5 c 132,-1,45
 1925 535 1925 535 1833 460 c 5,46,47
 1922 393 1922 393 1933.5 303 c 132,-1,48
 1945 213 1945 213 1910.5 143.5 c 132,-1,49
 1876 74 1876 74 1801 29.5 c 132,-1,50
 1726 -15 1726 -15 1632 -10 c 132,-1,51
 1538 -5 1538 -5 1460 48 c 4,52,53
 1429 69 1429 69 1429 102.5 c 132,-1,54
 1429 136 1429 136 1449.5 156.5 c 132,-1,55
 1470 177 1470 177 1495.5 177 c 132,-1,56
 1521 177 1521 177 1551.5 155.5 c 132,-1,57
 1582 134 1582 134 1638 131 c 132,-1,58
 1694 128 1694 128 1736 154 c 4,59,60
 1737 155 1737 155 1739 156 c 4,61,62
 1781 180 1781 180 1792 236.5 c 4,63,64
 1803.32592593 294.674074074 1803.32592593 294.674074074 1767 331 c 4,65,66
 1736 367 1736 367 1687.5 375 c 132,-1,67
 1639 383 1639 383 1528 384 c 4,68,69
 1499 384 1499 384 1479 404.5 c 132,-1,70
 1459 425 1459 425 1459 453 c 132,-1,71
 1459 481 1459 481 1478 501.5 c 132,-1,72
 1497 522 1497 522 1516 523 c 132,-1,73
 1535 524 1535 524 1617 528 c 132,-1,74
 1699 532 1699 532 1719 547.5 c 132,-1,75
 1739 563 1739 563 1740 564 c 4,76,77
 1785 597 1785 597 1785 663.5 c 4,78,79
 1785 728 1785 728 1738 775 c 4,80,81
 1650 866 1650 866 1493 863 c 4,82,83
 1423 862 1423 862 1344.5 837 c 132,-1,84
 1266 812 1266 812 1206.5 728 c 132,-1,85
 1147 644 1147 644 1143 559.5 c 132,-1,86
 1139 475 1139 475 1139 394 c 6,0,-1
569 518 m 4,87,88
 491 554 491 554 421 528 c 4,89,90
 419 527 419 527 399 521 c 132,-1,91
 379 515 379 515 347.5 484.5 c 132,-1,92
 316 454 316 454 300 415 c 4,93,94
 261 323 261 323 296 253 c 4,95,96
 299 247 299 247 301 240 c 4,97,98
 344 184 344 184 407 155.5 c 132,-1,99
 470 127 470 127 532 140 c 4,100,101
 533 140 533 140 534 141 c 4,102,103
 583 150 583 150 623.5 188.5 c 132,-1,104
 664 227 664 227 680.5 280 c 132,-1,105
 697 333 697 333 684 381 c 4,106,107
 683 383 683 383 678.5 405 c 132,-1,108
 674 427 674 427 643 462.5 c 132,-1,109
 612 498 612 498 569 518 c 4,87,88
1824 452 m 5,110,-1
 1823 452 l 5,111,-1
 1824 452 l 5,110,-1
EndSplineSet
EndChar

StartChar: ch1
Encoding: 60 3354 60
Width: 1677
GlyphClass: 2
Flags: MW
LayerCount: 2
Back
Fore
SplineSet
1457.12304688 980.461914062 m 132,-1,1
 1477.31640625 1001.24609375 1477.31640625 1001.24609375 1506.60253906 1001.68164062 c 132,-1,2
 1535.88769531 1002.1171875 1535.88769531 1002.1171875 1556.82226562 981.194335938 c 132,-1,3
 1577.7578125 960.270507812 1577.7578125 960.270507812 1577.33300781 930.67578125 c 6,4,-1
 1577.17480469 72.74609375 l 6,5,6
 1577.16796875 43.8154296875 1577.16796875 43.8154296875 1556.74023438 23.3310546875 c 132,-1,7
 1536.3125 2.845703125 1536.3125 2.845703125 1507.38183594 2.7578125 c 4,8,9
 179.955078125 -1.1826171875 179.955078125 -1.1826171875 160.930664062 -1.44140625 c 132,-1,10
 141.90625 -1.69921875 141.90625 -1.69921875 120.997070312 18.80078125 c 132,-1,11
 100.087890625 39.2998046875 100.087890625 39.2998046875 100 68.58203125 c 132,-1,12
 99.9140625 97.86328125 99.9140625 97.86328125 120.700195312 118.487304688 c 132,-1,13
 141.487304688 139.110351562 141.487304688 139.110351562 170.766601562 138.79296875 c 6,14,-1
 730.547851562 140.453125 l 5,15,16
 771.612304688 145.357421875 771.612304688 145.357421875 791.033203125 154.865234375 c 132,-1,17
 810.454101562 164.372070312 810.454101562 164.372070312 811.368164062 164.787109375 c 4,18,19
 897.217773438 203.798828125 897.217773438 203.798828125 931.959960938 305.251953125 c 132,-1,20
 966.71875 406.744140625 966.71875 406.744140625 922.393554688 489.630859375 c 4,21,22
 921.520507812 491.263671875 921.520507812 491.263671875 920.733398438 492.943359375 c 4,23,24
 899.2734375 538.75 899.2734375 538.75 851.237304688 569.577148438 c 4,25,26
 750.634765625 634.140625 750.634765625 634.140625 651.282226562 584.3203125 c 4,27,28
 649.543945312 583.313476562 649.543945312 583.313476562 647.749023438 582.408203125 c 4,29,30
 586.943359375 551.73828125 586.943359375 551.73828125 561.958007812 477.219726562 c 132,-1,31
 536.97265625 402.702148438 536.97265625 402.702148438 566.192382812 340.8359375 c 4,32,33
 579.01171875 314.495117188 579.01171875 314.495117188 569.250976562 286.875 c 132,-1,34
 559.490234375 259.254882812 559.490234375 259.254882812 532.967773438 246.817382812 c 132,-1,35
 506.4453125 234.379882812 506.4453125 234.379882812 478.969726562 244.537109375 c 132,-1,36
 451.493164062 254.6953125 451.493164062 254.6953125 432.065429688 296.622070312 c 132,-1,37
 412.63671875 338.548828125 412.63671875 338.548828125 410.021484375 402.311523438 c 132,-1,38
 407.40625 466.07421875 407.40625 466.07421875 426.625976562 523.336914062 c 4,39,40
 468.755859375 648.862304688 468.755859375 648.862304688 584.588867188 707.34765625 c 4,41,42
 652.427734375 745.486328125 652.427734375 745.486328125 740.630859375 747.669921875 c 132,-1,43
 828.833007812 749.854492188 828.833007812 749.854492188 916.0859375 697.260742188 c 132,-1,44
 1003.33886719 644.66796875 1003.33886719 644.66796875 1051.05859375 548.076171875 c 132,-1,45
 1098.77734375 451.485351562 1098.77734375 451.485351562 1085.66894531 339.881835938 c 132,-1,46
 1072.56054688 228.278320312 1072.56054688 228.278320312 1002.55175781 141.26171875 c 5,47,-1
 1437.18652344 142.55078125 l 5,48,-1
 1437.33300781 930.701171875 l 6,49,0
 1436.92871094 959.676757812 1436.92871094 959.676757812 1457.12304688 980.461914062 c 132,-1,1
EndSplineSet
EndChar

StartChar: ch2
Encoding: 61 3355 61
Width: 2433
GlyphClass: 2
Flags: MW
LayerCount: 2
Back
Fore
SplineSet
1406 0 m 0,0,1
 71 6 71 6 56 6 c 128,-1,2
 41 6 41 6 20.5 26.5 c 128,-1,3
 0 47 0 47 0 76 c 128,-1,4
 0 105 0 105 20.5 125.5 c 128,-1,5
 41 146 41 146 56 146 c 0,6,-1
 71 146 l 2,7,-1
 611 144 l 1,8,9
 620 147 620 147 628 147 c 0,10,11
 690 152 690 152 743 191.5 c 128,-1,12
 796 231 796 231 824.5 290.5 c 128,-1,13
 853 350 853 350 846 411 c 0,14,15
 846 413 846 413 846 415 c 0,16,17
 843 472 843 472 805.5 523 c 128,-1,18
 768 574 768 574 710.5 598.5 c 128,-1,19
 653 623 653 623 597 609 c 0,20,21
 595 609 595 609 575 604.5 c 128,-1,22
 555 600 555 600 522 572 c 128,-1,23
 489 544 489 544 472 507 c 0,24,25
 430 417 430 417 466 349 c 0,26,27
 473 334 473 334 473 311 c 128,-1,28
 473 288 473 288 452.5 267.5 c 128,-1,29
 432 247 432 247 395.5 247 c 128,-1,30
 359 247 359 247 342 283 c 0,31,32
 297 378 297 378 314 479 c 0,33,34
 335 610 335 610 459 702 c 0,35,36
 528 754 528 754 628 754.5 c 128,-1,37
 728 755 728 755 805.5 711 c 128,-1,38
 883 667 883 667 931.5 591 c 128,-1,39
 980 515 980 515 987 432 c 0,40,41
 1001 266 1001 266 897 142 c 1,42,-1
 1251 141 l 1,43,44
 1182 248 1182 248 1166 374.5 c 128,-1,45
 1150 501 1150 501 1190.5 619.5 c 128,-1,46
 1231 738 1231 738 1315.5 826.5 c 128,-1,47
 1400 915 1400 915 1511 962 c 0,48,49
 1680 1034 1680 1034 1854 998 c 1,50,51
 1961 980 1961 980 2056 920.5 c 128,-1,52
 2151 861 2151 861 2216 776.5 c 128,-1,53
 2281 692 2281 692 2311.5 584 c 128,-1,54
 2342 476 2342 476 2329.5 382.5 c 128,-1,55
 2317 289 2317 289 2278 217.5 c 128,-1,56
 2239 146 2239 146 2181 95 c 128,-1,57
 2123 44 2123 44 2045.5 18.5 c 128,-1,58
 1968 -7 1968 -7 1885 3.5 c 128,-1,59
 1802 14 1802 14 1731 61 c 128,-1,60
 1660 108 1660 108 1617 176 c 0,61,62
 1523 323 1523 323 1552 488 c 1,63,64
 1567 611 1567 611 1643.5 710.5 c 128,-1,65
 1720 810 1720 810 1833 860 c 1,66,67
 1832 860 l 0,68,69
 1831 860 1831 860 1830 860 c 128,-1,70
 1829 860 1829 860 1828 861 c 0,71,72
 1683 895 1683 895 1525 810 c 0,73,74
 1457 773 1457 773 1403.5 712.5 c 128,-1,75
 1350 652 1350 652 1326 579 c 0,76,77
 1326 578 1326 578 1325 577 c 0,78,79
 1282 461 1282 461 1318 332 c 128,-1,80
 1354 203 1354 203 1450 124 c 0,81,82
 1476 103 1476 103 1476 72 c 128,-1,83
 1476 41 1476 41 1455.5 20.5 c 128,-1,84
 1435 0 1435 0 1406 0 c 0,0,1
2037 759 m 0,85,86
 2033 759 2033 759 2030.5 759 c 128,-1,87
 2028 759 2028 759 2007 760 c 0,88,89
 1947 762 1947 762 1873 722.5 c 128,-1,90
 1799 683 1799 683 1749.5 615.5 c 128,-1,91
 1700 548 1700 548 1690 470 c 0,92,93
 1690 468 1690 468 1685.5 441 c 128,-1,94
 1681 414 1681 414 1693.5 359 c 128,-1,95
 1706 304 1706 304 1734 258.5 c 128,-1,96
 1762 213 1762 213 1807 181 c 128,-1,97
 1852 149 1852 149 1904 143 c 0,98,-1
 1905 143 l 0,99,100
 1970 134 1970 134 2033.5 166.5 c 128,-1,101
 2097 199 2097 199 2138.5 258.5 c 128,-1,102
 2180 318 2180 318 2187 384 c 0,103,104
 2187 385 2187 385 2187 387 c 0,105,106
 2202 488 2202 488 2160.5 587.5 c 128,-1,107
 2119 687 2119 687 2037 759 c 0,85,86
EndSplineSet
EndChar

StartChar: ch3
Encoding: 62 3356 62
Width: 1528
GlyphClass: 2
Flags: MW
LayerCount: 2
Back
Fore
SplineSet
209 927 m 0,0,1
 341 1044 341 1044 522 1020.5 c 128,-1,2
 703 997 703 997 788 878 c 1,3,4
 865 977 865 977 969 1001.5 c 128,-1,5
 1073 1026 1073 1026 1172 1001 c 128,-1,6
 1271 976 1271 976 1344.5 886 c 128,-1,7
 1418 796 1418 796 1420 695 c 0,8,9
 1424 524 1424 524 1303 404 c 1,10,11
 1360 374 1360 374 1399.5 313 c 128,-1,12
 1439 252 1439 252 1425 167.5 c 128,-1,13
 1411 83 1411 83 1344.5 29.5 c 128,-1,14
 1278 -24 1278 -24 1193 -19 c 128,-1,15
 1108 -14 1108 -14 1058 34 c 0,16,17
 966 125 966 125 982 238 c 1,18,19
 941 217 941 217 862.5 173.5 c 128,-1,20
 784 130 784 130 748 111 c 0,21,22
 420 -59 420 -59 240 28 c 0,23,24
 182 56 182 56 145.5 109.5 c 128,-1,25
 109 163 109 163 113.5 227 c 128,-1,26
 118 291 118 291 157 338 c 0,27,28
 244 442 244 442 411 434 c 0,29,30
 526 429 526 429 722.5 404.5 c 128,-1,31
 919 380 919 380 1046 416 c 0,32,33
 1048 417 1048 417 1055 419 c 0,34,35
 1202 465 1202 465 1257 576 c 0,36,37
 1281 625 1281 625 1280 684.5 c 128,-1,38
 1279 744 1279 744 1235.5 798 c 128,-1,39
 1192 852 1192 852 1133 867 c 0,40,41
 1013 897 1013 897 936.5 831 c 128,-1,42
 860 765 860 765 853 672 c 0,43,44
 854 652 854 652 855 631 c 2,45,-1
 859 513 l 1,46,-1
 859 498 l 2,47,48
 859 484 859 484 838.5 463 c 128,-1,49
 818 442 818 442 789.5 442 c 128,-1,50
 761 442 761 442 740.5 461.5 c 128,-1,51
 720 481 720 481 719 508 c 2,52,-1
 714 624 l 2,53,54
 712 648 712 648 711 676 c 0,55,56
 708 803 708 803 605 854 c 0,57,58
 543 885 543 885 461 882 c 1,59,60
 529 842 529 842 564.5 761 c 128,-1,61
 600 680 600 680 570.5 601.5 c 128,-1,62
 541 523 541 523 485.5 481 c 128,-1,63
 430 439 430 439 363 435 c 128,-1,64
 296 431 296 431 239 461 c 128,-1,65
 182 491 182 491 148 543 c 0,66,67
 76 650 76 650 112 773 c 0,68,69
 137 863 137 863 209 927 c 0,0,1
377.5 768 m 128,-1,71
 339 784 339 784 300.5 768.5 c 128,-1,72
 262 753 262 753 245 715 c 1,73,74
 230 671 230 671 263.5 621 c 128,-1,75
 297 571 297 571 354.5 574.5 c 128,-1,76
 412 578 412 578 434 637 c 0,77,78
 449 676 449 676 432.5 714 c 128,-1,70
 416 752 416 752 377.5 768 c 128,-1,71
1190 294 m 1,79,80
 1182 287 1182 287 1171 283 c 128,-1,81
 1160 279 1160 279 1149 269 c 0,82,83
 1108 232 1108 232 1125 178 c 128,-1,84
 1142 124 1142 124 1200 121 c 0,85,86
 1232 119 1232 119 1257 139 c 128,-1,87
 1282 159 1282 159 1287 190 c 128,-1,88
 1292 221 1292 221 1271 254 c 128,-1,89
 1250 287 1250 287 1190 294 c 1,79,80
595.5 277.5 m 128,-1,91
 488 291 488 291 397.5 295 c 128,-1,92
 307 299 307 299 273.5 259 c 128,-1,93
 240 219 240 219 258.5 192 c 128,-1,94
 277 165 277 165 312 148 c 128,-1,95
 347 131 347 131 447 146 c 128,-1,96
 547 161 547 161 731 261 c 1,97,90
 703 264 703 264 595.5 277.5 c 128,-1,91
EndSplineSet
EndChar

StartChar: ch4
Encoding: 63 3357 63
Width: 3328
GlyphClass: 2
Flags: MW
LayerCount: 2
Back
Fore
SplineSet
2220 550 m 5,0,1
 2213 925 2213 925 2213 935 c 132,-1,2
 2213 945 2213 945 2222 961 c 4,3,4
 2242 996 2242 996 2277 996 c 132,-1,5
 2312 996 2312 996 2332 975.5 c 132,-1,6
 2352 955 2352 955 2352.5 928 c 132,-1,7
 2353 901 2353 901 2357.5 730 c 132,-1,8
 2362 559 2362 559 2359 460 c 5,9,10
 2372 339 2372 339 2459.5 244 c 132,-1,11
 2547 149 2547 149 2665 134 c 4,12,13
 2667 134 2667 134 2697 128 c 132,-1,14
 2727 122 2727 122 2788 134 c 4,15,16
 2903 157 2903 157 2992.5 253 c 132,-1,17
 3082 349 3082 349 3085 472 c 4,18,19
 3085 474 3085 474 3085 476 c 4,20,21
 3091 549 3091 549 3061 621 c 132,-1,22
 3031 693 3031 693 2978.5 746 c 132,-1,23
 2926 799 2926 799 2854.5 829.5 c 132,-1,24
 2783 860 2783 860 2710 855 c 5,25,26
 2691 855 l 6,27,28
 2675 855 2675 855 2654.5 875.5 c 132,-1,29
 2634 896 2634 896 2634 924.5 c 132,-1,30
 2634 953 2634 953 2653.5 973.5 c 132,-1,31
 2673 994 2673 994 2700 995 c 4,32,33
 2876 1007 2876 1007 3018 900 c 132,-1,34
 3160 793 3160 793 3206 636.5 c 132,-1,35
 3252 480 3252 480 3203 338.5 c 132,-1,36
 3154 197 3154 197 3045 105.5 c 132,-1,37
 2936 14 2936 14 2786 -9 c 4,38,39
 2717 -19 2717 -19 2648 -5 c 5,40,41
 2545 8 2545 8 2457 63.5 c 132,-1,42
 2369 119 2369 119 2310 204 c 5,43,44
 2233 52 2233 52 2091 2 c 132,-1,45
 1949 -48 1949 -48 1814 18 c 4,46,47
 1721 64 1721 64 1645 171 c 132,-1,48
 1569 278 1569 278 1559 415 c 4,49,50
 1539 692 1539 692 1390 781 c 4,51,52
 1388 782 1388 782 1387 783 c 4,53,54
 1261 868 1261 868 1093 840 c 5,55,56
 1186 760 1186 760 1242 652 c 4,57,58
 1363 414 1363 414 1254 184 c 4,59,60
 1222 115 1222 115 1162 65.5 c 132,-1,61
 1102 16 1102 16 1032.5 -4.5 c 132,-1,62
 963 -25 963 -25 886 -13 c 132,-1,63
 809 -1 809 -1 739.5 50.5 c 132,-1,64
 670 102 670 102 629 185 c 4,65,66
 547 347 547 347 594 539 c 4,67,68
 615 625 615 625 660 699 c 5,69,70
 703 778 703 778 772 840 c 5,71,72
 665 858 665 858 557 826.5 c 132,-1,73
 449 795 449 795 365.5 719.5 c 132,-1,74
 282 644 282 644 254 542 c 4,75,76
 254 541 254 541 254 540 c 4,77,78
 227 453 227 453 253.5 362.5 c 132,-1,79
 280 272 280 272 349.5 208 c 132,-1,80
 419 144 419 144 509 131 c 4,81,82
 534 128 534 128 551.5 107 c 132,-1,83
 569 86 569 86 569 59 c 132,-1,84
 569 32 569 32 549 12 c 4,85,86
 501 -36 501 -36 374 26 c 132,-1,87
 247 88 247 88 175.5 198 c 132,-1,88
 104 308 104 308 100 449 c 132,-1,89
 96 590 96 590 183.5 722.5 c 132,-1,90
 271 855 271 855 417 925 c 4,91,92
 667 1044 667 1044 929 940 c 5,93,94
 1108 1018 1108 1018 1293 975 c 4,95,96
 1384 953 1384 953 1462 901 c 5,97,98
 1676 773 1676 773 1698 447 c 4,99,100
 1706 327 1706 327 1772.5 233 c 132,-1,101
 1839 139 1839 139 1940 124 c 4,102,103
 1941 124 1941 124 1941 123 c 4,104,105
 2041 106 2041 106 2124.5 186 c 132,-1,106
 2208 266 2208 266 2216 378 c 4,107,108
 2218 411 2218 411 2219 451 c 5,109,110
 2215 500 2215 500 2220 548 c 5,111,-1
 2220 550 l 5,0,1
933 782 m 5,112,113
 834 724 834 724 783 632 c 4,114,115
 782 630 782 630 764.5 602 c 132,-1,116
 747 574 747 574 730.5 506 c 132,-1,117
 714 438 714 438 719 373 c 4,118,119
 730 232 730 232 830 159 c 4,120,121
 831 158 831 158 832 158 c 4,122,123
 901 104 901 104 995.5 133.5 c 132,-1,124
 1090 163 1090 163 1127 243 c 4,125,126
 1127 244 1127 244 1128 245 c 4,127,128
 1215 440 1215 440 1083 638 c 4,129,130
 1022 730 1022 730 933 782 c 5,112,113
EndSplineSet
EndChar

StartChar: nj
Encoding: 64 3358 64
Width: 2652
GlyphClass: 2
Flags: MW
LayerCount: 2
Back
Fore
SplineSet
1074 736 m 5,0,1
 1186 955 1186 955 1459 1005 c 4,2,3
 1576 1027 1576 1027 1737 961 c 5,4,5
 1881 1015 1881 1015 2050.5 998.5 c 132,-1,6
 2220 982 2220 982 2362 863.5 c 132,-1,7
 2504 745 2504 745 2541 568.5 c 132,-1,8
 2578 392 2578 392 2501 236.5 c 132,-1,9
 2424 81 2424 81 2264 1 c 4,10,11
 2250 -6 2250 -6 2228 -6 c 132,-1,12
 2206 -6 2206 -6 2186.5 13.5 c 132,-1,13
 2167 33 2167 33 2167 55 c 4,14,15
 2167 103 2167 103 2214.5 125.5 c 132,-1,16
 2262 148 2262 148 2307.5 193 c 132,-1,17
 2353 238 2353 238 2381 294 c 4,18,19
 2439 411 2439 411 2411 542 c 132,-1,20
 2383 673 2383 673 2274 764 c 4,21,22
 2112 899 2112 899 1895 870 c 5,23,24
 2070 716 2070 716 2091 481 c 4,25,26
 2107 298 2107 298 2014 162 c 4,27,28
 1963 87 1963 87 1885 42 c 132,-1,29
 1807 -3 1807 -3 1714.5 -3.5 c 132,-1,30
 1622 -4 1622 -4 1540 45 c 132,-1,31
 1458 94 1458 94 1409.5 173 c 132,-1,32
 1361 252 1361 252 1347.5 344 c 132,-1,33
 1334 436 1334 436 1353 530 c 132,-1,34
 1372 624 1372 624 1428.5 715.5 c 132,-1,35
 1485 807 1485 807 1568 873 c 5,36,37
 1426 887 1426 887 1300 802.5 c 132,-1,38
 1174 718 1174 718 1150 544 c 4,39,40
 1140 468 1140 468 1140 367 c 6,41,-1
 1141 62 l 6,42,43
 1141 35 1141 35 1121 15.5 c 132,-1,44
 1101 -4 1101 -4 1074 -4 c 132,-1,45
 1047 -4 1047 -4 1027 15.5 c 132,-1,46
 1007 35 1007 35 1007 61 c 6,47,-1
 1006 363 l 6,48,49
 1006 493 1006 493 989.5 577 c 132,-1,50
 973 661 973 661 920.5 734 c 132,-1,51
 868 807 868 807 786 844.5 c 132,-1,52
 704 882 704 882 625 873 c 4,53,54
 476 857 476 857 385 762 c 132,-1,55
 294 667 294 667 257 545 c 5,56,57
 355 614 355 614 476.5 595.5 c 132,-1,58
 598 577 598 577 675.5 470 c 132,-1,59
 753 363 753 363 720 229 c 4,60,61
 703 160 703 160 656.5 105.5 c 132,-1,62
 610 51 610 51 543.5 24.5 c 132,-1,63
 477 -2 477 -2 396.5 6 c 132,-1,64
 316 14 316 14 245.5 71 c 132,-1,65
 175 128 175 128 138 211 c 4,66,67
 76 351 76 351 116.5 534 c 132,-1,68
 157 717 157 717 286 851 c 132,-1,69
 415 985 415 985 599 1004 c 4,70,71
 726 1017 726 1017 841 966 c 4,72,73
 996 896 996 896 1074 736 c 5,0,1
1734 821 m 5,74,75
 1621 765 1621 765 1550 658 c 4,76,77
 1457 517 1457 517 1478.5 370.5 c 132,-1,78
 1500 224 1500 224 1606.5 160 c 132,-1,79
 1713 96 1713 96 1821 159 c 4,80,81
 1870 187 1870 187 1904 237 c 4,82,83
 1970 333 1970 333 1959 462 c 132,-1,84
 1948 591 1948 591 1883.5 682.5 c 132,-1,85
 1819 774 1819 774 1734 821 c 5,74,75
516 441.5 m 132,-1,87
 456 478 456 478 388 461 c 132,-1,88
 320 444 320 444 285 383 c 132,-1,89
 250 322 250 322 269 255 c 4,90,91
 271 249 271 249 271 243 c 4,92,93
 325 147 325 147 413.5 138 c 132,-1,94
 502 129 502 129 560 197 c 4,95,96
 580 220 580 220 590 260 c 132,-1,97
 600 300 600 300 592 335 c 4,98,86
 576 405 576 405 516 441.5 c 132,-1,87
EndSplineSet
EndChar

StartChar: t1
Encoding: 65 3359 65
Width: 1180
GlyphClass: 2
Flags: MW
LayerCount: 2
Back
Fore
SplineSet
131 837 m 1,0,1
 206 968 206 968 421.5 1010 c 128,-1,2
 637 1052 637 1052 843 979 c 0,3,4
 962 937 962 937 1056 855 c 0,5,6
 1080 834 1080 834 1080 803 c 128,-1,7
 1080 772 1080 772 1059.5 751.5 c 128,-1,8
 1039 731 1039 731 1011 731 c 128,-1,9
 983 731 983 731 963 750 c 0,10,11
 866 836 866 836 730.5 866.5 c 128,-1,12
 595 897 595 897 447.5 870 c 128,-1,13
 300 843 300 843 252 766 c 0,14,15
 218 705 218 705 273 639 c 0,16,17
 299 607 299 607 316.5 601 c 128,-1,18
 334 595 334 595 357 585.5 c 128,-1,19
 380 576 380 576 439.5 573 c 128,-1,20
 499 570 499 570 532.5 573.5 c 128,-1,21
 566 577 566 577 655.5 585 c 128,-1,22
 745 593 745 593 830.5 577.5 c 128,-1,23
 916 562 916 562 983.5 508 c 128,-1,24
 1051 454 1051 454 1071.5 365 c 128,-1,25
 1092 276 1092 276 1044 194.5 c 128,-1,26
 996 113 996 113 912 72 c 0,27,28
 718 -25 718 -25 506 4 c 128,-1,29
 294 33 294 33 130 167 c 0,30,31
 103 188 103 188 103 219.5 c 128,-1,32
 103 251 103 251 123.5 271.5 c 128,-1,33
 144 292 144 292 171.5 292 c 128,-1,34
 199 292 199 292 218 276 c 0,35,36
 350 168 350 168 524.5 144.5 c 128,-1,37
 699 121 699 121 848 197 c 0,38,39
 849 198 849 198 851 199 c 0,40,41
 893 219 893 219 918 259 c 128,-1,42
 943 299 943 299 933 336 c 1,43,44
 933 357 933 357 910 384 c 0,45,46
 867 434 867 434 764 444 c 0,47,48
 718 449 718 449 554.5 435.5 c 128,-1,49
 391 422 391 422 286 464 c 1,50,51
 177 502 177 502 125 614 c 128,-1,52
 73 726 73 726 131 837 c 1,0,1
EndSplineSet
EndChar

StartChar: t2
Encoding: 66 3360 66
Width: 1246
GlyphClass: 2
Flags: MW
AnchorPoint: "dotreph" 584 1170 basechar 0
LayerCount: 2
Back
Fore
SplineSet
646 1043.5 m 128,-1,1
 721 1044 721 1044 815 1006.5 c 128,-1,2
 909 969 909 969 982.5 900 c 128,-1,3
 1056 831 1056 831 1097 741 c 0,4,5
 1168 593 1168 593 1136 423.5 c 128,-1,6
 1104 254 1104 254 984 142 c 0,7,8
 874 35 874 35 716.5 6 c 128,-1,9
 559 -23 559 -23 423 35.5 c 128,-1,10
 287 94 287 94 200 214 c 128,-1,11
 113 334 113 334 103 476 c 1,12,13
 88 557 88 557 156 753 c 0,14,15
 197 871 197 871 330 956 c 0,16,17
 418 1012 418 1012 494.5 1027.5 c 128,-1,0
 571 1043 571 1043 646 1043.5 c 128,-1,1
834.5 838.5 m 128,-1,19
 734 905 734 905 631 903.5 c 128,-1,20
 528 902 528 902 445 858.5 c 128,-1,21
 362 815 362 815 311 741 c 0,22,23
 255 665 255 665 244 567 c 128,-1,24
 233 469 233 469 268.5 377 c 128,-1,25
 304 285 304 285 378 226 c 0,26,27
 464 153 464 153 580.5 140 c 128,-1,28
 697 127 697 127 797 180 c 0,29,30
 861 210 861 210 909 265.5 c 128,-1,31
 957 321 957 321 981 387 c 0,32,33
 1034 532 1034 532 977 665 c 1,34,18
 935 772 935 772 834.5 838.5 c 128,-1,19
EndSplineSet
EndChar

StartChar: t4
Encoding: 68 3362 68
Width: 2777
GlyphClass: 2
Flags: MW
LayerCount: 2
Back
Fore
SplineSet
2109 984 m 0,0,1
 2234 1042 2234 1042 2353 1009.5 c 128,-1,2
 2472 977 2472 977 2542 903 c 1,3,4
 2611 836 2611 836 2645.5 746 c 128,-1,5
 2680 656 2680 656 2677 564 c 0,6,7
 2672 367 2672 367 2548 222 c 1,8,9
 2402.26376631 41.8538222498 2402.26376631 41.8538222498 2167.13188316 -7.57308887508 c 128,-1,10
 1932 -57 1932 -57 1723 37 c 0,11,12
 1601 93 1601 93 1530 213 c 1,13,14
 1464 97 1464 97 1347.5 34.5 c 128,-1,15
 1231 -28 1231 -28 1102 -6 c 1,16,17
 1000 6 1000 6 918.5 70 c 128,-1,18
 837 134 837 134 798 229 c 128,-1,19
 759 324 759 324 773 424 c 0,20,21
 774 437 774 437 783 509 c 128,-1,22
 792 581 792 581 793 615 c 0,23,24
 794.133333333 715.866666667 794.133333333 715.866666667 752 758 c 1,25,26
 710 817 710 817 634.5 839.5 c 128,-1,27
 559 862 559 862 481 844 c 0,28,29
 405.6 826.6 405.6 826.6 350 771 c 0,30,31
 208 640 208 640 257 414 c 0,32,33
 286 278 286 278 389 197 c 0,34,35
 390 196 390 196 390 195 c 0,36,37
 451 144 451 144 525 119 c 0,38,39
 545 112 545 112 559 93 c 128,-1,40
 573 74 573 74 573 49 c 128,-1,41
 573 24 573 24 552.5 3.5 c 128,-1,42
 532 -17 532 -17 511.5 -17 c 128,-1,43
 491 -17 491 -17 480 -13 c 0,44,45
 263 61 263 61 159.5 266.5 c 128,-1,46
 56 472 56 472 132 687 c 0,47,48
 170 795 170 795 253 873 c 0,49,50
 314 935 314 935 398.5 966.5 c 128,-1,51
 483 998 483 998 567.5 995.5 c 128,-1,52
 652 993 652 993 732.5 953 c 128,-1,53
 813 913 813 913 865 840 c 0,54,55
 948 732 948 732 928 544 c 0,56,57
 924 508 924 508 919 468.5 c 128,-1,58
 914 429 914 429 913 418.5 c 128,-1,59
 912 408 912 408 908.5 384.5 c 128,-1,60
 905 361 905 361 919 313.5 c 128,-1,61
 933 266 933 266 961 229 c 0,62,63
 1025 144 1025 144 1119 133 c 0,64,65
 1121 133 1121 133 1123 132 c 0,66,67
 1197 119 1197 119 1269.5 154 c 128,-1,68
 1342 189 1342 189 1389.5 255 c 128,-1,69
 1437 321 1437 321 1447 404 c 128,-1,70
 1457 487 1457 487 1460 679 c 128,-1,71
 1463 871 1463 871 1464 908 c 0,72,73
 1467 999 1467 999 1536 1000 c 0,74,75
 1564 1000 1564 1000 1584.5 979.5 c 128,-1,76
 1605 959 1605 959 1605 930 c 2,77,-1
 1605 929 l 2,78,79
 1605 892 1605 892 1603 766 c 2,80,-1
 1599 507 l 5,81,-1
 1599 491 l 2,82,83
 1596 388 1596 388 1645 296 c 128,-1,84
 1694 204 1694 204 1777 166 c 0,85,86
 1943 90 1943 90 2135.5 131 c 128,-1,87
 2328 172 2328 172 2440 311 c 0,88,89
 2441 312 2441 312 2441 313 c 0,90,91
 2491 371 2491 371 2515 449 c 1,92,93
 2448 372 2448 372 2349.5 343 c 128,-1,94
 2251 314 2251 314 2149 348 c 0,95,96
 2016 388 2016 388 1954 512 c 128,-1,97
 1892 636 1892 636 1923 759 c 0,98,99
 1940 824 1940 824 1981 876 c 0,100,101
 2032 948 2032 948 2109 984 c 0,0,1
2437 757 m 0,102,103
 2378 871 2378 871 2230 871 c 0,104,105
 2226 871 2226 871 2224 872 c 0,106,107
 2138 857 2138 857 2094 793 c 0,108,109
 2093 791 2093 791 2092 790 c 0,110,111
 2064 754 2064 754 2058.5 705 c 128,-1,112
 2053 656 2053 656 2067 611.5 c 128,-1,113
 2081 567 2081 567 2114 531 c 128,-1,114
 2147 495 2147 495 2191 482 c 1,115,116
 2265.30287206 444.848563969 2265.30287206 444.848563969 2354.15143603 499.924281984 c 128,-1,117
 2443 555 2443 555 2456 654 c 0,118,119
 2464 706 2464 706 2437 757 c 0,102,103
EndSplineSet
EndChar

StartChar: nh
Encoding: 69 3363 69
Width: 2897
GlyphClass: 2
Flags: MW
LayerCount: 2
Back
Fore
SplineSet
1982 70 m 5,0,-1
 1982 69 l 6,1,2
 1982 40 1982 40 1961 20 c 132,-1,3
 1940 0 1940 0 1911.5 0 c 132,-1,4
 1883 0 1883 0 1862.5 20 c 132,-1,5
 1842 40 1842 40 1842 68 c 6,6,-1
 1842 69 l 5,7,-1
 1839 443 l 6,8,9
 1838 559 1838 559 1822.5 630.5 c 132,-1,10
 1807 702 1807 702 1760 762.5 c 132,-1,11
 1713 823 1713 823 1641 852.5 c 132,-1,12
 1569 882 1569 882 1491 874 c 4,13,14
 1333 859 1333 859 1252 734 c 4,15,16
 1215 676 1215 676 1203 610.5 c 132,-1,17
 1191 545 1191 545 1190 439 c 5,18,-1
 1190 69 l 5,19,20
 1189 29 1189 29 1154 9 c 4,21,22
 1138 0 1138 0 1119.5 0 c 132,-1,23
 1101 0 1101 0 1085 9 c 4,24,25
 1050 29 1050 29 1050 69 c 6,26,-1
 1049 449 l 6,27,28
 1049 452 1049 452 1049 455 c 4,29,30
 1056 534 1056 534 1029 613 c 4,31,32
 974 774 974 774 820.5 841.5 c 132,-1,33
 667 909 667 909 512 846 c 4,34,35
 438 816 438 816 380 763 c 4,36,37
 284 672 284 672 253 537 c 5,38,39
 313 592 313 592 395 613 c 132,-1,40
 477 634 477 634 565 607 c 132,-1,41
 653 580 653 580 714.5 507.5 c 132,-1,42
 776 435 776 435 786.5 340 c 132,-1,43
 797 245 797 245 752.5 160.5 c 132,-1,44
 708 76 708 76 613.5 27.5 c 132,-1,45
 519 -21 519 -21 407.5 5 c 132,-1,46
 296 31 296 31 221 112 c 4,47,48
 78 267 78 267 103.5 492.5 c 132,-1,49
 129 718 129 718 287.5 867.5 c 132,-1,50
 446 1017 446 1017 663 1016 c 4,51,52
 773 1016 773 1016 875 971 c 4,53,54
 1024 905 1024 905 1110 767 c 5,55,56
 1169 885 1169 885 1269 944 c 4,57,58
 1481 1069 1481 1069 1695 982 c 4,59,60
 1831 927 1831 927 1906 796 c 5,61,62
 1992 952 1992 952 2160 1001 c 4,63,64
 2273 1034 2273 1034 2378 1011 c 4,65,66
 2576 967 2576 967 2689.5 821 c 132,-1,67
 2803 675 2803 675 2797 489.5 c 132,-1,68
 2791 304 2791 304 2668 165 c 132,-1,69
 2545 26 2545 26 2361 -2 c 4,70,71
 2355 -3 2355 -3 2338 -3 c 132,-1,72
 2321 -3 2321 -3 2300.5 17.5 c 132,-1,73
 2280 38 2280 38 2280 65.5 c 132,-1,74
 2280 93 2280 93 2297.5 113 c 132,-1,75
 2315 133 2315 133 2359.5 139.5 c 132,-1,76
 2404 146 2404 146 2462.5 178 c 132,-1,77
 2521 210 2521 210 2563 258 c 4,78,79
 2653 359 2653 359 2657.5 494 c 132,-1,80
 2662 629 2662 629 2579 735.5 c 132,-1,81
 2496 842 2496 842 2364 871 c 4,82,83
 2278 890 2278 890 2199 866.5 c 132,-1,84
 2120 843 2120 843 2066.5 782 c 132,-1,85
 2013 721 2013 721 1996 646 c 132,-1,86
 1979 571 1979 571 1980 448 c 6,87,-1
 1982 70 l 5,0,-1
607.5 417.5 m 132,-1,89
 573 458 573 458 523.5 473 c 132,-1,90
 474 488 474 488 425 476 c 132,-1,91
 376 464 376 464 340.5 428.5 c 132,-1,92
 305 393 305 393 293 344 c 4,93,94
 273 262 273 262 321 210 c 132,-1,95
 369 158 369 158 435 142.5 c 132,-1,96
 501 127 501 127 553 153.5 c 132,-1,97
 605 180 605 180 629 226.5 c 132,-1,98
 653 273 653 273 647.5 325 c 132,-1,88
 642 377 642 377 607.5 417.5 c 132,-1,89
EndSplineSet
EndChar

StartChar: th1
Encoding: 70 3364 70
Width: 1880
GlyphClass: 2
Flags: MW
LayerCount: 2
Back
Fore
SplineSet
784 857 m 1,0,1
 742 865 742 865 721 865 c 2,2,-1
 699 865 l 1,3,4
 603 868 603 868 509 829.5 c 128,-1,5
 415 791 415 791 345.5 718 c 128,-1,6
 276 645 276 645 253 553 c 0,7,8
 253 552 253 552 253 551 c 0,9,10
 222 449 222 449 273.5 335 c 128,-1,11
 325 221 325 221 429 176 c 0,12,13
 430 176 430 176 449.5 166.5 c 128,-1,14
 469 157 469 157 502 151.5 c 128,-1,15
 535 146 535 146 552.5 125.5 c 128,-1,16
 570 105 570 105 570 78 c 128,-1,17
 570 51 570 51 549.5 30.5 c 128,-1,18
 529 10 529 10 511 10 c 0,19,20
 452 10 452 10 375 46 c 0,21,22
 216 118 216 118 144 276 c 128,-1,23
 72 434 72 434 118 588 c 1,24,25
 150 715 150 715 240 813 c 128,-1,26
 330 911 330 911 451 960 c 128,-1,27
 572 1009 572 1009 701 1005 c 1,28,29
 824 1006 824 1006 940 955 c 1,30,31
 1156 1049 1156 1049 1374 982 c 1,32,33
 1604 918 1604 918 1716 714 c 0,34,35
 1772 614 1772 614 1779.5 499.5 c 128,-1,36
 1787 385 1787 385 1738 277.5 c 128,-1,37
 1689 170 1689 170 1595.5 98 c 128,-1,38
 1502 26 1502 26 1386 9 c 0,39,40
 1380 8 1380 8 1363 8 c 128,-1,41
 1346 8 1346 8 1325.5 28.5 c 128,-1,42
 1305 49 1305 49 1305 76 c 128,-1,43
 1305 103 1305 103 1323 123.5 c 128,-1,44
 1341 144 1341 144 1366 147 c 0,45,46
 1443 158 1443 158 1508 210 c 128,-1,47
 1573 262 1573 262 1608.5 337.5 c 128,-1,48
 1644 413 1644 413 1638 490 c 1,49,-1
 1638 493 l 1,50,51
 1632 614 1632 614 1544.5 714 c 128,-1,52
 1457 814 1457 814 1336 847 c 0,53,54
 1335 847 1335 847 1334 848 c 0,55,56
 1221 883 1221 883 1097 857 c 1,57,58
 1230 742 1230 742 1279 578 c 0,59,60
 1324 440 1324 440 1289.5 292.5 c 128,-1,61
 1255 145 1255 145 1129 61 c 0,62,63
 1025 -12 1025 -12 898.5 5 c 128,-1,64
 772 22 772 22 689 116 c 0,65,66
 560 256 560 256 579 466 c 0,67,68
 590 590 590 590 647 689.5 c 128,-1,69
 704 789 704 789 784 857 c 1,0,1
940 796 m 1,70,71
 833 732 833 732 777 632 c 0,72,73
 776 631 776 631 776 630 c 0,74,75
 693 490 693 490 728 337 c 0,76,77
 745 262 745 262 792 210 c 0,78,79
 793 209 793 209 794 209 c 0,80,81
 840 157 840 157 916 146 c 128,-1,82
 992 135 992 135 1048 175 c 0,83,84
 1049 176 1049 176 1050 177 c 0,85,86
 1169 257 1169 257 1163 436 c 0,87,88
 1161 488 1161 488 1153 512.5 c 128,-1,89
 1145 537 1145 537 1145 538 c 0,90,91
 1096 700 1096 700 940 796 c 1,70,71
EndSplineSet
EndChar

StartChar: th2
Encoding: 71 3365 71
Width: 1601
GlyphClass: 2
Flags: MW
LayerCount: 2
Back
Fore
SplineSet
1436 1 m 5,0,-1
 201 2 l 5,1,2
 168 -3 168 -3 139 14 c 132,-1,3
 110 31 110 31 107 64 c 4,4,5
 106 230 106 230 104 536.5 c 132,-1,6
 102 843 102 843 102 921 c 5,7,8
 93 969 93 969 130 999 c 4,9,10
 147 1013 147 1013 172 1013.5 c 132,-1,11
 197 1014 197 1014 218 995 c 132,-1,12
 239 976 239 976 241 950 c 4,13,14
 242 794 242 794 244 504.5 c 132,-1,15
 246 215 246 215 246 142 c 5,16,-1
 573 141 l 5,17,18
 572 280 572 280 570 419 c 5,19,20
 558 701 558 701 686 850 c 4,21,22
 750 929 750 929 846 971 c 132,-1,23
 942 1013 942 1013 1046 1011 c 4,24,25
 1248 1008 1248 1008 1369 874 c 132,-1,26
 1490 740 1490 740 1498 563 c 4,27,28
 1502 552 1502 552 1500.5 329 c 132,-1,29
 1499 106 1499 106 1501 89.5 c 132,-1,30
 1503 73 1503 73 1496 53 c 4,31,32
 1482 4 1482 4 1436 1 c 5,0,-1
1042 871 m 4,33,34
 872 874 872 874 780 743 c 4,35,36
 722 660 722 660 716.5 579 c 132,-1,37
 711 498 711 498 710.5 428.5 c 132,-1,38
 710 359 710 359 711.5 273 c 132,-1,39
 713 187 713 187 713 141 c 5,40,-1
 1359 141 l 5,41,-1
 1359 292 l 6,42,43
 1359 333 1359 333 1361.5 453.5 c 132,-1,44
 1364 574 1364 574 1336.5 664 c 132,-1,45
 1309 754 1309 754 1225 813 c 132,-1,46
 1141 872 1141 872 1042 871 c 4,33,34
EndSplineSet
EndChar

StartChar: th3
Encoding: 72 3366 72
Width: 1292
GlyphClass: 2
Flags: MW
LayerCount: 2
Back
Fore
SplineSet
428.5 944 m 132,-1,1
 574 1010 574 1010 731 1009 c 132,-1,2
 888 1008 888 1008 994 945 c 4,3,4
 1084 896 1084 896 1131.5 800.5 c 132,-1,5
 1179 705 1179 705 1153 608 c 5,6,7
 1148 570 1148 570 1115.5 526.5 c 132,-1,8
 1083 483 1083 483 1077 472 c 5,9,10
 1154 423 1154 423 1181 330.5 c 132,-1,11
 1208 238 1208 238 1169 156 c 4,12,13
 1125 53 1125 53 1010 10.5 c 132,-1,14
 895 -32 895 -32 781 25 c 4,15,16
 723 54 723 54 707.5 85.5 c 132,-1,17
 692 117 692 117 705 141 c 132,-1,18
 718 165 718 165 735 175 c 4,19,20
 776 200 776 200 811 173 c 5,21,22
 842 144 842 144 885.5 136 c 132,-1,23
 929 128 929 128 970 144.5 c 132,-1,24
 1011 161 1011 161 1033 198 c 4,25,26
 1063 242 1063 242 1046 295 c 4,27,28
 1018 381 1018 381 882 385 c 4,29,30
 818 387 818 387 794.5 394 c 132,-1,31
 771 401 771 401 760 427.5 c 132,-1,32
 749 454 749 454 757.5 481 c 132,-1,33
 766 508 766 508 789 517 c 132,-1,34
 812 526 812 526 869 535 c 4,35,36
 1004 557 1004 557 1019 656 c 4,37,38
 1029 718 1029 718 993 762 c 4,39,40
 909 879 909 879 692 867 c 4,41,42
 561 861 561 861 446.5 796 c 4,43,44
 332 731 332 731 276 620 c 132,-1,45
 220 509 220 509 249 381 c 4,46,47
 288 214 288 214 438 146 c 4,48,49
 538 100 538 100 493 29 c 4,50,51
 467 -11 467 -11 423 0 c 4,52,53
 259 55 259 55 167 213 c 4,54,55
 93 337 93 337 101 487.5 c 132,-1,56
 109 638 109 638 196 754 c 5,57,0
 283 878 283 878 428.5 944 c 132,-1,1
EndSplineSet
EndChar

StartChar: th4
Encoding: 73 3367 73
Width: 1988
GlyphClass: 2
Flags: MW
LayerCount: 2
Back
Fore
SplineSet
1076 491 m 2,0,-1
 1076 438 l 1,1,2
 1083 330 1083 330 1163.5 243 c 128,-1,3
 1244 156 1244 156 1352 140 c 0,4,5
 1353 140 1353 140 1354 139 c 0,6,7
 1433 125 1433 125 1514.5 155 c 128,-1,8
 1596 185 1596 185 1655.5 248 c 128,-1,9
 1715 311 1715 311 1734 390 c 0,10,11
 1734 392 1734 392 1735 393 c 0,12,13
 1760 477 1760 477 1737 569 c 128,-1,14
 1714 661 1714 661 1651 732 c 128,-1,15
 1588 803 1588 803 1505 830 c 0,16,17
 1504 830 1504 830 1503 831 c 0,18,19
 1409 864 1409 864 1315 846 c 0,20,21
 1278 839 1278 839 1254.5 862.5 c 128,-1,22
 1231 886 1231 886 1231 908 c 0,23,24
 1231 973 1231 973 1289 983 c 0,25,26
 1419 1007 1419 1007 1548 964 c 0,27,28
 1772 892 1772 892 1860 653 c 0,29,30
 1912 514 1912 514 1870 357 c 1,31,32
 1842 241 1842 241 1759.5 151.5 c 128,-1,33
 1677 62 1677 62 1562.5 21 c 128,-1,34
 1448 -20 1448 -20 1338 -1 c 0,35,36
 1115 36 1115 36 1001 224 c 1,37,38
 926 105 926 105 812 50.5 c 128,-1,39
 698 -4 698 -4 578 -2 c 128,-1,40
 458 0 458 0 355 62 c 1,41,42
 272 107 272 107 212 182 c 128,-1,43
 152 257 152 257 125 344 c 0,44,45
 65 534 65 534 149 707 c 1,46,47
 196 814 196 814 288 888 c 128,-1,48
 380 962 380 962 494.5 989 c 128,-1,49
 609 1016 609 1016 722 989 c 0,50,51
 745 984 745 984 760.5 963.5 c 128,-1,52
 776 943 776 943 776 917 c 128,-1,53
 776 891 776 891 752 867 c 128,-1,54
 728 843 728 843 669 857.5 c 128,-1,55
 610 872 610 872 526.5 851.5 c 0,56,57
 358.062360985 810.147046709 358.062360985 810.147046709 275 646 c 0,58,59
 217 527 217 527 261.5 387.5 c 128,-1,60
 306 248 306 248 421 185 c 0,61,62
 423 184 423 184 424 184 c 0,63,64
 493 143 493 143 578.5 140.5 c 128,-1,65
 664 138 664 138 742 174 c 128,-1,66
 820 210 820 210 866 275 c 0,67,68
 867 276 867 276 868 277 c 0,69,70
 946 378 946 378 936 527 c 0,71,72
 935 536 935 536 935 539 c 2,73,-1
 938 938 l 2,74,75
 939 967 939 967 959.5 987 c 128,-1,76
 980 1007 980 1007 1008.5 1007 c 128,-1,77
 1037 1007 1037 1007 1057.5 986.5 c 128,-1,78
 1078 966 1078 966 1078 937 c 0,79,80
 1076 512 1076 512 1076 491 c 2,0,-1
EndSplineSet
EndChar

StartChar: n1
Encoding: 74 3368 74
Width: 1988
GlyphClass: 2
Flags: MW
LayerCount: 2
Back
Fore
SplineSet
1052 491 m 5,0,-1
 1054 446 l 5,1,-1
 1054 47 l 6,2,3
 1054 18 1054 18 1033.5 -2.5 c 132,-1,4
 1013 -23 1013 -23 984.5 -23 c 132,-1,5
 956 -23 956 -23 935.5 -2.5 c 132,-1,6
 915 18 915 18 914 46 c 4,7,8
 912 472 912 472 912 493 c 6,9,-1
 912 546 l 5,10,11
 904 654 904 654 823 740.5 c 132,-1,12
 742 827 742 827 635 842 c 5,13,-1
 632 842 l 5,14,15
 553 856 553 856 471.5 825.5 c 132,-1,16
 390 795 390 795 331 731.5 c 132,-1,17
 272 668 272 668 254 589 c 4,18,19
 254 587 254 587 253 585 c 4,20,21
 228 500 228 500 252 409 c 132,-1,22
 276 318 276 318 339.5 247 c 132,-1,23
 403 176 403 176 487 150 c 5,24,-1
 488 150 l 5,25,26
 582 118 582 118 676 136 c 4,27,28
 716 142 716 142 738.5 119.5 c 132,-1,29
 761 97 761 97 761 74 c 4,30,31
 761 9 761 9 703 -1 c 4,32,33
 573 -26 573 -26 444 17 c 4,34,35
 220 88 220 88 130 325 c 4,36,37
 77 464 77 464 117 621 c 5,38,39
 144 738 144 738 226 827.5 c 132,-1,40
 308 917 308 917 422.5 959 c 132,-1,41
 537 1001 537 1001 648 983 c 4,42,43
 871 948 871 948 985 760 c 5,44,45
 1060 879 1060 879 1173.5 934.5 c 132,-1,46
 1287 990 1287 990 1407 989 c 132,-1,47
 1527 988 1527 988 1631 927 c 5,48,49
 1715 883 1715 883 1775 808 c 132,-1,50
 1835 733 1835 733 1863 646 c 4,51,52
 1924 456 1924 456 1841 283 c 5,53,54
 1795 176 1795 176 1704 101.5 c 132,-1,55
 1613 27 1613 27 1498.5 -1 c 132,-1,56
 1384 -29 1384 -29 1271 -3 c 4,57,58
 1248 2 1248 2 1231.5 22 c 132,-1,59
 1215 42 1215 42 1215 68.5 c 132,-1,60
 1215 95 1215 95 1236 115.5 c 132,-1,61
 1257 136 1257 136 1275.5 136 c 132,-1,62
 1294 136 1294 136 1302 134 c 4,63,64
 1381 116 1381 116 1464.5 137 c 132,-1,65
 1548 158 1548 158 1614.5 212 c 132,-1,66
 1681 266 1681 266 1713 340 c 4,67,68
 1714 341 1714 341 1714 343 c 4,69,70
 1771 462 1771 462 1727 602 c 4,71,72
 1683 742 1683 742 1566 803 c 4,73,74
 1564 804 1564 804 1563 805 c 4,75,76
 1494 846 1494 846 1408 847.5 c 132,-1,77
 1322 849 1322 849 1244.5 812 c 132,-1,78
 1167 775 1167 775 1121 710 c 4,79,80
 1120 709 1120 709 1119 708 c 4,81,82
 1053 622 1053 622 1052 491 c 5,0,-1
EndSplineSet
EndChar

StartChar: p1
Encoding: 75 3370 75
Width: 1728
GlyphClass: 2
Flags: MW
LayerCount: 2
Back
Fore
SplineSet
1557 1007 m 1,0,1
 1572 1007 l 2,2,3
 1587 1007 1587 1007 1607.5 986.5 c 128,-1,4
 1628 966 1628 966 1628 937 c 2,5,-1
 1629 66 l 2,6,7
 1629 36 1629 36 1608.5 16 c 128,-1,8
 1588 -4 1588 -4 1559 -4 c 2,9,-1
 573 1 l 2,10,11
 547 1 547 1 525.5 22.5 c 128,-1,12
 504 44 504 44 504 67.5 c 128,-1,13
 504 91 504 91 516.5 110 c 128,-1,14
 529 129 529 129 546 136 c 0,15,16
 615 169 615 169 650.5 239 c 128,-1,17
 686 309 686 309 670 384.5 c 128,-1,18
 654 460 654 460 594 508 c 128,-1,19
 534 556 534 556 456 555.5 c 128,-1,20
 378 555 378 555 318 504 c 128,-1,21
 258 453 258 453 244.5 375.5 c 128,-1,22
 231 298 231 298 271 229 c 128,-1,23
 311 160 311 160 384 135 c 0,24,25
 403 128 403 128 417 108.5 c 128,-1,26
 431 89 431 89 431 64.5 c 128,-1,27
 431 40 431 40 410.5 19.5 c 128,-1,28
 390 -1 390 -1 369 -1 c 128,-1,29
 348 -1 348 -1 336 3 c 0,30,31
 214 48 214 48 149 160 c 128,-1,32
 84 272 84 272 106 399.5 c 128,-1,33
 128 527 128 527 227 611 c 128,-1,34
 326 695 326 695 454.5 696 c 128,-1,35
 583 697 583 697 681.5 617.5 c 128,-1,36
 780 538 780 538 809 404.5 c 128,-1,37
 838 271 838 271 757 144 c 1,38,-1
 1489 136 l 1,39,-1
 1488 936 l 1,40,-1
 1488 952 l 2,41,42
 1488 966 1488 966 1516.5 995 c 128,-1,43
 1545 1024 1545 1024 1557 1007 c 1,0,1
EndSplineSet
EndChar

StartChar: p2
Encoding: 76 3371 76
Width: 2182
GlyphClass: 2
Flags: MW
LayerCount: 2
Back
Fore
SplineSet
2006.0078125 0 m 5,0,-1
 590.0078125 -1 l 6,1,2
 546.0078125 -1 546.0078125 -1 524.5078125 45.5 c 132,-1,3
 503.0078125 92 503.0078125 92 563.5078125 137.5 c 132,-1,4
 624.0078125 183 624.0078125 183 630.0078125 192.5 c 132,-1,5
 636.0078125 202 636.0078125 202 638.0078125 205 c 4,6,7
 675.0078125 251 675.0078125 251 679.0078125 315.5 c 132,-1,8
 683.0078125 380 683.0078125 380 654.5078125 437.5 c 132,-1,9
 626.0078125 495 626.0078125 495 574.0078125 523 c 4,10,11
 572.0078125 524 572.0078125 524 553.0078125 536.5 c 132,-1,12
 534.0078125 549 534.0078125 549 486.0078125 552.5 c 132,-1,13
 438.0078125 556 438.0078125 556 395.0078125 542 c 4,14,15
 296.0078125 510 296.0078125 510 261.0078125 426 c 5,16,17
 221.232421875 346.44921875 221.232421875 346.44921875 261.0078125 249 c 4,18,19
 278.0078125 208 278.0078125 208 311.0078125 175 c 132,-1,20
 344.0078125 142 344.0078125 142 378.5078125 131 c 132,-1,21
 413.0078125 120 413.0078125 120 426.5078125 94 c 132,-1,22
 440.0078125 68 440.0078125 68 430.5078125 40 c 132,-1,23
 421.0078125 12 421.0078125 12 395.0078125 -1 c 132,-1,24
 369.0078125 -14 369.0078125 -14 341.0078125 -5 c 4,25,26
 269.0078125 19 269.0078125 19 213.0078125 73 c 4,27,28
 101.0078125 181 101.0078125 181 100.0078125 339.5 c 132,-1,29
 99.0078125 498 99.0078125 498 219.5078125 603.5 c 132,-1,30
 340.0078125 709 340.0078125 709 498.0078125 694 c 4,31,32
 575.0078125 687 575.0078125 687 643.0078125 646 c 5,33,-1
 645.0078125 644 l 5,34,35
 731.0078125 595 731.0078125 595 778.5078125 507 c 132,-1,36
 826.0078125 419 826.0078125 419 822.0078125 319.5 c 132,-1,37
 818.0078125 220 818.0078125 220 763.0078125 138 c 5,38,-1
 1109.0078125 137 l 5,39,40
 1107.10742188 156 1107.10742188 156 1101.0078125 278 c 4,41,42
 1081.0078125 742 1081.0078125 742 1346.0078125 922 c 4,43,44
 1459.0078125 999 1459.0078125 999 1589.0078125 998 c 4,45,46
 1981.0078125 992 1981.0078125 992 2071.0078125 474 c 5,47,48
 2084.0078125 366 2084.0078125 366 2082.5078125 234 c 132,-1,49
 2081.0078125 102 2081.0078125 102 2081.5078125 71.5 c 132,-1,50
 2082.0078125 41 2082.0078125 41 2059.5078125 19.5 c 132,-1,51
 2037.0078125 -2 2037.0078125 -2 2006.0078125 0 c 5,0,-1
1665.0078125 844 m 4,52,53
 1544.0078125 885 1544.0078125 885 1421.0078125 802 c 4,54,55
 1221.12109375 667.8984375 1221.12109375 667.8984375 1245.0078125 223 c 4,56,57
 1249.0078125 149 1249.0078125 149 1249.0078125 140 c 5,58,-1
 1942.0078125 140 l 5,59,60
 1942.0078125 372.333007812 1942.0078125 372.333007812 1934.0078125 439 c 4,61,62
 1908.0078125 646 1908.0078125 646 1799.0078125 760 c 4,63,64
 1741.0078125 821 1741.0078125 821 1667.0078125 844 c 4,65,66
 1666.0078125 844 1666.0078125 844 1665.0078125 844 c 4,52,53
EndSplineSet
EndChar

StartChar: p3
Encoding: 77 3372 77
Width: 2523
GlyphClass: 2
Flags: MW
LayerCount: 2
Back
Fore
SplineSet
2282 143 m 1,0,-1
 2282 910 l 1,1,2
 2275 947 2275 947 2294.5 979.5 c 128,-1,3
 2314 1012 2314 1012 2345 1012 c 128,-1,4
 2376 1012 2376 1012 2396.5 995 c 128,-1,5
 2417 978 2417 978 2421 954 c 0,6,7
 2423 878 2423 878 2422 536 c 128,-1,8
 2421 194 2421 194 2423 136.5 c 128,-1,9
 2425 79 2425 79 2414.5 45 c 128,-1,10
 2404 11 2404 11 2365 4 c 1,11,12
 2286 2 2286 2 1930 4 c 128,-1,13
 1574 6 1574 6 1495 6 c 1,14,15
 1449 -3 1449 -3 1422.5 39 c 128,-1,16
 1396 81 1396 81 1423 115 c 0,17,18
 1456 150 1456 150 1527 157 c 0,19,20
 1681 171 1681 171 1766 334 c 0,21,22
 1813 424 1813 424 1808 525 c 128,-1,23
 1803 626 1803 626 1746 706 c 1,24,25
 1705 772 1705 772 1633 812 c 0,26,27
 1483 898 1483 898 1330 844 c 0,28,29
 1137 776 1137 776 1127 519 c 0,30,31
 1123 432 1123 432 1125 253 c 128,-1,32
 1127 74 1127 74 1121.5 51 c 128,-1,33
 1116 28 1116 28 1095 15.5 c 128,-1,34
 1074 3 1074 3 1052 4.5 c 128,-1,35
 1030 6 1030 6 1010.5 20 c 128,-1,36
 991 34 991 34 989 56 c 128,-1,37
 987 78 987 78 985 511 c 0,38,39
 984 673 984 673 891 776 c 0,40,41
 842 831 842 831 755.5 856.5 c 128,-1,42
 669 882 669 882 571.5 853.5 c 128,-1,43
 474 825 474 825 395.5 752.5 c 128,-1,44
 317 680 317 680 280 585 c 1,45,46
 359 632 359 632 456 627.5 c 128,-1,47
 553 623 553 623 627 568 c 1,48,49
 700 519 700 519 734.5 434 c 128,-1,50
 769 349 769 349 755.5 258.5 c 128,-1,51
 742 168 742 168 682 104 c 1,52,53
 630 41 630 41 550 15 c 128,-1,54
 470 -11 470 -11 387 5 c 128,-1,55
 304 21 304 21 243 75 c 0,56,57
 139 164 139 164 117 273 c 1,58,59
 81 407 81 407 122 557.5 c 128,-1,60
 163 708 163 708 270 824.5 c 128,-1,61
 377 941 377 941 521 985 c 1,62,63
 659 1035 659 1035 816.5 984 c 128,-1,64
 974 933 974 933 1051 796 c 1,65,66
 1063 800 1063 800 1103.5 851.5 c 128,-1,67
 1144 903 1144 903 1171 916 c 1,68,69
 1249 975 1249 975 1349 994.5 c 128,-1,70
 1449 1014 1449 1014 1543.5 995 c 128,-1,71
 1638 976 1638 976 1724 921 c 128,-1,72
 1810 866 1810 866 1862 784 c 1,73,74
 1929 689 1929 689 1944 570 c 128,-1,75
 1959 451 1959 451 1920 337.5 c 128,-1,76
 1881 224 1881 224 1796 145 c 1,77,78
 2039 144 2039 144 2282 143 c 1,0,-1
439 488 m 0,79,80
 369 487 369 487 320 441 c 0,81,82
 264 394 264 394 262.5 318 c 128,-1,83
 261 242 261 242 318 196 c 1,84,85
 355 154 355 154 412.5 142.5 c 128,-1,86
 470 131 470 131 522.5 154.5 c 128,-1,87
 575 178 575 178 600 230 c 1,88,89
 639 298 639 298 604.5 378.5 c 128,-1,90
 570 459 570 459 491 482 c 0,91,92
 466 490 466 490 439 488 c 0,79,80
EndSplineSet
EndChar

StartChar: p4
Encoding: 78 3373 78
Width: 1332
GlyphClass: 2
Flags: MW
LayerCount: 2
Back
Fore
SplineSet
631 983 m 5,0,1
 863 1012 863 1012 1054 934 c 4,2,3
 1137 900 1137 900 1191.5 820.5 c 132,-1,4
 1246 741 1246 741 1223.5 649.5 c 132,-1,5
 1201 558 1201 558 1108.5 514 c 132,-1,6
 1016 470 1016 470 844 520 c 4,7,8
 732 552 732 552 682 535 c 4,9,10
 680 534 680 534 663.5 530 c 132,-1,11
 647 526 647 526 631 496.5 c 132,-1,12
 615 467 615 467 626 444 c 4,13,14
 626 443 626 443 627 443 c 4,15,16
 662 372 662 372 796 383 c 4,17,18
 801 383 801 383 851.5 388 c 132,-1,19
 902 393 902 393 962.5 393.5 c 132,-1,20
 1023 394 1023 394 1068 376.5 c 132,-1,21
 1113 359 1113 359 1153 331.5 c 132,-1,22
 1193 304 1193 304 1216.5 251 c 132,-1,23
 1240 198 1240 198 1230 140.5 c 132,-1,24
 1220 83 1220 83 1177 42 c 4,25,26
 1097 -38 1097 -38 958 -35 c 4,27,28
 914 -34 914 -34 882.5 -31 c 132,-1,29
 851 -28 851 -28 781 -22.5 c 132,-1,30
 711 -17 711 -17 581 -3 c 4,31,32
 555 -1 555 -1 536 19.5 c 132,-1,33
 517 40 517 40 517 67.5 c 132,-1,34
 517 95 517 95 537.5 115.5 c 132,-1,35
 558 136 558 136 574.5 136 c 132,-1,36
 591 136 591 136 757 118.5 c 132,-1,37
 923 101 923 101 986 106 c 132,-1,38
 1049 111 1049 111 1078 141 c 4,39,40
 1079 142 1079 142 1086.5 149 c 132,-1,41
 1094 156 1094 156 1089.5 182 c 132,-1,42
 1085 208 1085 208 1075.5 214 c 132,-1,43
 1066 220 1066 220 1058.5 226 c 132,-1,44
 1051 232 1051 232 1032 238.5 c 132,-1,45
 1013 245 1013 245 997.5 248 c 132,-1,46
 982 251 982 251 954 251 c 4,47,48
 920 251 920 251 818.5 243.5 c 4,49,50
 579.49301676 225.839385475 579.49301676 225.839385475 501 381 c 5,51,52
 459 473 459 473 505 558 c 4,53,54
 596 726 596 726 832 668 c 4,55,56
 851 663 851 663 900 649.5 c 132,-1,57
 949 636 949 636 964 634.5 c 132,-1,58
 979 633 979 633 999 630 c 132,-1,59
 1019 627 1019 627 1050 641.5 c 132,-1,60
 1081 656 1081 656 1086 680 c 5,61,-1
 1086 681 l 5,62,63
 1094 714 1094 714 1069.5 750.5 c 132,-1,64
 1045 787 1045 787 1001 805 c 4,65,66
 843 869 843 869 648 844 c 4,67,68
 515 827 515 827 404.5 744 c 132,-1,69
 294 661 294 661 259 542 c 4,70,71
 259 541 259 541 259 540 c 4,72,73
 222 427 222 427 262.5 304 c 132,-1,74
 303 181 303 181 399 111 c 4,75,76
 429 90 429 90 429 62.5 c 132,-1,77
 429 35 429 35 414 9.5 c 132,-1,78
 399 -16 399 -16 367 -16 c 132,-1,79
 335 -16 335 -16 317 -2 c 4,80,81
 182 96 182 96 128 259.5 c 132,-1,82
 74 423 74 423 125 582 c 4,83,84
 157 693 157 693 236 780 c 4,85,86
 391 953 391 953 630 983 c 5,87,-1
 631 983 l 5,0,1
EndSplineSet
EndChar

StartChar: m1
Encoding: 79 3374 79
Width: 1397
GlyphClass: 2
Flags: MW
LayerCount: 2
Back
Fore
SplineSet
663 1015 m 0,0,1
 836 1027 836 1027 993 938 c 0,2,3
 1183 831 1183 831 1259 627 c 0,4,5
 1297 525 1297 525 1298 421 c 1,6,7
 1296 73 l 2,8,9
 1296 44 1296 44 1275.5 23.5 c 128,-1,10
 1255 3 1255 3 1226 3 c 0,11,12
 698 3 698 3 170 3 c 0,13,14
 141 3 141 3 120.5 23.5 c 128,-1,15
 100 44 100 44 100 73 c 2,16,-1
 100 457 l 2,17,18
 100 569 100 569 165 690 c 0,19,20
 327 993 327 993 663 1015 c 0,0,1
657 874 m 1,21,22
 519 861 519 861 430 791 c 0,23,24
 256 655 256 655 240 454 c 1,25,-1
 240 143 l 1,26,27
 454 143 454 143 644 331 c 0,28,29
 723 409 723 409 769.5 503.5 c 128,-1,30
 816 598 816 598 816.5 683 c 128,-1,31
 817 768 817 768 769 819 c 128,-1,32
 721 870 721 870 657 874 c 1,21,22
934 811 m 1,33,34
 995 645 995 645 901 453.5 c 128,-1,35
 807 262 807 262 637 143 c 1,36,-1
 1156 143 l 1,37,-1
 1156 454 l 1,38,39
 1143 603 1143 603 1047 715 c 0,40,41
 1000 772 1000 772 934 811 c 1,33,34
EndSplineSet
EndChar

StartChar: y1
Encoding: 80 3375 80
Width: 1952
GlyphClass: 2
Flags: MW
LayerCount: 2
Back
Fore
SplineSet
1298.5 895.5 m 128,-1,1
 1367 802 1367 802 1379 690 c 0,2,3
 1400 532 1400 532 1335.5 383 c 128,-1,4
 1271 234 1271 234 1147 133 c 1,5,6
 1187 123 1187 123 1206.5 122 c 128,-1,7
 1226 121 1226 121 1250 118 c 0,8,9
 1323 111 1323 111 1418 146 c 128,-1,10
 1513 181 1513 181 1585.5 251 c 0,11,12
 1769.83545251 428.979057592 1769.83545251 428.979057592 1689 675 c 0,13,14
 1643 815 1643 815 1529 889 c 0,15,16
 1496 910 1496 910 1496 943.5 c 128,-1,17
 1496 977 1496 977 1516.5 997.5 c 128,-1,18
 1537 1018 1537 1018 1562 1018 c 128,-1,19
 1587 1018 1587 1018 1604 1007 c 0,20,21
 1763 905 1763 905 1823.5 720.5 c 0,22,23
 1917.3252679 434.371703681 1917.3252679 434.371703681 1727 198 c 0,24,25
 1665 121 1665 121 1584 70 c 0,26,27
 1412 -38 1412 -38 1215 -19 c 1,28,29
 1099 -12 1099 -12 990 41 c 1,30,31
 737 -61 737 -61 484 48 c 0,32,33
 387 90 387 90 305.5 165 c 128,-1,34
 224 240 224 240 182 320 c 0,35,36
 -2.72635041414 668.670986407 -2.72635041414 668.670986407 201 908 c 0,37,38
 254 974 254 974 333.5 1005.5 c 128,-1,39
 413 1037 413 1037 498.5 1026 c 128,-1,40
 584 1015 584 1015 650 960 c 0,41,42
 686 932 686 932 713 892 c 1,43,44
 788 990 788 990 902 1028 c 128,-1,45
 1016 1066 1016 1066 1123 1027.5 c 128,-1,0
 1230 989 1230 989 1298.5 895.5 c 128,-1,1
1015 905 m 1,46,47
 952 907 952 907 895 870 c 128,-1,48
 838 833 838 833 803 773 c 0,49,50
 705 607 705 607 817 398 c 0,51,52
 883 276 883 276 997 201 c 1,53,54
 1119 274 1119 274 1188 405 c 0,55,56
 1324 663 1324 663 1165 834 c 0,57,58
 1099 904 1099 904 1016 905 c 1,59,-1
 1015 905 l 1,46,47
561 851 m 0,60,61
 522 883 522 883 472 886 c 0,62,63
 367 890 367 890 310 819 c 1,64,65
 264.633333333 773.633333333 264.633333333 773.633333333 249 691 c 0,66,67
 197.318507891 421.517934003 197.318507891 421.517934003 435.5 240.5 c 0,68,69
 523 174 523 174 629.5 148 c 128,-1,70
 736 122 736 122 839 142 c 1,71,72
 728 241 728 241 663 391.5 c 128,-1,73
 598 542 598 542 628 705 c 0,74,75
 633 730 633 730 615.5 776.5 c 128,-1,76
 598 823 598 823 563 850 c 0,77,78
 562 850 562 850 561 851 c 0,60,61
EndSplineSet
EndChar

StartChar: r3
Encoding: 81 3376 81
Width: 1497
GlyphClass: 2
Flags: MW
LayerCount: 2
Back
Fore
SplineSet
1040 953 m 0,0,1
 1174 899 1174 899 1268 790 c 0,2,3
 1377 670 1377 670 1394.5 506 c 128,-1,4
 1412 342 1412 342 1322 202 c 0,5,6
 1240 69 1240 69 1086 19.5 c 128,-1,7
 932 -30 932 -30 789 37 c 0,8,9
 720 67 720 67 665 121 c 128,-1,10
 610 175 610 175 580 242 c 0,11,12
 512 392 512 392 555 532 c 1,13,14
 597 703 597 703 752 794 c 0,15,16
 825 837 825 837 909 848 c 1,17,18
 758 887 758 887 602 853 c 1,19,20
 601 853 l 1,21,22
 473 827 473 827 372.5 737.5 c 0,23,24
 200.05233619 583.927204866 200.05233619 583.927204866 250.5 383.5 c 0,25,26
 269 310 269 310 315 250 c 128,-1,27
 361 190 361 190 425 158 c 0,28,29
 426 158 426 158 442 149.5 c 128,-1,30
 458 141 458 141 480 135 c 0,31,32
 544 118 544 118 544 66 c 0,33,34
 544 45 544 45 535 29 c 0,35,36
 515 -6 515 -6 476.5 -6 c 128,-1,37
 438 -6 438 -6 353 37 c 128,-1,38
 268 80 268 80 202.5 163.5 c 128,-1,39
 137 247 137 247 112.5 350.5 c 0,40,41
 60.0412675018 572.111380145 60.0412675018 572.111380145 200.520633751 757.555690073 c 0,42,43
 341 943 341 943 579.5 993.5 c 128,-1,44
 818 1044 818 1044 1040 953 c 0,0,1
982 712 m 0,45,46
 883 718 883 718 797.5 653 c 128,-1,47
 712 588 712 588 690 498 c 1,48,-1
 690 495 l 1,49,50
 657 358 657 358 743 246 c 0,51,52
 859.530910581 96.948835303 859.530910581 96.948835303 1044.5 156 c 0,53,54
 1151 190 1151 190 1204 277 c 0,55,56
 1205 278 1205 278 1205 279 c 0,57,58
 1262.25513157 364.298461313 1262.25513157 364.298461313 1255.12756579 464.149230656 c 24,59,60
 1248 564 1248 564 1163.5 636.5 c 0,61,62
 1079 709 1079 709 984 712 c 0,63,64
 983 712 983 712 982 712 c 0,45,46
EndSplineSet
EndChar

StartChar: rh
Encoding: 82 3377 82
Width: 1396
GlyphClass: 2
Flags: MW
LayerCount: 2
Back
Fore
SplineSet
1078 884 m 4,0,1
 1163 822 1163 822 1219 733 c 4,2,3
 1333 551 1333 551 1277.5 349.5 c 132,-1,4
 1222 148 1222 148 1039 53 c 4,5,6
 938 0 938 0 847 1 c 4,7,8
 818 1 818 1 797.5 21.5 c 132,-1,9
 777 42 777 42 777 70 c 132,-1,10
 777 98 777 98 796 118.5 c 132,-1,11
 815 139 815 139 863 142 c 132,-1,12
 911 145 911 145 974 178 c 132,-1,13
 1037 211 1037 211 1080 264 c 4,14,15
 1172 377 1172 377 1152 521 c 4,16,17
 1142 593 1142 593 1100 659 c 132,-1,18
 1058 725 1058 725 996 771 c 4,19,20
 872 862 872 862 697 862.5 c 132,-1,21
 522 863 522 863 394 766 c 4,22,23
 330 718 330 718 289 647.5 c 132,-1,24
 248 577 248 577 242 506 c 4,25,26
 229 361 229 361 321 255 c 132,-1,27
 413 149 413 149 553 141 c 4,28,29
 581 140 581 140 600.5 119 c 132,-1,30
 620 98 620 98 620 70 c 132,-1,31
 620 42 620 42 599 21.5 c 132,-1,32
 578 1 578 1 563 1 c 4,33,34
 493 1 493 1 421 25 c 4,35,36
 298 67 298 67 226 151 c 4,37,38
 85 315 85 315 102 514 c 4,39,40
 111 622 111 622 166.5 716.5 c 132,-1,41
 222 811 222 811 307 876 c 4,42,43
 475 1003 475 1003 696 1002 c 132,-1,44
 917 1001 917 1001 1078 884 c 4,0,1
EndSplineSet
EndChar

StartChar: l3
Encoding: 83 3378 83
Width: 1748
GlyphClass: 2
Flags: MW
LayerCount: 2
Back
Fore
SplineSet
1509 144 m 1,0,-1
 1507 937 l 2,1,2
 1507 977 1507 977 1541 997 c 0,3,4
 1557 1007 1557 1007 1581.5 1007 c 128,-1,5
 1606 1007 1606 1007 1626.5 986.5 c 128,-1,6
 1647 966 1647 966 1647 950.5 c 128,-1,7
 1647 935 1647 935 1649 75 c 1,8,-1
 1649 74 l 2,9,10
 1649 34 1649 34 1614 14 c 0,11,12
 1598 5 1598 5 1579 4 c 2,13,-1
 170 1 l 2,14,15
 141 1 141 1 120.5 21.5 c 128,-1,16
 100 42 100 42 100 71 c 2,17,-1
 102 334 l 1,18,19
 91 660 91 660 213 816 c 1,20,21
 310 947 310 947 472.5 982.5 c 128,-1,22
 635 1018 635 1018 780 949 c 1,23,24
 883 905 883 905 957 819 c 128,-1,25
 1031 733 1031 733 1061.5 624 c 128,-1,26
 1092 515 1092 515 1072 405 c 0,27,28
 1068 381 1068 381 1048 364 c 128,-1,29
 1028 347 1028 347 1015.5 347 c 2,30,31
 1002 347 l 1,32,-1
 242 361 l 1,33,-1
 242 334 l 1,34,-1
 240 141 l 1,35,-1
 1509 144 l 1,0,-1
722 822 m 0,36,37
 655 854 655 854 578 852.5 c 128,-1,38
 501 851 501 851 433.5 820 c 128,-1,39
 366 789 366 789 325 733 c 0,40,41
 324 732 324 732 324 731 c 0,42,43
 260 650 260 650 246 501 c 1,44,-1
 939 488 l 1,45,46
 938 593 938 593 878.5 686.5 c 128,-1,47
 819 780 819 780 725 821 c 0,48,49
 723 821 723 821 722 822 c 0,36,37
EndSplineSet
EndChar

StartChar: lh
Encoding: 84 3379 84
Width: 1340
GlyphClass: 2
Flags: MW
LayerCount: 2
Back
Fore
SplineSet
753 1007 m 0,0,1
 927 1005 927 1005 1021 957 c 0,2,3
 1209 861 1209 861 1231 695 c 0,4,5
 1251 552 1251 552 1143 460 c 1,6,7
 1197 417 1197 417 1224.5 349.5 c 128,-1,8
 1252 282 1252 282 1233 211 c 0,9,10
 1197 75 1197 75 1044 23 c 0,11,12
 975 0 975 0 921 -1.5 c 128,-1,13
 867 -3 867 -3 817 -2 c 2,14,-1
 397 -0 l 2,15,16
 308 0 308 0 282 -19 c 0,17,18
 232 -55 232 -55 243 -108 c 0,19,20
 257 -174 257 -174 384 -174 c 0,21,22
 783 -174 783 -174 1182 -174 c 0,23,24
 1197 -174 1197 -174 1217.5 -194.5 c 128,-1,25
 1238 -215 1238 -215 1238 -244 c 128,-1,26
 1238 -273 1238 -273 1217.5 -293.5 c 128,-1,27
 1197 -314 1197 -314 1168 -314 c 2,28,-1
 384 -314 l 2,29,30
 280 -314 280 -314 228 -287 c 0,31,32
 126 -234 126 -234 105 -133 c 0,33,34
 92 -69 92 -69 116 -9 c 0,35,36
 163 108 163 108 300 133 c 0,37,38
 336 140 336 140 398 140 c 2,39,-1
 818 138 l 2,40,41
 944 137 944 137 991 153 c 0,42,43
 1080 183 1080 183 1097 246 c 128,-1,44
 1114 309 1114 309 1060 347.5 c 128,-1,45
 1006 386 1006 386 908 392 c 0,46,47
 897 392 897 392 885 393 c 2,48,-1
 855 395 l 2,49,50
 817 397 817 397 799 431 c 0,51,52
 790 447 790 447 790 470.5 c 128,-1,53
 790 494 790 494 810.5 514.5 c 128,-1,54
 831 535 831 535 846 535 c 2,55,-1
 862 535 l 1,56,-1
 893 533 l 2,57,58
 954 530 954 530 986.5 535.5 c 128,-1,59
 1019 541 1019 541 1045 561 c 0,60,61
 1102 603 1102 603 1091 686.5 c 128,-1,62
 1080 770 1080 770 975 823 c 0,63,64
 892 865 892 865 751 867 c 0,65,66
 461 871 461 871 326 725 c 1,67,68
 396 745 396 745 474 723 c 128,-1,69
 552 701 552 701 605.5 629.5 c 128,-1,70
 659 558 659 558 657 468.5 c 128,-1,71
 655 379 655 379 597 310 c 128,-1,72
 539 241 539 241 462 225 c 0,73,74
 314 195 314 195 215 289 c 128,-1,75
 116 383 116 383 109 511 c 128,-1,76
 102 639 102 639 165 742 c 0,77,78
 331 1012 331 1012 753 1007 c 0,0,1
493.5 546 m 128,-1,80
 469 579 469 579 430.5 589.5 c 128,-1,81
 392 600 392 600 356.5 587.5 c 128,-1,82
 321 575 321 575 299 544.5 c 128,-1,83
 277 514 277 514 276 476 c 128,-1,84
 275 438 275 438 295.5 408 c 128,-1,85
 316 378 316 378 354.5 366 c 128,-1,86
 393 354 393 354 428 361 c 128,-1,87
 463 368 463 368 489.5 399.5 c 128,-1,88
 516 431 516 431 517 472 c 128,-1,79
 518 513 518 513 493.5 546 c 128,-1,80
EndSplineSet
EndChar

StartChar: zh
Encoding: 85 3380 85
Width: 1221
GlyphClass: 2
Flags: MW
LayerCount: 2
Back
Fore
SplineSet
812 290 m 5,0,1
 812 335.419354839 812 335.419354839 701 413 c 5,2,3
 646 410 646 410 538 412 c 4,4,5
 278 416 278 416 164 569 c 4,6,7
 92 664 92 664 101 785.5 c 132,-1,8
 110 907 110 907 195 990 c 4,9,10
 216 1011 216 1011 245 1011 c 132,-1,11
 274 1011 274 1011 294.5 990 c 132,-1,12
 315 969 315 969 314.5 940 c 132,-1,13
 314 911 314 911 293 890 c 4,14,15
 248 846 248 846 243 775 c 132,-1,16
 238 704 238 704 276 654 c 4,17,18
 276 653 276 653 277 653 c 4,19,20
 344 562 344 562 516 553 c 5,21,22
 418 663 418 663 442 785 c 4,23,24
 456 855 456 855 502 908 c 4,25,26
 622 1045 622 1045 827.5 1014 c 132,-1,27
 1033 983 1033 983 1105 817 c 4,28,29
 1129 762 1129 762 1118 695 c 132,-1,30
 1107 628 1107 628 1066 572 c 4,31,32
 1004 486 1004 486 882 444 c 5,33,34
 925 394 925 394 945 334 c 4,35,36
 978 235 978 235 926 143.5 c 132,-1,37
 874 52 874 52 777 18 c 4,38,39
 586 -53 586 -53 347 74 c 4,40,41
 206.475923852 148.653415454 206.475923852 148.653415454 201 202.5 c 4,42,43
 198 232 198 232 217 254.5 c 132,-1,44
 236 277 236 277 265 279.5 c 132,-1,45
 294 282 294 282 327.5 254 c 132,-1,46
 361 226 361 226 413 198 c 4,47,48
 601 101 601 101 728 149 c 4,49,50
 729 149 729 149 730 149 c 4,51,52
 773 164 773 164 799 207.5 c 132,-1,53
 825 251 825 251 812 290 c 5,0,1
676 598 m 5,54,-1
 739 558 l 5,55,56
 919 577 919 577 967 682 c 4,57,58
 990 733 990 733 969.5 778.5 c 132,-1,59
 949 824 949 824 886.5 853 c 132,-1,60
 824 882 824 882 745 877 c 4,61,62
 744 877 744 877 743 877 c 4,63,64
 686 875 686 875 637.5 841 c 132,-1,65
 589 807 589 807 580 759 c 5,66,-1
 580 758 l 5,67,68
 572 718 572 718 598.5 675 c 132,-1,69
 625 632 625 632 676 598 c 5,54,-1
EndSplineSet
EndChar

StartChar: v1
Encoding: 86 3381 86
Width: 1727
GlyphClass: 2
Flags: MW
LayerCount: 2
Back
Fore
SplineSet
1487 972 m 6,0,1
 1487 1001 1487 1001 1507.5 1021.5 c 132,-1,2
 1528 1042 1528 1042 1557 1042 c 132,-1,3
 1586 1042 1586 1042 1606.5 1021.5 c 132,-1,4
 1627 1001 1627 1001 1627 986 c 6,5,-1
 1627 970 l 5,6,-1
 1622 71 l 6,7,8
 1622 42 1622 42 1601 22 c 132,-1,9
 1580 2 1580 2 1552 2 c 6,10,-1
 830 4 l 6,11,12
 790 4 790 4 768.5 42 c 4,13,14
 747 80 747 80 769 108 c 132,-1,15
 791 136 791 136 812 142 c 4,16,17
 923 172 923 172 997 272.5 c 132,-1,18
 1071 373 1071 373 1066 488 c 4,19,20
 1066 489 1066 489 1066 490 c 4,21,22
 1064 614 1064 614 974.5 718 c 132,-1,23
 885 822 885 822 760 850 c 4,24,25
 759 850 759 850 758 850 c 4,26,27
 632 887 632 887 489.5 832 c 132,-1,28
 347 777 347 777 284 654 c 5,29,30
 262 632 262 632 246.5 544.5 c 132,-1,31
 231 457 231 457 271 354 c 132,-1,32
 311 251 311 251 399 197 c 4,33,34
 400 197 400 197 400 196 c 4,35,36
 478 145 478 145 568 138 c 4,37,38
 606 136 606 136 620.5 111 c 132,-1,39
 635 86 635 86 634.5 63 c 132,-1,40
 634 40 634 40 613.5 19.5 c 132,-1,41
 593 -1 593 -1 578 -1 c 4,42,43
 447 -1 447 -1 324 78 c 4,44,45
 246 127 246 127 192 203.5 c 132,-1,46
 138 280 138 280 116 366 c 4,47,48
 68 555 68 555 160 719 c 5,49,50
 263 918 263 918 500 985 c 4,51,52
 636 1023 636 1023 770.5 991.5 c 132,-1,53
 905 960 905 960 998.5 889.5 c 132,-1,54
 1092 819 1092 819 1148 714.5 c 132,-1,55
 1204 610 1204 610 1207 503 c 4,56,57
 1213 293 1213 293 1074 143 c 5,58,-1
 1482 142 l 5,59,-1
 1487 971 l 5,60,-1
 1487 972 l 6,0,1
EndSplineSet
EndChar

StartChar: z1
Encoding: 87 3382 87
Width: 1854
GlyphClass: 2
Flags: MW
LayerCount: 2
Back
Fore
SplineSet
760 592 m 0,0,1
 800 733 800 733 895.5 840.5 c 128,-1,2
 991 948 991 948 1126 986 c 128,-1,3
 1261 1024 1261 1024 1393.5 983.5 c 128,-1,4
 1526 943 1526 943 1617.5 841 c 128,-1,5
 1709 739 1709 739 1739 607 c 128,-1,6
 1769 475 1769 475 1740 362 c 0,7,8
 1682 140 1682 140 1518 45 c 0,9,10
 1429 -6 1429 -6 1327 -8 c 128,-1,11
 1225 -10 1225 -10 1147 39 c 0,12,13
 996 135 996 135 976.5 301 c 128,-1,14
 957 467 957 467 1043 605 c 0,15,16
 1156 789 1156 789 1356 848 c 1,17,18
 1265 879 1265 879 1166.5 851.5 c 128,-1,19
 1068 824 1068 824 988 734 c 128,-1,20
 908 644 908 644 879 484 c 0,21,22
 872 444 872 444 864 399 c 0,23,24
 824 166 824 166 717 73.5 c 128,-1,25
 610 -19 610 -19 474 -9 c 128,-1,26
 338 1 338 1 242.5 90.5 c 128,-1,27
 147 180 147 180 116 301 c 128,-1,28
 85 422 85 422 115.5 567 c 128,-1,29
 146 712 146 712 263.5 834 c 128,-1,30
 381 956 381 956 546 996 c 0,31,32
 586 1005 586 1005 609.5 981 c 128,-1,33
 633 957 633 957 633 931 c 128,-1,34
 633 905 633 905 617.5 885 c 128,-1,35
 602 865 602 865 579 860 c 0,36,37
 454 829 454 829 364 736.5 c 128,-1,38
 274 644 274 644 251 535 c 0,39,40
 205 317 205 317 334 197 c 0,41,42
 435 103 435 103 553.5 140 c 128,-1,43
 672 177 672 177 712 350 c 0,44,45
 718 376 718 376 732 459.5 c 128,-1,46
 746 543 746 543 760 592 c 0,0,1
1524 731 m 1,47,48
 1428 737 1428 737 1327 686.5 c 128,-1,49
 1226 636 1226 636 1164 535.5 c 128,-1,50
 1102 435 1102 435 1114.5 326 c 128,-1,51
 1127 217 1127 217 1213 163 c 0,52,53
 1264 131 1264 131 1327.5 132 c 128,-1,54
 1391 133 1391 133 1447 165 c 0,55,56
 1562 232 1562 232 1600 378 c 0,57,58
 1626 477 1626 477 1604.5 569.5 c 128,-1,59
 1583 662 1583 662 1527 731 c 1,60,-1
 1524 731 l 1,47,48
EndSplineSet
EndChar

StartChar: sh
Encoding: 88 3383 88
Width: 2000
GlyphClass: 2
Flags: MW
LayerCount: 2
Back
Fore
SplineSet
1397 891 m 0,0,1
 1430 844 1430 844 1439 795 c 128,-1,2
 1448 746 1448 746 1447 681 c 2,3,-1
 1446 540 l 1,4,5
 1616 619 1616 619 1705 784 c 0,6,7
 1747 863 1747 863 1762 949 c 0,8,9
 1766 973 1766 973 1786 990 c 128,-1,10
 1806 1007 1806 1007 1828 1007 c 128,-1,11
 1850 1007 1850 1007 1866 997 c 0,12,13
 1901 977 1901 977 1901 937 c 2,14,-1
 1901 71 l 2,15,16
 1901 42 1901 42 1880.5 21.5 c 128,-1,17
 1860 1 1860 1 1831 1 c 2,18,-1
 535 1 l 2,19,20
 506 1 506 1 485.5 21.5 c 128,-1,21
 465 42 465 42 465 63 c 0,22,23
 465 117 465 117 507 135 c 0,24,25
 570 162 570 162 601 223.5 c 128,-1,26
 632 285 632 285 617 352 c 128,-1,27
 602 419 602 419 548 461 c 128,-1,28
 494 503 494 503 426 501 c 128,-1,29
 358 499 358 499 307 455.5 c 128,-1,30
 256 412 256 412 243.5 346 c 128,-1,31
 231 280 231 280 262.5 220.5 c 128,-1,32
 294 161 294 161 346.5 139 c 128,-1,33
 399 117 399 117 399 79 c 128,-1,34
 399 41 399 41 378.5 20.5 c 128,-1,35
 358 0 358 0 336 0 c 128,-1,36
 314 0 314 0 300 6 c 0,37,38
 193 52 193 52 138.5 155 c 128,-1,39
 84 258 84 258 106 372 c 128,-1,40
 128 486 128 486 216.5 561.5 c 128,-1,41
 305 637 305 637 422.5 640.5 c 128,-1,42
 540 644 540 644 634 571 c 128,-1,43
 728 498 728 498 755 376 c 128,-1,44
 782 254 782 254 715 141 c 1,45,-1
 1303 141 l 1,46,-1
 1305 355 l 1,47,48
 1147 336 1147 336 1039 394 c 128,-1,49
 931 452 931 452 877 542.5 c 128,-1,50
 823 633 823 633 838 751.5 c 128,-1,51
 853 870 853 870 961 947 c 128,-1,52
 1069 1024 1069 1024 1199 1006.5 c 128,-1,53
 1329 989 1329 989 1397 891 c 0,0,1
976 727.5 m 128,-1,55
 968 663 968 663 999.5 610 c 128,-1,56
 1031 557 1031 557 1090 526 c 0,57,58
 1180 478 1180 478 1306 497 c 1,59,-1
 1307 682 l 2,60,61
 1308 773 1308 773 1287 804 c 0,62,63
 1249 859 1249 859 1177 868.5 c 128,-1,64
 1105 878 1105 878 1044.5 835 c 128,-1,54
 984 792 984 792 976 727.5 c 128,-1,55
1761 615 m 1,65,66
 1636 456 1636 456 1445 389 c 1,67,-1
 1443 141 l 1,68,-1
 1761 141 l 1,69,-1
 1761 615 l 1,65,66
EndSplineSet
EndChar

StartChar: s1
Encoding: 89 3384 89
Width: 2662
GlyphClass: 2
Flags: MW
LayerCount: 2
Back
Fore
SplineSet
1376 1013 m 0,0,1
 1524 1019 1524 1019 1642 931 c 0,2,3
 1822 797 1822 797 1805 538 c 0,4,5
 1793 361 1793 361 1810 307 c 0,6,7
 1846 197 1846 197 1959 157 c 128,-1,8
 2072 117 2072 117 2182.5 161 c 128,-1,9
 2293 205 2293 205 2357 296 c 128,-1,10
 2421 387 2421 387 2422 477 c 0,11,12
 2425 645 2425 645 2323.5 751 c 128,-1,13
 2222 857 2222 857 2075 862 c 0,14,15
 2035 863 2035 863 2015 897 c 0,16,17
 2006 913 2006 913 2006 936.5 c 128,-1,18
 2006 960 2006 960 2026.5 981 c 128,-1,19
 2047 1002 2047 1002 2062 1002 c 0,20,21
 2137 1002 2137 1002 2207 981 c 0,22,23
 2335 943 2335 943 2413 860 c 0,24,25
 2566 700 2566 700 2563 495 c 0,26,27
 2560 342 2560 342 2472 216.5 c 128,-1,28
 2384 91 2384 91 2230.5 29.5 c 128,-1,29
 2077 -32 2077 -32 1915 24 c 0,30,31
 1832 54 1832 54 1768 115 c 0,32,33
 1631 249 1631 249 1661 486 c 1,34,35
 1669 616 1669 616 1658 664 c 0,36,37
 1636 761 1636 761 1558.5 819 c 128,-1,38
 1481 877 1481 877 1397 873 c 0,39,40
 1238 866 1238 866 1160 743 c 0,41,42
 1110 663 1110 663 1106 534 c 0,43,44
 1108 497 1108 497 1105 459 c 1,45,-1
 1107 68 l 1,46,-1
 1107 67 l 2,47,48
 1107 38 1107 38 1086 18 c 128,-1,49
 1065 -2 1065 -2 1036.5 -2 c 128,-1,50
 1008 -2 1008 -2 987.5 18 c 128,-1,51
 967 38 967 38 967 67 c 2,52,-1
 965 456 l 1,53,54
 965 529 l 1,55,56
 954 662 954 662 864 755 c 0,57,58
 810 811 810 811 734 840 c 0,59,60
 611 888 611 888 503.5 851.5 c 128,-1,61
 396 815 396 815 341 753 c 0,62,63
 234 633 234 633 240.5 484 c 128,-1,64
 247 335 247 335 357.5 234 c 128,-1,65
 468 133 468 133 618 139 c 1,66,67
 635 139 l 2,68,69
 650 139 650 139 670.5 118.5 c 128,-1,70
 691 98 691 98 691 69 c 128,-1,71
 691 40 691 40 671 19.5 c 128,-1,72
 651 -1 651 -1 623 -1 c 0,73,74
 416 -9 416 -9 263 131 c 128,-1,75
 110 271 110 271 100.5 477.5 c 128,-1,76
 91 684 91 684 228.5 837.5 c 128,-1,77
 366 991 366 991 571 1004 c 0,78,79
 680 1011 680 1011 785 971 c 0,80,81
 934 913 934 913 1022 781 c 1,82,83
 1079 894 1079 894 1176 951.5 c 128,-1,84
 1273 1009 1273 1009 1376 1013 c 0,0,1
EndSplineSet
EndChar

StartChar: h1
Encoding: 90 3385 90
Width: 2248
GlyphClass: 2
Flags: MW
LayerCount: 2
Back
Fore
SplineSet
1301.5 883.5 m 132,-1,1
 1452 1012 1452 1012 1657 1005.5 c 132,-1,2
 1862 999 1862 999 2007 843.5 c 132,-1,3
 2152 688 2152 688 2148 476 c 4,4,5
 2145 318 2145 318 2056 187.5 c 132,-1,6
 1967 57 1967 57 1821 -2 c 4,7,8
 1808 -8 1808 -8 1786 -8 c 132,-1,9
 1764 -8 1764 -8 1743.5 12.5 c 132,-1,10
 1723 33 1723 33 1723 57.5 c 132,-1,11
 1723 82 1723 82 1736 101 c 132,-1,12
 1749 120 1749 120 1768 127 c 4,13,14
 1875 171 1875 171 1940.5 266.5 c 132,-1,15
 2006 362 2006 362 2008 457 c 4,16,17
 2011 634 2011 634 1905.5 747.5 c 132,-1,18
 1800 861 1800 861 1651 866 c 132,-1,19
 1502 871 1502 871 1393 777.5 c 132,-1,20
 1284 684 1284 684 1266 542 c 132,-1,21
 1248 400 1248 400 1331.5 282.5 c 132,-1,22
 1415 165 1415 165 1555 135 c 4,23,24
 1578 130 1578 130 1594 110 c 132,-1,25
 1610 90 1610 90 1610 64 c 132,-1,26
 1610 38 1610 38 1589.5 17.5 c 132,-1,27
 1569 -3 1569 -3 1540 -3 c 6,28,-1
 574 -0 l 6,29,30
 545 0 545 0 525 20.5 c 132,-1,31
 505 41 505 41 505 65 c 4,32,33
 505 116 505 116 546 134 c 4,34,35
 610 162 610 162 646 221.5 c 132,-1,36
 682 281 682 281 676.5 350.5 c 132,-1,37
 671 420 671 420 626 473.5 c 132,-1,38
 581 527 581 527 528 541 c 4,39,40
 429 567 429 567 352.5 524.5 c 132,-1,41
 276 482 276 482 250 398.5 c 132,-1,42
 224 315 224 315 263 236.5 c 132,-1,43
 302 158 302 158 384 128 c 4,44,45
 404 121 404 121 417.5 102 c 132,-1,46
 431 83 431 83 431 63 c 132,-1,47
 431 43 431 43 422 27 c 4,48,49
 402 -8 402 -8 361 -8 c 4,50,51
 348 -8 348 -8 336 -4 c 4,52,53
 201 45 201 45 137 174 c 132,-1,54
 73 303 73 303 116 440 c 132,-1,55
 159 577 159 577 284.5 647 c 132,-1,56
 410 717 410 717 535 684 c 132,-1,57
 660 651 660 651 733.5 563.5 c 132,-1,58
 807 476 807 476 816 358.5 c 132,-1,59
 825 241 825 241 759 139 c 5,60,-1
 1271 138 l 5,61,62
 1173 237 1173 237 1144 351 c 132,-1,63
 1115 465 1115 465 1127 559 c 4,64,0
 1151 755 1151 755 1301.5 883.5 c 132,-1,1
EndSplineSet
EndChar

StartChar: avagraha
Encoding: 91 3389 91
Width: 1580
GlyphClass: 2
Flags: MW
LayerCount: 2
Back
Fore
SplineSet
412 528.5 m 128,-1,1
 412 555 412 555 431.5 574 c 128,-1,2
 451 593 451 593 477 593 c 2,3,-1
 737 593 l 1,4,5
 765 783 765 783 791 927 c 128,-1,6
 817 1071 817 1071 855 1148 c 0,7,8
 933 1308 933 1308 1066 1357 c 0,9,10
 1144 1385 1144 1385 1225 1371 c 128,-1,11
 1306 1357 1306 1357 1369.5 1304 c 128,-1,12
 1433 1251 1433 1251 1461.5 1173.5 c 128,-1,13
 1490 1096 1490 1096 1476 1015 c 0,14,15
 1471 989 1471 989 1449 973 c 128,-1,16
 1427 957 1427 957 1400.5 961.5 c 128,-1,17
 1374 966 1374 966 1358.5 988.5 c 128,-1,18
 1343 1011 1343 1011 1349.5 1047.5 c 128,-1,19
 1356 1084 1356 1084 1339.5 1129 c 128,-1,20
 1323 1174 1323 1174 1286 1204 c 0,21,22
 1207 1270 1207 1270 1117 1237 c 128,-1,23
 1027 1204 1027 1204 976 1100 c 0,24,25
 942 1030 942 1030 918 897.5 c 128,-1,26
 894 765 894 765 868 593 c 1,27,-1
 1053 593 l 2,28,29
 1080 593 1080 593 1099 574 c 128,-1,30
 1118 555 1118 555 1118 528.5 c 128,-1,31
 1118 502 1118 502 1099 482.5 c 128,-1,32
 1080 463 1080 463 1053 463 c 2,33,-1
 849 463 l 1,34,35
 843 423 843 423 817.5 239 c 128,-1,36
 792 55 792 55 770 -79 c 128,-1,37
 748 -213 748 -213 718 -285 c 0,38,39
 666 -412 666 -412 577 -467 c 128,-1,40
 488 -522 488 -522 393.5 -517.5 c 128,-1,41
 299 -513 299 -513 223 -456.5 c 128,-1,42
 147 -400 147 -400 116.5 -310 c 128,-1,43
 86 -220 86 -220 111 -129 c 0,44,45
 118 -103 118 -103 142 -90 c 128,-1,46
 166 -77 166 -77 191.5 -84 c 128,-1,47
 217 -91 217 -91 230.5 -114.5 c 128,-1,48
 244 -138 244 -138 233 -177 c 128,-1,49
 222 -216 222 -216 239.5 -268 c 128,-1,50
 257 -320 257 -320 301 -352.5 c 128,-1,51
 345 -385 345 -385 399.5 -388 c 128,-1,52
 454 -391 454 -391 508 -357.5 c 128,-1,53
 562 -324 562 -324 592 -251 c 0,54,55
 622 -178 622 -178 651 0 c 0,56,57
 680 178 680 178 718 463 c 1,58,-1
 477 463 l 2,59,60
 450 463 450 463 431 482.5 c 128,-1,0
 412 502 412 502 412 528.5 c 128,-1,1
EndSplineSet
EndChar

StartChar: a2
Encoding: 92 3390 92
Width: 1001
GlyphClass: 2
Flags: MW
LayerCount: 2
Back
Fore
SplineSet
473 995 m 0,0,1
 611 995 611 995 721 907 c 0,2,3
 873 784 873 784 897 570.5 c 128,-1,4
 921 357 921 357 815 188 c 128,-1,5
 709 19 709 19 524 -11 c 0,6,7
 404 -30 404 -30 306 21 c 0,8,9
 100 130 100 130 100 341 c 0,10,11
 100 357 100 357 120.5 377.5 c 128,-1,12
 141 398 141 398 169 398 c 128,-1,13
 197 398 197 398 217.5 378.5 c 128,-1,14
 238 359 238 359 241 318 c 128,-1,15
 244 277 244 277 276 227 c 128,-1,16
 308 177 308 177 357 152 c 0,17,18
 358 152 358 152 358 151 c 0,19,20
 423 116 423 116 503 129 c 0,21,22
 659 155 659 155 728 325 c 0,23,24
 789 475 789 475 738 643 c 0,25,26
 738 644 738 644 737 645 c 0,27,28
 711 732 711 732 635 794 c 128,-1,29
 559 856 559 856 472 855 c 1,30,31
 471 855 l 1,32,33
 391 856 391 856 323 794.5 c 128,-1,34
 255 733 255 733 249 653 c 0,35,36
 247 615 247 615 213 597 c 0,37,38
 197 588 197 588 173.5 588 c 128,-1,39
 150 588 150 588 129.5 608.5 c 128,-1,40
 109 629 109 629 109 645 c 0,41,42
 109 744 109 744 164 826.5 c 128,-1,43
 219 909 219 909 300 952.5 c 128,-1,44
 381 996 381 996 473 995 c 0,0,1
EndSplineSet
EndChar

StartChar: i1
Encoding: 93 3391 93
Width: 340
GlyphClass: 2
Flags: W
LayerCount: 2
Back
Fore
SplineSet
-175 1435 m 4,0,1
 -61 1435 -61 1435 29 1376 c 4,2,3
 194 1268 194 1268 229 1045 c 4,4,5
 238 983 238 983 238 870 c 6,6,-1
 240 57 l 5,7,8
 240 46 l 6,9,10
 240 36 240 36 230 20 c 4,11,12
 209 -15 209 -15 175 -15 c 132,-1,13
 141 -15 141 -15 120.5 5.5 c 132,-1,14
 100 26 100 26 100 55 c 6,15,-1
 100 56 l 5,16,-1
 98 869 l 6,17,18
 98 973 98 973 88 1037 c 4,19,20
 65 1185 65 1185 -39.5 1253.5 c 132,-1,21
 -144 1322 -144 1322 -247 1281.5 c 132,-1,22
 -350 1241 -350 1241 -384 1144 c 4,23,24
 -406 1083 -406 1083 -396 1043 c 5,25,26
 -396 1014 -396 1014 -416.5 993.5 c 132,-1,27
 -437 973 -437 973 -465 973 c 132,-1,28
 -493 973 -493 973 -513.5 992.5 c 132,-1,29
 -534 1012 -534 1012 -536 1038 c 4,30,31
 -543 1116 -543 1116 -516.5 1191 c 132,-1,32
 -490 1266 -490 1266 -437 1320 c 4,33,34
 -328 1432 -328 1432 -175 1435 c 4,0,1
EndSplineSet
EndChar

StartChar: i2
Encoding: 94 3392 94
Width: 398
GlyphClass: 2
Flags: MW
LayerCount: 2
Back
Fore
SplineSet
-305 1344 m 0,0,1
 -205 1444 -205 1444 -18 1435 c 1,2,3
 82 1434 82 1434 167 1378 c 0,4,5
 284 1299 284 1299 296 1129 c 0,6,7
 299 1081 299 1081 297.5 1022.5 c 128,-1,8
 296 964 296 964 296 954 c 2,9,-1
 296 942 l 1,10,-1
 294 49 l 1,11,12
 294 48 l 2,13,14
 294 19 294 19 273.5 -1.5 c 128,-1,15
 253 -22 253 -22 229 -22 c 128,-1,16
 205 -22 205 -22 188 -12 c 0,17,18
 153 8 153 8 154 48 c 1,19,20
 154 49 l 1,21,-1
 156 942 l 1,22,23
 154 993 154 993 157 1062 c 128,-1,24
 160 1131 160 1131 146 1179.5 c 128,-1,25
 132 1228 132 1228 90 1258.5 c 128,-1,26
 48 1289 48 1289 -2 1294 c 1,27,28
 47 1213 47 1213 17.5 1118.5 c 128,-1,29
 -12 1024 -12 1024 -113 989.5 c 128,-1,30
 -214 955 -214 955 -293.5 1016.5 c 128,-1,31
 -373 1078 -373 1078 -377.5 1173 c 128,-1,32
 -382 1268 -382 1268 -305 1344 c 0,0,1
-114 1201 m 0,33,34
 -117 1221 -117 1221 -148 1241.5 c 128,-1,35
 -179 1262 -179 1262 -209 1242 c 1,36,37
 -251 1200 -251 1200 -233 1163 c 128,-1,38
 -215 1126 -215 1126 -190 1122 c 0,39,40
 -187 1122 -187 1122 -185 1121 c 0,41,42
 -158 1115 -158 1115 -132.5 1142 c 128,-1,43
 -107 1169 -107 1169 -113 1195 c 0,44,45
 -114 1198 -114 1198 -114 1201 c 0,33,34
EndSplineSet
EndChar

StartChar: u1
Encoding: 95 3393 95
Width: 884
GlyphClass: 2
Flags: MW
LayerCount: 2
Back
Fore
SplineSet
365 1038 m 0,0,1
 499 1067 499 1067 617.5 997 c 128,-1,2
 736 927 736 927 772.5 784 c 128,-1,3
 809 641 809 641 702 441 c 0,4,5
 647 337 647 337 561.5 218.5 c 128,-1,6
 476 100 476 100 462 80 c 1,7,8
 594 75 594 75 679 -10 c 128,-1,9
 764 -95 764 -95 780.5 -202.5 c 128,-1,10
 797 -310 797 -310 752 -397 c 128,-1,11
 707 -484 707 -484 635 -532 c 128,-1,12
 563 -580 563 -580 475 -584 c 128,-1,13
 387 -588 387 -588 310 -544.5 c 128,-1,14
 233 -501 233 -501 192 -422 c 0,15,16
 96 -237 96 -237 260 31 c 0,17,18
 303 101 303 101 417 260 c 0,19,20
 602 518 602 518 630.5 634 c 128,-1,21
 659 750 659 750 601 827 c 0,22,23
 577 859 577 859 544 878 c 0,24,25
 475 919 475 919 394 901.5 c 128,-1,26
 313 884 313 884 265 817 c 0,27,28
 244 787 244 787 211 787 c 128,-1,29
 178 787 178 787 157.5 807.5 c 128,-1,30
 137 828 137 828 137 854 c 128,-1,31
 137 880 137 880 163.5 916 c 128,-1,32
 190 952 190 952 245.5 988 c 128,-1,33
 301 1024 301 1024 365 1038 c 0,0,1
356 -83 m 1,34,35
 262 -252 262 -252 316 -358 c 0,36,37
 338 -400 338 -400 379.5 -423 c 128,-1,38
 421 -446 421 -446 469.5 -443.5 c 128,-1,39
 518 -441 518 -441 559 -414 c 128,-1,40
 600 -387 600 -387 626 -337 c 128,-1,41
 652 -287 652 -287 642 -224.5 c 128,-1,42
 632 -162 632 -162 587.5 -117 c 128,-1,43
 543 -72 543 -72 474.5 -61 c 128,-1,44
 406 -50 406 -50 356 -83 c 1,34,35
EndSplineSet
EndChar

StartChar: u2
Encoding: 96 3394 96
Width: 1034
GlyphClass: 2
Flags: MW
LayerCount: 2
Back
Fore
SplineSet
518 1029 m 0,0,1
 652 1058 652 1058 770.5 987.5 c 128,-1,2
 889 917 889 917 925.5 774 c 128,-1,3
 962 631 962 631 855 431 c 0,4,5
 805 339 805 339 695.5 185.5 c 128,-1,6
 586 32 586 32 571 9 c 1,7,8
 715 2 715 2 813 -89 c 4,9,10
 878 -149 878 -149 904.5 -234 c 132,-1,11
 931 -319 931 -319 904.5 -407.5 c 132,-1,12
 878 -496 878 -496 802 -552.5 c 132,-1,13
 726 -609 726 -609 632 -611.5 c 132,-1,14
 538 -614 538 -614 459.5 -563.5 c 132,-1,15
 381 -513 381 -513 343 -428 c 132,-1,16
 305 -343 305 -343 316 -239 c 5,17,18
 242 -322 242 -322 241 -421 c 4,19,20
 239 -605 239 -605 376 -699 c 4,21,22
 488 -776 488 -776 605.5 -749.5 c 132,-1,23
 723 -723 723 -723 789 -645 c 4,24,25
 810 -620 810 -620 836 -619.5 c 132,-1,26
 862 -619 862 -619 878 -628 c 4,27,28
 913 -648 913 -648 913 -681.5 c 132,-1,29
 913 -715 913 -715 896 -735 c 4,30,31
 824 -820 824 -820 718 -862 c 132,-1,32
 612 -904 612 -904 501 -891.5 c 132,-1,33
 390 -879 390 -879 296 -814.5 c 132,-1,34
 202 -750 202 -750 150.5 -651 c 132,-1,35
 99 -552 99 -552 100 -438 c 132,-1,36
 101 -324 101 -324 147 -240 c 4,37,38
 234 -82 234 -82 390 -21 c 5,39,40
 440 72 440 72 563 242.5 c 128,-1,41
 686 413 686 413 728 492 c 0,42,43
 851 720 851 720 737 837 c 0,44,45
 660 916 660 916 548 892 c 0,46,47
 467 875 467 875 418 807 c 0,48,49
 397 777 397 777 364.5 777 c 128,-1,50
 332 777 332 777 311 797.5 c 128,-1,51
 290 818 290 818 290 844.5 c 128,-1,52
 290 871 290 871 316.5 907 c 128,-1,53
 343 943 343 943 398.5 979 c 128,-1,54
 454 1015 454 1015 518 1029 c 0,0,1
718 -192 m 4,55,56
 627 -107 627 -107 488 -137 c 5,57,58
 427 -275 427 -275 471 -371 c 4,59,60
 492 -418 492 -418 534.5 -445.5 c 132,-1,61
 577 -473 577 -473 627.5 -472 c 132,-1,62
 678 -471 678 -471 717.5 -441 c 132,-1,63
 757 -411 757 -411 770.5 -365.5 c 132,-1,64
 784 -320 784 -320 770 -273.5 c 132,-1,65
 756 -227 756 -227 718 -192 c 4,55,56
EndSplineSet
EndChar

StartChar: r1
Encoding: 97 3395 97
Width: 392
GlyphClass: 2
Flags: MW
LayerCount: 2
Back
Fore
SplineSet
76 999 m 128,-1,1
 110 999 110 999 128 962 c 0,2,3
 353 514 353 514 271 38 c 0,4,5
 225 -212 225 -212 54 -381 c 0,6,7
 -38 -472 -38 -472 -127.5 -507.5 c 128,-1,8
 -217 -543 -217 -543 -285.5 -555 c 128,-1,9
 -354 -567 -354 -567 -433 -555.5 c 128,-1,10
 -512 -544 -512 -544 -571 -506 c 128,-1,11
 -630 -468 -630 -468 -658.5 -411 c 128,-1,12
 -687 -354 -687 -354 -681 -289.5 c 128,-1,13
 -675 -225 -675 -225 -630 -176 c 0,14,15
 -512 -41 -512 -41 -247 -100 c 0,16,17
 -100 -133 -100 -133 25 -216 c 1,18,19
 115 -93 115 -93 144 62 c 0,20,21
 218 493 218 493 12 904 c 0,22,23
 -9.66666666667 947.333333333 -9.66666666667 947.333333333 16.1666666667 973.166666667 c 128,-1,0
 42 999 42 999 76 999 c 128,-1,1
-64 -313 m 1,24,25
 -224 -214 -224 -214 -390 -212 c 0,26,27
 -488 -210 -488 -210 -533 -262 c 0,28,29
 -533 -263 -533 -263 -534 -263 c 0,30,31
 -557 -289 -557 -289 -547.5 -330.5 c 128,-1,32
 -538 -372 -538 -372 -506 -393 c 1,33,34
 -505 -393 -505 -393 -506 -393 c 1,35,36
 -388 -471 -388 -471 -196 -395 c 0,37,38
 -125 -365 -125 -365 -64 -313 c 1,24,25
EndSplineSet
EndChar

StartChar: e1
Encoding: 98 3398 98
Width: 1378
GlyphClass: 2
Flags: MW
LayerCount: 2
Back
Fore
SplineSet
988 931.5 m 128,-1,1
 1143 840 1143 840 1220.5 678 c 128,-1,2
 1298 516 1298 516 1272.5 337.5 c 128,-1,3
 1247 159 1247 159 1126 26 c 0,4,5
 1105 2 1105 2 1075 2 c 128,-1,6
 1045 2 1045 2 1024.5 22.5 c 128,-1,7
 1004 43 1004 43 1004 71 c 128,-1,8
 1004 99 1004 99 1022 119 c 0,9,10
 1114 221 1114 221 1134 357 c 128,-1,11
 1154 493 1154 493 1094.5 617 c 128,-1,12
 1035 741 1035 741 916.5 811 c 128,-1,13
 798 881 798 881 653.5 873 c 128,-1,14
 509 865 509 865 393 766 c 0,15,16
 342 722 342 722 305 662 c 1,17,18
 457 749 457 749 604.5 691 c 128,-1,19
 752 633 752 633 813.5 503.5 c 128,-1,20
 875 374 875 374 833 249.5 c 128,-1,21
 791 125 791 125 703 65.5 c 128,-1,22
 615 6 615 6 517 -1 c 128,-1,23
 419 -8 419 -8 327.5 40 c 128,-1,24
 236 88 236 88 180 171.5 c 128,-1,25
 124 255 124 255 107.5 354.5 c 128,-1,26
 91 454 91 454 110 547 c 0,27,28
 151 742 151 742 302 872 c 128,-1,29
 453 1002 453 1002 643 1012.5 c 128,-1,0
 833 1023 833 1023 988 931.5 c 128,-1,1
567.5 555 m 128,-1,31
 527 571 527 571 482.5 570.5 c 128,-1,32
 438 570 438 570 391.5 548 c 128,-1,33
 345 526 345 526 314 489 c 0,34,35
 248 408 248 408 266 306 c 1,36,37
 305 210 305 210 390 165 c 0,38,39
 508 103 508 103 615 175 c 0,40,41
 673 214 673 214 691.5 268.5 c 128,-1,42
 710 323 710 323 707.5 364 c 128,-1,43
 705 405 705 405 686.5 444 c 128,-1,44
 668 483 668 483 638 511 c 128,-1,30
 608 539 608 539 567.5 555 c 128,-1,31
EndSplineSet
EndChar

StartChar: e2
Encoding: 99 3399 99
Width: 1023
GlyphClass: 2
Flags: MW
LayerCount: 2
Back
Fore
SplineSet
610 1020 m 0,0,1
 739 1012 739 1012 821 938 c 0,2,3
 870 894 870 894 893 832 c 128,-1,4
 916 770 916 770 901.5 707 c 128,-1,5
 887 644 887 644 842 600 c 128,-1,6
 797 556 797 556 736.5 542.5 c 128,-1,7
 676 529 676 529 617.5 548.5 c 128,-1,8
 559 568 559 568 516.5 617 c 128,-1,9
 474 666 474 666 464.5 734 c 0,10,11
 455 802 455 802 488 867 c 1,12,13
 345 825 345 825 281 695 c 128,-1,14
 217 565 217 565 254 428 c 0,15,16
 303 248 303 248 479 169 c 1,17,18
 445 256 445 256 479 338 c 128,-1,19
 513 420 513 420 588 458 c 0,20,21
 695 514 695 514 802.5 457 c 128,-1,22
 910 400 910 400 923 266 c 0,23,24
 930 196 930 196 884.5 128 c 128,-1,25
 839 60 839 60 764 26 c 0,26,27
 643 -30 643 -30 474 21 c 128,-1,28
 305 72 305 72 195 228 c 128,-1,29
 85 384 85 384 103 577 c 128,-1,30
 121 770 121 770 267.5 901 c 128,-1,31
 414 1032 414 1032 610 1020 c 0,0,1
705 850 m 1,32,-1
 698 850 l 2,33,34
 696 850 696 850 682 850.5 c 128,-1,35
 668 851 668 851 645.5 837.5 c 128,-1,36
 623 824 623 824 612 801 c 0,37,38
 587 749 587 749 622 708.5 c 128,-1,39
 657 668 657 668 705.5 679 c 128,-1,40
 754 690 754 690 765 737 c 0,41,42
 780 805 780 805 705 850 c 1,32,-1
724 163 m 0,43,44
 788 203 788 203 781 272 c 0,45,46
 777 312 777 312 724 340 c 0,47,48
 694 356 694 356 658.5 337.5 c 128,-1,49
 623 319 623 319 610 288 c 128,-1,50
 597 257 597 257 607.5 225.5 c 128,-1,51
 618 194 618 194 646 176 c 128,-1,52
 674 158 674 158 693 160.5 c 128,-1,53
 712 163 712 163 716 163 c 128,-1,54
 720 163 720 163 724 163 c 0,43,44
EndSplineSet
EndChar

StartChar: o1
Encoding: 101 3402 101
Width: 2487
GlyphClass: 2
Flags: MW
LayerCount: 2
Back
Fore
SplineSet
1377 1184 m 1049
1509 1014 m 1024
EndSplineSet
Refer: 92 3390 N 1 0 0 1 1462 36 2
Refer: 98 3398 N 1 0 0 1 0 0 2
EndChar

StartChar: xx
Encoding: 104 3405 104
Width: 142
GlyphClass: 4
Flags: MW
LayerCount: 2
Back
Fore
SplineSet
-276 1413.5 m 128,-1,1
 -256 1429 -256 1429 -230 1429 c 128,-1,2
 -204 1429 -204 1429 -183.5 1408 c 128,-1,3
 -163 1387 -163 1387 -163 1368.5 c 128,-1,4
 -163 1350 -163 1350 -169 1326.5 c 128,-1,5
 -175 1303 -175 1303 -167 1262 c 128,-1,6
 -159 1221 -159 1221 -136 1190 c 0,7,8
 -86 1121 -86 1121 -1 1116 c 0,9,10
 40 1113 40 1113 81 1131 c 128,-1,11
 122 1149 122 1149 149 1180 c 0,12,13
 208 1250 208 1250 186 1338 c 0,14,15
 184 1346 184 1346 184 1365 c 128,-1,16
 184 1384 184 1384 204.5 1404.5 c 128,-1,17
 225 1425 225 1425 251.5 1425 c 128,-1,18
 278 1425 278 1425 298 1409 c 128,-1,19
 318 1393 318 1393 323 1370 c 0,20,21
 340 1296 340 1296 322 1222 c 128,-1,22
 304 1148 304 1148 255.5 1090 c 128,-1,23
 207 1032 207 1032 136 1002 c 0,24,25
 18 952 18 952 -87 990.5 c 128,-1,26
 -192 1029 -192 1029 -242 1097 c 0,27,28
 -338 1229 -338 1229 -301 1375 c 0,29,0
 -296 1398 -296 1398 -276 1413.5 c 128,-1,1
EndSplineSet
EndChar

StartChar: dotreph
Encoding: 105 3406 105
Width: 0
GlyphClass: 4
Flags: MW
AnchorPoint: "dotreph" -604 1076 mark 0
LayerCount: 2
Back
Fore
SplineSet
-584 1087 m 0,0,1
 -632 1074 -632 1074 -660 1118 c 0,2,3
 -686 1162 -686 1162 -694 1207 c 0,4,5
 -711 1300 -711 1300 -646 1339 c 0,6,7
 -615 1357 -615 1357 -579 1348.5 c 128,-1,8
 -543 1340 -543 1340 -523 1311 c 128,-1,9
 -503 1282 -503 1282 -503 1231 c 0,10,11
 -503 1180 -503 1180 -544 1116 c 0,12,13
 -558 1094 -558 1094 -584 1087 c 0,0,1
EndSplineSet
EndChar

StartChar: au2
Encoding: 106 3415 106
Width: 1530
GlyphClass: 2
Flags: MW
LayerCount: 2
Back
Fore
SplineSet
742 533 m 0,0,1
 651 533 651 533 667 674 c 1,2,3
 656 757 656 757 603 801 c 0,4,5
 500 887 500 887 397.5 852.5 c 128,-1,6
 295 818 295 818 255 722 c 0,7,8
 241 688 241 688 242 640.5 c 128,-1,9
 243 593 243 593 256.5 566 c 128,-1,10
 270 539 270 539 270 516 c 128,-1,11
 270 493 270 493 249.5 472.5 c 128,-1,12
 229 452 229 452 205 452 c 0,13,14
 155 452 155 452 137 493 c 0,15,16
 68 636 68 636 129 783 c 128,-1,17
 190 930 190 930 349 984 c 0,18,19
 429 1011 429 1011 520 994 c 0,20,21
 657 968 657 968 740 856 c 1,22,23
 848 999 848 999 1030 1002 c 0,24,25
 1158 1004 1158 1004 1262 926 c 0,26,27
 1328 877 1328 877 1369 807 c 0,28,29
 1450 670 1450 670 1425 512 c 128,-1,30
 1400 354 1400 354 1298.5 239.5 c 128,-1,31
 1197 125 1197 125 1048.5 60.5 c 128,-1,32
 900 -4 900 -4 729 -0.5 c 128,-1,33
 558 3 558 3 407 76 c 0,34,35
 367 95 367 95 367 145 c 0,36,37
 367 169 367 169 387.5 189 c 128,-1,38
 408 209 408 209 430.5 209 c 128,-1,39
 453 209 453 209 468 202 c 0,40,41
 590 143 590 143 731.5 140 c 128,-1,42
 873 137 873 137 993 189 c 128,-1,43
 1113 241 1113 241 1190.5 328.5 c 128,-1,44
 1268 416 1268 416 1286 529 c 128,-1,45
 1304 642 1304 642 1247.5 737.5 c 128,-1,46
 1191 833 1191 833 1081 857.5 c 128,-1,47
 971 882 971 882 873 796 c 0,48,49
 823 752 823 752 808 668 c 1,50,51
 814 578 814 578 787.5 555.5 c 128,-1,52
 761 533 761 533 742 533 c 0,0,1
EndSplineSet
EndChar

StartChar: datemark
Encoding: 107 3449 107
Width: 2161
GlyphClass: 2
Flags: MW
LayerCount: 2
Back
Fore
SplineSet
785 591 m 1,0,1
 829 702 829 702 894 789 c 0,2,3
 1030 972 1030 972 1214 1007.5 c 128,-1,4
 1398 1043 1398 1043 1544 940.5 c 128,-1,5
 1690 838 1690 838 1726 637 c 0,6,7
 1726 636 1726 636 1761 625 c 128,-1,8
 1796 614 1796 614 1875.5 573 c 128,-1,9
 1955 532 1955 532 2005.5 491.5 c 128,-1,10
 2056 451 2056 451 2059 424 c 128,-1,11
 2062 397 2062 397 2045 376.5 c 0,12,13
 2003.47214076 326.42228739 2003.47214076 326.42228739 1929.23607038 386.211143695 c 128,-1,14
 1855 446 1855 446 1736 494 c 1,15,16
 1734 457 1734 457 1729 418 c 0,17,18
 1708 238 1708 238 1578 129 c 128,-1,19
 1448 20 1448 20 1342 15.5 c 128,-1,20
 1236 11 1236 11 1175.5 38.5 c 128,-1,21
 1115 66 1115 66 1073 128 c 128,-1,22
 1031 190 1031 190 1028.5 275.5 c 128,-1,23
 1026 361 1026 361 1052 424.5 c 0,24,25
 1102.47765794 547.781972265 1102.47765794 547.781972265 1236 613.5 c 0,26,27
 1393.15843644 693.307018504 1393.15843644 693.307018504 1586 665 c 1,28,29
 1552 776 1552 776 1460.5 840.5 c 128,-1,30
 1369 905 1369 905 1236.5 879.5 c 128,-1,31
 1104 854 1104 854 999 713.5 c 128,-1,32
 894 573 894 573 864 417 c 128,-1,33
 834 261 834 261 831 182 c 128,-1,34
 828 103 828 103 826.5 67.5 c 128,-1,35
 825 32 825 32 805 13.5 c 128,-1,36
 785 -5 785 -5 758.5 -3.5 c 128,-1,37
 732 -2 732 -2 714 17.5 c 128,-1,38
 696 37 696 37 696 71.5 c 128,-1,39
 696 106 696 106 698 187.5 c 128,-1,40
 700 269 700 269 686.5 406.5 c 128,-1,41
 673 544 673 544 618.5 684 c 128,-1,42
 564 824 564 824 471 861 c 0,43,44
 405 888 405 888 342 836 c 0,45,46
 260 770 260 770 223 579 c 128,-1,47
 186 388 186 388 307 94 c 0,48,49
 317 69 317 69 306.5 44 c 128,-1,50
 296 19 296 19 271.5 9 c 128,-1,51
 247 -1 247 -1 222 9.5 c 128,-1,52
 197 20 197 20 187 45 c 0,53,54
 51 375 51 375 96 608 c 128,-1,55
 141 841 141 841 260 937 c 128,-1,56
 379 1033 379 1033 519 982 c 0,57,58
 664 925 664 925 746 714 c 0,59,60
 769 657 769 657 785 591 c 1,0,1
1606 531 m 1,61,62
 1424 561 1424 561 1288.5 493.5 c 128,-1,63
 1153 426 1153 426 1158 284 c 0,64,65
 1160 232 1160 232 1182 199.5 c 128,-1,66
 1204 167 1204 167 1231.5 154.5 c 128,-1,67
 1259 142 1259 142 1328.5 145 c 128,-1,68
 1398 148 1398 148 1491.5 226 c 128,-1,69
 1585 304 1585 304 1600 434 c 1,70,71
 1607 485 1607 485 1606 531 c 1,61,62
EndSplineSet
EndChar

StartChar: ZWNJ
Encoding: 108 8204 108
Width: 321
GlyphClass: 2
Flags: MW
LayerCount: 2
Back
Fore
SplineSet
66 1032 m 1,0,-1
 225 1032 l 1,1,-1
 225 43 l 1,2,-1
 66 43 l 1,3,-1
 66 1032 l 1,0,-1
EndSplineSet
EndChar

StartChar: ZWJ
Encoding: 109 8205 109
Width: 321
GlyphClass: 2
Flags: MW
LayerCount: 2
Back
Fore
SplineSet
148 1012 m 1,0,-1
 14 804 l 1,1,-1
 -90 804 l 1,2,-1
 96 1076 l 1,3,-1
 -76 1324 l 1,4,-1
 33 1324 l 1,5,-1
 111 1203 l 2,6,7
 120 1189 120 1189 145 1144 c 1,8,-1
 270 1324 l 1,9,-1
 377 1324 l 1,10,-1
 199 1080 l 1,11,-1
 387 804 l 1,12,-1
 283 804 l 1,13,-1
 148 1012 l 1,0,-1
70 888 m 1,14,-1
 224 888 l 1,15,-1
 224 13 l 1,16,-1
 70 13 l 1,17,-1
 70 888 l 1,14,-1
EndSplineSet
EndChar

StartChar: rupee
Encoding: 110 8377 110
Width: 1231
GlyphClass: 2
Flags: MW
LayerCount: 2
Back
Fore
SplineSet
470 1310 m 2,0,-1
 1059 1308 l 2,1,2
 1086 1308 1086 1308 1105 1288.5 c 128,-1,3
 1124 1269 1124 1269 1124 1242.5 c 128,-1,4
 1124 1216 1124 1216 1104.5 1196.5 c 128,-1,5
 1085 1177 1085 1177 1059 1178 c 0,6,7
 906 1178 906 1178 754 1179 c 1,8,9
 828 1073 828 1073 808 936 c 1,10,11
 937 936 937 936 1067 935 c 0,12,13
 1094 935 1094 935 1113 916 c 128,-1,14
 1132 897 1132 897 1132 870.5 c 128,-1,15
 1132 844 1132 844 1112.5 824.5 c 128,-1,16
 1093 805 1093 805 1067 805 c 0,17,18
 918 806 918 806 768 806 c 1,19,20
 690 643 690 643 526 537 c 0,21,22
 465 498 465 498 399 473 c 1,23,-1
 891 82 l 2,24,25
 912 65 912 65 915 38 c 128,-1,26
 918 11 918 11 901.5 -9.5 c 128,-1,27
 885 -30 885 -30 858 -33.5 c 128,-1,28
 831 -37 831 -37 810 -20 c 2,29,-1
 218 450 l 2,30,31
 199 465 199 465 194.5 490.5 c 128,-1,32
 190 516 190 516 205.5 538.5 c 128,-1,33
 221 561 221 561 248 565 c 0,34,35
 359 584 359 584 457 647.5 c 128,-1,36
 555 711 555 711 619 807 c 1,37,38
 396 808 396 808 173 808 c 0,39,40
 146 808 146 808 127 827.5 c 128,-1,41
 108 847 108 847 108 873.5 c 128,-1,42
 108 900 108 900 127 919.5 c 128,-1,43
 146 939 146 939 173 938 c 2,44,-1
 676 937 l 1,45,46
 690 1003 690 1003 669 1062 c 128,-1,47
 648 1121 648 1121 603 1147.5 c 128,-1,48
 558 1174 558 1174 523 1179 c 1,49,-1
 477 1180 l 2,50,51
 473 1180 473 1180 463.5 1178 c 128,-1,52
 454 1176 454 1176 441 1180 c 1,53,54
 303 1180 303 1180 165 1181 c 0,55,56
 138 1181 138 1181 119 1200 c 128,-1,57
 100 1219 100 1219 100 1245.5 c 128,-1,58
 100 1272 100 1272 119.5 1291.5 c 128,-1,59
 139 1311 139 1311 165 1311 c 0,60,61
 317 1310 317 1310 470 1310 c 2,0,-1
EndSplineSet
EndChar

StartChar: uni25CC
Encoding: 111 9676 111
Width: 1131
GlyphClass: 2
Flags: MW
LayerCount: 2
Back
Fore
SplineSet
930 710 m 1,0,1
 866 817 866 817 794 843 c 1,2,-1
 868 944 l 1,3,4
 948 892 948 892 980 860 c 1,5,-1
 984 858 l 1,6,7
 1022 811 1022 811 1038 784 c 1,8,-1
 930 710 l 1,0,1
686 1017 m 1,9,-1
 666 897 l 1,10,11
 602 907 602 907 568 907 c 128,-1,12
 534 907 534 907 470 897 c 1,13,-1
 450 1017 l 1,14,15
 521 1033 521 1033 570 1033 c 128,-1,16
 619 1033 619 1033 686 1017 c 1,9,-1
1098 630 m 1,17,18
 1112 573 1112 573 1112 517.5 c 128,-1,19
 1112 462 1112 462 1098 405 c 1,20,-1
 972 426 l 1,21,22
 981 486 981 486 981 514.5 c 128,-1,23
 981 543 981 543 972 609 c 1,24,-1
 1098 630 l 1,17,18
1038 250 m 1,25,26
 980 170 980 170 954 142 c 1,27,-1
 952 142 l 1,28,29
 950 140 950 140 868 91 c 1,30,-1
 794 192 l 1,31,32
 866 236 866 236 888 260 c 1,33,34
 924 312 924 312 930 325 c 1,35,-1
 1038 250 l 1,25,26
348 843 m 1,36,37
 264 796 264 796 252 771 c 1,38,-1
 212 710 l 1,39,-1
 104 784 l 1,40,41
 156 860 156 860 186 888 c 1,42,43
 198 897 198 897 270 944 c 1,44,-1
 348 843 l 1,36,37
170 426 m 1,45,-1
 42 405 l 1,46,47
 30 461 30 461 30 517 c 128,-1,48
 30 573 30 573 42 630 c 1,49,-1
 170 609 l 1,50,51
 158 576 158 576 158 517.5 c 128,-1,52
 158 459 158 459 170 426 c 1,45,-1
686 18 m 1,53,54
 640 4 640 4 571 4 c 128,-1,55
 502 4 502 4 450 18 c 1,56,-1
 470 138 l 1,57,58
 535 128 535 128 568.5 128 c 128,-1,59
 602 128 602 128 666 138 c 1,60,-1
 686 18 l 1,53,54
348 192 m 1,61,-1
 270 91 l 1,62,63
 178 150 178 150 158 175 c 1,64,-1
 156 175 l 1,65,-1
 104 250 l 1,66,-1
 212 325 l 1,67,68
 262 248 262 248 278 237 c 128,-1,69
 294 226 294 226 348 192 c 1,61,-1
EndSplineSet
EndChar

StartChar: r4
Encoding: 112 -1 112
Width: 615
GlyphClass: 2
LigCaretCntFixed: 1
Flags: MW
LayerCount: 2
Back
Fore
SplineSet
516 -223.5 m 128,-1,1
 515 -250 515 -250 495 -268.5 c 128,-1,2
 475 -287 475 -287 448 -286 c 0,3,4
 211 -277 211 -277 135 -100 c 0,5,6
 74 42 74 42 118 352 c 0,7,8
 135 475 135 475 181.5 709.5 c 128,-1,9
 228 944 228 944 234 976.5 c 128,-1,10
 240 1009 240 1009 262.5 1024.5 c 128,-1,11
 285 1040 285 1040 311.5 1035 c 128,-1,12
 338 1030 338 1030 353 1007 c 128,-1,13
 368 984 368 984 362 952 c 0,14,15
 270 492 270 492 247 334 c 0,16,17
 209 60 209 60 253.5 -45.5 c 128,-1,18
 298 -151 298 -151 453 -156 c 0,19,20
 480 -157 480 -157 498.5 -177 c 128,-1,0
 517 -197 517 -197 516 -223.5 c 128,-1,1
EndSplineSet
Ligature2: "'pref' Pre Base Forms in Malay+AQEA-lam2 lookup 1 subtable" xx r3
Ligature2: "'pstf' Post Base Forms in Malay+AQEA-lam lookup 7 subtable" r3 xx
LCarets2: 1 0
EndChar

StartChar: y2
Encoding: 113 -1 113
Width: 598
GlyphClass: 2
LigCaretCntFixed: 1
Flags: MW
LayerCount: 2
Back
Fore
SplineSet
125 976 m 0,0,1
 130 996 130 996 150 1012 c 128,-1,2
 170 1028 170 1028 196 1027 c 128,-1,3
 222 1026 222 1026 242 1006 c 128,-1,4
 262 986 262 986 262 966 c 128,-1,5
 262 946 262 946 259 936 c 0,6,7
 182 643 182 643 311 395 c 0,8,9
 353 313 353 313 405 233 c 128,-1,10
 457 153 457 153 490 102 c 0,11,12
 683 -194 683 -194 537 -418 c 0,13,14
 470 -524 470 -524 350 -566 c 128,-1,15
 230 -608 230 -608 110 -564 c 128,-1,16
 -10 -520 -10 -520 -71.5 -404.5 c 128,-1,17
 -133 -289 -133 -289 -98 -162 c 128,-1,18
 -63 -35 -63 -35 50 34 c 0,19,20
 96.0465116279 62.1395348837 96.0465116279 62.1395348837 138 24 c 0,21,22
 158 4 158 4 158 -30 c 128,-1,23
 158 -64 158 -64 125 -84 c 0,24,25
 58 -125 58 -125 38 -199.5 c 128,-1,26
 18 -274 18 -274 53 -340 c 128,-1,27
 88 -406 88 -406 160 -432 c 128,-1,28
 232 -458 232 -458 304.5 -433 c 128,-1,29
 377 -408 377 -408 420 -342 c 0,30,31
 496 -224 496 -224 423 -66 c 0,32,33
 399 -13 399 -13 341 76 c 128,-1,34
 283 165 283 165 246 224 c 0,35,36
 13 601 13 601 125 976 c 0,0,1
EndSplineSet
Ligature2: "'pstf' Post Base Forms in Malay+AQEA-lam2 lookup 7 subtable" xx y1
Ligature2: "'pstf' Post Base Forms in Malay+AQEA-lam lookup 7 subtable" y1 xx
LCarets2: 1 3
EndChar

StartChar: v2
Encoding: 116 -1 116
Width: 588
GlyphClass: 3
LigCaretCntFixed: 1
Flags: MW
LayerCount: 2
Back
Fore
SplineSet
266 -244 m 5,0,-1
 266 949 l 6,1,2
 266 964 266 964 286.5 984.5 c 132,-1,3
 307 1005 307 1005 336 1005 c 132,-1,4
 365 1005 365 1005 385.5 984.5 c 132,-1,5
 406 964 406 964 406 949 c 6,6,-1
 406 -314 l 6,7,8
 406 -343 406 -343 385.5 -363.5 c 132,-1,9
 365 -384 365 -384 336 -384 c 6,10,11
 -351 -384 l 6,12,13
 -366 -384 -366 -384 -386.5 -363.5 c 132,-1,14
 -407 -343 -407 -343 -407 -314 c 132,-1,15
 -407 -285 -407 -285 -386.5 -264.5 c 132,-1,16
 -366 -244 -366 -244 -351 -244 c 6,17,18
 266 -244 l 5,0,-1
EndSplineSet
Ligature2: "'pstf' Post Base Forms in Malay+AQEA-lam2 lookup 7 subtable" xx v1
Ligature2: "'pstf' Post Base Forms in Malay+AQEA-lam lookup 7 subtable" v1 xx
LCarets2: 1 0
EndChar

StartChar: k1cil
Encoding: 117 3455 117
Width: 1937
GlyphClass: 3
Flags: MW
LayerCount: 2
Back
Fore
SplineSet
1447 1434 m 2,0,1
 1477 1434 1477 1434 1497 1413 c 0,2,3
 1609 1299 1609 1299 1626.5 1136.5 c 128,-1,4
 1644 974 1644 974 1525 724 c 0,5,6
 1513 700 1513 700 1500 673 c 128,-1,7
 1487 646 1487 646 1479 630 c 1,8,9
 1652 597 1652 597 1740 501 c 0,10,11
 1884 344 1884 344 1816 172 c 0,12,13
 1792 111 1792 111 1744 67 c 0,14,15
 1640 -28 1640 -28 1504 -0 c 0,16,17
 1422 17 1422 17 1373 65.5 c 128,-1,18
 1324 114 1324 114 1299 162 c 1,19,20
 1240 84 1240 84 1152 37 c 128,-1,21
 1064 -10 1064 -10 963 -6 c 0,22,23
 789 0 789 0 669 140 c 1,24,25
 606 36 606 36 490 3 c 0,26,27
 421 -17 421 -17 350 -5 c 0,28,29
 232 16 232 16 159.5 112 c 128,-1,30
 87 208 87 208 103 318 c 128,-1,31
 119 428 119 428 190 498 c 0,32,33
 320 626 320 626 565 639 c 1,34,35
 593 759 593 759 657 839 c 0,36,37
 788 1003 788 1003 972 1005 c 0,38,39
 1064 1006 1064 1006 1146 965 c 0,40,41
 1298 887 1298 887 1365 716 c 1,42,43
 1413 814 1413 814 1419 828 c 0,44,45
 1500 1005 1500 1005 1487.5 1120 c 128,-1,46
 1475 1235 1475 1235 1397 1314 c 0,47,48
 1376 1335 1376 1335 1376 1364 c 128,-1,49
 1376 1393 1376 1393 1396.5 1413.5 c 128,-1,50
 1417 1434 1417 1434 1446 1434 c 2,51,-1
 1447 1434 l 2,0,1
711 642 m 1,52,-1
 1221 645 l 2,53,54
 1231 645 1231 645 1241 645 c 1,55,56
 1196 782 1196 782 1085 838.5 c 128,-1,57
 974 895 974 895 864.5 836.5 c 128,-1,58
 755 778 755 778 711 642 c 1,52,-1
696 502 m 1,59,60
 689 502 l 1,61,62
 686 360 686 360 753 260 c 0,63,64
 835 138 835 138 966 134 c 0,65,66
 1031 132 1031 132 1091 163.5 c 128,-1,67
 1151 195 1151 195 1193 253 c 0,68,69
 1268 356 1268 356 1265 505 c 1,70,-1
 1222 505 l 1,71,-1
 696 502 l 1,59,60
549 498 m 1,72,73
 376 484 376 484 296 405 c 0,74,75
 251 361 251 361 242.5 303.5 c 128,-1,76
 234 246 234 246 272 195 c 128,-1,77
 310 144 310 144 361 136 c 0,78,79
 456 119 456 119 518 174.5 c 128,-1,80
 580 230 580 230 574 313 c 0,81,82
 574 314 574 314 574 315 c 0,83,84
 548 401 548 401 549 498 c 1,72,73
1424 496 m 1,85,86
 1353 282 1353 282 1459 178 c 0,87,88
 1519 119 1519 119 1589.5 139 c 128,-1,89
 1660 159 1660 159 1685 223 c 0,90,91
 1721 314 1721 314 1647 395 c 128,-1,92
 1573 476 1573 476 1424 496 c 1,85,86
EndSplineSet
LCarets2: 2 0 0
Ligature2: "'akhn' Akhand in Malay+AQEA-lam2 lookup 0 subtable" k1 xx ZWJ
Ligature2: "'akhn' Akhand in Malay+AQEA-lam lookup 0 subtable" k1 xx ZWJ
Ligature2: "'half' Half Forms in Malay+AQEA-lam lookup 1 subtable" k1 xx ZWJ
Ligature2: "'haln' Halant Forms in Malay+AQEA-lam lookup 6 subtable" k1 xx ZWJ
EndChar

StartChar: nhcil
Encoding: 118 3450 118
Width: 2976
GlyphClass: 2
Flags: MW
LayerCount: 2
Back
Fore
SplineSet
1057 447 m 6,0,1
 1057 448 1057 448 1057 449 c 4,2,3
 1058 532 1058 532 1023 612 c 4,4,5
 953 775 953 775 786 834 c 4,6,7
 659 879 659 879 529.5 839.5 c 132,-1,8
 400 800 400 800 320 690 c 5,9,10
 408 739 408 739 496.5 736.5 c 132,-1,11
 585 734 585 734 651 703 c 4,12,13
 790 639 790 639 843 495 c 4,14,15
 874 410 874 410 860.5 319 c 132,-1,16
 847 228 847 228 793.5 155 c 132,-1,17
 740 82 740 82 657.5 42.5 c 132,-1,18
 575 3 575 3 482 7.5 c 132,-1,19
 389 12 389 12 308 61.5 c 132,-1,20
 227 111 227 111 176 188 c 4,21,22
 76 342 76 342 107 533 c 132,-1,23
 138 724 138 724 279.5 854 c 132,-1,24
 421 984 421 984 612 997 c 4,25,26
 725 1005 725 1005 833 967 c 4,27,28
 1007 905 1007 905 1107 751 c 5,29,30
 1174 898 1174 898 1318 964 c 4,31,32
 1416 1009 1416 1009 1524.5 1003.5 c 132,-1,33
 1633 998 1633 998 1732.5 945 c 132,-1,34
 1832 892 1832 892 1894 784 c 5,35,36
 1963 904 1963 904 2102 968 c 132,-1,37
 2241 1032 2241 1032 2419 992 c 5,38,39
 2431 1145 2431 1145 2315 1245 c 4,40,41
 2290 1266 2290 1266 2290 1296.5 c 132,-1,42
 2290 1327 2290 1327 2310.5 1347.5 c 132,-1,43
 2331 1368 2331 1368 2359 1368 c 132,-1,44
 2387 1368 2387 1368 2407 1351 c 4,45,46
 2493 1276 2493 1276 2534 1165.5 c 132,-1,47
 2575 1055 2575 1055 2555 945 c 4,48,49
 2555 943 2555 943 2554 942 c 5,50,51
 2722 856 2722 856 2809 686 c 4,52,53
 2858 590 2858 590 2872 484 c 4,54,55
 2894 318 2894 318 2825 189 c 4,56,57
 2786 116 2786 116 2720.5 65.5 c 132,-1,58
 2655 15 2655 15 2570.5 2 c 132,-1,59
 2486 -11 2486 -11 2404 22.5 c 132,-1,60
 2322 56 2322 56 2268 122 c 4,61,62
 2131 288 2131 288 2202 515 c 4,63,64
 2225 589 2225 589 2291.5 699 c 132,-1,65
 2358 809 2358 809 2380 857 c 5,66,67
 2253 884 2253 884 2148 835 c 4,68,69
 2010 771 2010 771 1977 610 c 4,70,71
 1966 555 1966 555 1966 445 c 6,72,-1
 1967 65 l 5,73,-1
 1967 64 l 6,74,75
 1967 24 1967 24 1932 4 c 4,76,77
 1916 -5 1916 -5 1892.5 -5 c 132,-1,78
 1869 -5 1869 -5 1848.5 15 c 132,-1,79
 1828 35 1828 35 1827 64 c 6,80,-1
 1825 440 l 6,81,82
 1824 546 1824 546 1811.5 611.5 c 132,-1,83
 1799 677 1799 677 1759 735 c 4,84,85
 1676 856 1676 856 1516.5 863.5 c 132,-1,86
 1357 871 1357 871 1265 745 c 4,87,88
 1223 687 1223 687 1210 619 c 132,-1,89
 1197 551 1197 551 1199 440 c 6,90,-1
 1204 71 l 6,91,92
 1204 42 1204 42 1183.5 21.5 c 132,-1,93
 1163 1 1163 1 1134.5 1 c 132,-1,94
 1106 1 1106 1 1085.5 20.5 c 132,-1,95
 1065 40 1065 40 1064 68 c 6,96,-1
 1057 447 l 6,0,1
2511 806 m 5,97,98
 2488 754 2488 754 2435 666.5 c 132,-1,99
 2382 579 2382 579 2356 523 c 4,100,101
 2269 339 2269 339 2374 213 c 4,102,103
 2447 125 2447 125 2547.5 140.5 c 132,-1,104
 2648 156 2648 156 2698.5 250.5 c 132,-1,105
 2749 345 2749 345 2735 446 c 4,106,107
 2703 695 2703 695 2511 806 c 5,97,98
593 576 m 132,-1,109
 507 616 507 616 418.5 582 c 132,-1,110
 330 548 330 548 291.5 461.5 c 132,-1,111
 253 375 253 375 288 287 c 4,112,113
 292 276 292 276 294 265 c 5,114,115
 368 153 368 153 491 147 c 4,116,117
 545 144 545 144 597 169.5 c 132,-1,118
 649 195 649 195 681 238 c 132,-1,119
 713 281 713 281 721 339 c 132,-1,120
 729 397 729 397 713 443 c 4,121,108
 679 536 679 536 593 576 c 132,-1,109
EndSplineSet
LCarets2: 2 0 0
Ligature2: "'haln' Halant Forms in Malay+AQEA-lam lookup 6 subtable" nh xx ZWJ
Ligature2: "'half' Half Forms in Malay+AQEA-lam lookup 1 subtable" nh xx ZWJ
Ligature2: "'akhn' Akhand in Malay+AQEA-lam lookup 0 subtable" nh xx ZWJ
Ligature2: "'akhn' Akhand in Malay+AQEA-lam2 lookup 0 subtable" nh xx ZWJ
EndChar

StartChar: n1cil
Encoding: 119 3451 119
Width: 2126
GlyphClass: 2
Flags: MW
LayerCount: 2
Back
Fore
SplineSet
1332 1429 m 0,0,1
 1352 1465 1352 1465 1384.5 1464.5 c 128,-1,2
 1417 1464 1417 1464 1436 1449 c 0,3,4
 1559 1356 1559 1356 1609 1211 c 0,5,6
 1645 1107 1645 1107 1634 996 c 1,7,8
 1824 937 1824 937 1925.5 783 c 128,-1,9
 2027 629 2027 629 2027 450.5 c 128,-1,10
 2027 272 2027 272 1915 141 c 0,11,12
 1855 71 1855 71 1771 33 c 128,-1,13
 1687 -5 1687 -5 1602 1 c 0,14,15
 1434 13 1434 13 1335.5 140.5 c 128,-1,16
 1237 268 1237 268 1253 428 c 0,17,18
 1260 504 1260 504 1289 571 c 128,-1,19
 1318 638 1318 638 1377.5 736.5 c 128,-1,20
 1437 835 1437 835 1458 881 c 1,21,22
 1292 876 1292 876 1184 764 c 128,-1,23
 1076 652 1076 652 1063 505 c 1,24,25
 1063 461 l 1,26,-1
 1060 66 l 2,27,28
 1059 38 1059 38 1039 17.5 c 128,-1,29
 1019 -3 1019 -3 990 -3 c 128,-1,30
 961 -3 961 -3 940.5 17.5 c 128,-1,31
 920 38 920 38 920 53 c 0,32,33
 918 237 918 237 921 529 c 0,34,35
 922 661 922 661 860 748 c 0,36,37
 777 865 777 865 620.5 871 c 128,-1,38
 464 877 464 877 351 766 c 0,39,40
 298 714 298 714 268.5 642.5 c 128,-1,41
 239 571 239 571 240 497 c 128,-1,42
 241 423 241 423 273 352 c 128,-1,43
 305 281 305 281 359.5 231 c 128,-1,44
 414 181 414 181 487 155.5 c 128,-1,45
 560 130 560 130 634 135 c 0,46,47
 637 135 637 135 653 135.5 c 128,-1,48
 669 136 669 136 689.5 115.5 c 128,-1,49
 710 95 710 95 710 66.5 c 128,-1,50
 710 38 710 38 690.5 17.5 c 128,-1,51
 671 -3 671 -3 644 -4 c 0,52,53
 540 -11 540 -11 441 23 c 0,54,55
 256 88 256 88 163 258 c 0,56,57
 102 370 102 370 100 484.5 c 128,-1,58
 98 599 98 599 138 696.5 c 128,-1,59
 178 794 178 794 252.5 866.5 c 128,-1,60
 327 939 327 939 425.5 977 c 128,-1,61
 524 1015 524 1015 628 1011 c 128,-1,62
 732 1007 732 1007 823 961 c 0,63,64
 946 898 946 898 1010 770 c 1,65,66
 1100 910 1100 910 1255 976 c 0,67,68
 1371 1026 1371 1026 1495 1020 c 1,69,70
 1500 1096 1500 1096 1470 1183.5 c 128,-1,71
 1440 1271 1440 1271 1352 1338 c 0,72,73
 1324 1359 1324 1359 1323.5 1386 c 128,-1,74
 1323 1413 1323 1413 1332 1429 c 0,0,1
1601 859 m 1,75,76
 1565 764 1565 764 1486 646 c 1,77,78
 1381 472 1381 472 1393 351 c 128,-1,79
 1405 230 1405 230 1509 172.5 c 128,-1,80
 1613 115 1613 115 1715 161 c 0,81,82
 1843 219 1843 219 1878 377 c 0,83,84
 1904 499 1904 499 1854 621 c 0,85,86
 1782 798 1782 798 1601 859 c 1,75,76
EndSplineSet
LCarets2: 2 0 0
Ligature2: "'akhn' Akhand in Malay+AQEA-lam2 lookup 0 subtable" n1 xx ZWJ
Ligature2: "'akhn' Akhand in Malay+AQEA-lam lookup 0 subtable" n1 xx ZWJ
Ligature2: "'half' Half Forms in Malay+AQEA-lam lookup 1 subtable" n1 xx ZWJ
Ligature2: "'haln' Halant Forms in Malay+AQEA-lam lookup 6 subtable" n1 xx ZWJ
EndChar

StartChar: l3cil
Encoding: 120 3453 120
Width: 2019
GlyphClass: 3
Flags: MW
LayerCount: 2
Back
Fore
SplineSet
899 928 m 1,0,1
 1155 1044 1155 1044 1443 961 c 1,2,3
 1476 1094 1476 1094 1425 1205 c 0,4,5
 1394 1274 1394 1274 1339 1323 c 0,6,7
 1315 1344 1315 1344 1314.5 1374.5 c 128,-1,8
 1314 1405 1314 1405 1334.5 1425.5 c 128,-1,9
 1355 1446 1355 1446 1383.5 1446 c 128,-1,10
 1412 1446 1412 1446 1432 1428 c 0,11,12
 1510 1359 1510 1359 1553 1263 c 0,13,14
 1627 1100 1627 1100 1574 908 c 1,15,16
 1733 826 1733 826 1827 679 c 0,17,18
 1889 583 1889 583 1910 473 c 0,19,20
 1944 297 1944 297 1864 161 c 0,21,22
 1819 84 1819 84 1743 38 c 128,-1,23
 1667 -8 1667 -8 1582 -5.5 c 128,-1,24
 1497 -3 1497 -3 1429 40 c 128,-1,25
 1361 83 1361 83 1318 151 c 0,26,27
 1200 338 1200 338 1296 594 c 0,28,29
 1306 618 1306 618 1312 635.5 c 128,-1,30
 1318 653 1318 653 1351 724.5 c 128,-1,31
 1384 796 1384 796 1397 828 c 1,32,33
 1213 881 1213 881 1033 829 c 1,34,35
 1108 757 1108 757 1154 652 c 128,-1,36
 1200 547 1200 547 1205 437 c 0,37,38
 1213 271 1213 271 1133 152 c 0,39,40
 1087 83 1087 83 1016 41 c 128,-1,41
 945 -1 945 -1 860.5 -1.5 c 128,-1,42
 776 -2 776 -2 702 44 c 128,-1,43
 628 90 628 90 583 164 c 0,44,45
 503 297 503 297 532 470 c 0,46,47
 569 689 569 689 751 838 c 1,48,49
 619 878 619 878 481 826 c 128,-1,50
 343 774 343 774 277 634 c 0,51,52
 244 565 244 565 240 493 c 0,53,54
 234 372 234 372 302.5 271.5 c 128,-1,55
 371 171 371 171 486 132 c 0,56,57
 506 125 506 125 520 106 c 128,-1,58
 534 87 534 87 534 62 c 128,-1,59
 534 37 534 37 513.5 16 c 128,-1,60
 493 -5 493 -5 472.5 -5 c 128,-1,61
 452 -5 452 -5 441 -0 c 0,62,63
 282 54 282 54 187.5 193 c 128,-1,64
 93 332 93 332 101 499 c 0,65,66
 106 601 106 601 150 694 c 0,67,68
 241 885 241 885 441 961 c 0,69,70
 537 997 537 997 656 995.5 c 128,-1,71
 775 994 775 994 899 928 c 1,0,1
1526 774 m 1,72,73
 1496 705 1496 705 1452 608 c 0,74,75
 1348 365 1348 365 1436 225 c 0,76,77
 1491 137 1491 137 1582 135 c 0,78,79
 1629 133 1629 133 1672.5 159.5 c 128,-1,80
 1716 186 1716 186 1743 232 c 0,81,82
 1796 322 1796 322 1772 447 c 0,83,84
 1732 659 1732 659 1526 774 c 1,72,73
892 766 m 1,85,86
 704 649 704 649 667 432 c 0,87,88
 649 325 649 325 703 236 c 0,89,90
 730 191 730 191 773 165 c 0,91,92
 860 111 860 111 948 164 c 0,93,94
 988 188 988 188 1017 230 c 0,95,96
 1071 311 1071 311 1066 412 c 0,97,98
 1055 642 1055 642 892 766 c 1,85,86
EndSplineSet
LCarets2: 2 0 0
Ligature2: "'akhn' Akhand in Malay+AQEA-lam2 lookup 0 subtable" l3 xx ZWJ
Ligature2: "'akhn' Akhand in Malay+AQEA-lam lookup 0 subtable" l3 xx ZWJ
Ligature2: "'half' Half Forms in Malay+AQEA-lam lookup 1 subtable" l3 xx ZWJ
Ligature2: "'haln' Halant Forms in Malay+AQEA-lam lookup 6 subtable" l3 xx ZWJ
EndChar

StartChar: lhcil
Encoding: 121 3454 121
Width: 1916
GlyphClass: 3
Flags: MW
LayerCount: 2
Back
Fore
SplineSet
1189.5 1401.5 m 132,-1,1
 1210 1422 1210 1422 1241.5 1422 c 132,-1,2
 1273 1422 1273 1422 1294 1395 c 4,3,4
 1439 1212 1439 1212 1396 978 c 5,5,6
 1550 943 1550 943 1669.5 816 c 132,-1,7
 1789 689 1789 689 1812.5 496 c 132,-1,8
 1836 303 1836 303 1743 160 c 4,9,10
 1691 80 1691 80 1610 32.5 c 132,-1,11
 1529 -15 1529 -15 1434.5 -14 c 132,-1,12
 1340 -13 1340 -13 1260 37 c 4,13,14
 1102 135 1102 135 1073 332 c 4,15,16
 1052 471 1052 471 1108 621 c 4,17,18
 1131 683 1131 683 1161 748 c 6,19,-1
 1203 839 l 5,20,21
 1076 807 1076 807 996 700 c 4,22,23
 941 626 941 626 922 526 c 4,24,25
 915 492 915 492 908 437 c 132,-1,26
 901 382 901 382 897 360 c 4,27,28
 856 101 856 101 684 16 c 4,29,30
 621 -15 621 -15 552 -21 c 4,31,32
 414 -33 414 -33 300 45 c 132,-1,33
 186 123 186 123 137 247 c 132,-1,34
 88 371 88 371 104 505 c 4,35,36
 125 681 125 681 243.5 813 c 132,-1,37
 362 945 362 945 535 985 c 4,38,39
 543 987 543 987 556.5 987 c 132,-1,40
 570 987 570 987 595.5 972 c 132,-1,41
 621 957 621 957 621 925 c 132,-1,42
 621 893 621 893 605 873 c 132,-1,43
 589 853 589 853 566 848 c 4,44,45
 436 818 436 818 347.5 719 c 132,-1,46
 259 620 259 620 245 505 c 4,47,48
 217 272 217 272 376 163 c 4,49,50
 497 80 497 80 621 141 c 4,51,52
 660 160 660 160 686 191 c 4,53,54
 743 257 743 257 763.5 413 c 132,-1,55
 784 569 784 569 808 642 c 4,56,57
 861 802 861 802 1005 901 c 4,58,59
 1118 979 1118 979 1255 989 c 5,60,61
 1277 1090 1277 1090 1252 1171.5 c 132,-1,62
 1227 1253 1227 1253 1198 1290 c 132,-1,63
 1169 1327 1169 1327 1169 1354 c 132,-1,0
 1169 1381 1169 1381 1189.5 1401.5 c 132,-1,1
1356 843 m 5,64,65
 1340 801 1340 801 1310 735.5 c 132,-1,66
 1280 670 1280 670 1268 643 c 4,67,68
 1158 395 1158 395 1251 240 c 4,69,70
 1283 188 1283 188 1332 157 c 4,71,72
 1436 92 1436 92 1542 155 c 4,73,74
 1592 184 1592 184 1626 236 c 4,75,76
 1691 336 1691 336 1673 481.5 c 132,-1,77
 1655 627 1655 627 1564.5 723 c 132,-1,78
 1474 819 1474 819 1356 843 c 5,64,65
EndSplineSet
LCarets2: 2 0 0
Ligature2: "'akhn' Akhand in Malay+AQEA-lam2 lookup 0 subtable" lh xx ZWJ
Ligature2: "'akhn' Akhand in Malay+AQEA-lam lookup 0 subtable" lh xx ZWJ
Ligature2: "'half' Half Forms in Malay+AQEA-lam lookup 1 subtable" lh xx ZWJ
Ligature2: "'haln' Halant Forms in Malay+AQEA-lam lookup 6 subtable" lh xx ZWJ
EndChar

StartChar: r3cil
Encoding: 122 3452 122
Width: 1412
GlyphClass: 3
Flags: MW
LayerCount: 2
Back
Fore
SplineSet
832 1205 m 4,0,1
 817 1270 817 1270 791.5 1305 c 132,-1,2
 766 1340 766 1340 766 1365.5 c 132,-1,3
 766 1391 766 1391 786 1412.5 c 132,-1,4
 806 1434 806 1434 839 1434 c 132,-1,5
 872 1434 872 1434 893 1404 c 4,6,7
 1045 1195 1045 1195 942 943 c 5,8,9
 1098 880 1098 880 1199 749 c 4,10,11
 1324 585 1324 585 1311 384.5 c 132,-1,12
 1298 184 1298 184 1145 67 c 4,13,14
 1066 6 1066 6 972 -8.5 c 132,-1,15
 878 -23 878 -23 789.5 9 c 132,-1,16
 701 41 701 41 637 108.5 c 132,-1,17
 573 176 573 176 545 264 c 132,-1,18
 517 352 517 352 528 447.5 c 132,-1,19
 539 543 539 543 584 625 c 132,-1,20
 629 707 629 707 670 765 c 132,-1,21
 711 823 711 823 728 849 c 5,22,23
 533 861 533 861 400 755 c 132,-1,24
 267 649 267 649 246 514 c 4,25,26
 216 311 216 311 357 182 c 4,27,28
 401 142 401 142 437 127 c 4,29,30
 498 101 498 101 498 57.5 c 132,-1,31
 498 14 498 14 464.5 -5 c 4,32,33
 431 -24 431 -24 399 -10 c 4,34,35
 244 58 244 58 162.5 206 c 132,-1,36
 81 354 81 354 106 521 c 4,37,38
 136 724 136 724 298 852 c 4,39,40
 520 1028 520 1028 805 982 c 5,41,42
 857 1096 857 1096 832 1205 c 4,0,1
876 819 m 5,43,44
 855 786 855 786 799 706 c 4,45,46
 679 534 679 534 667 428 c 4,47,48
 660 368 660 368 679 308 c 4,49,50
 719 183 719 183 837.5 140.5 c 132,-1,51
 956 98 956 98 1059 177 c 132,-1,52
 1162 256 1162 256 1171 398.5 c 132,-1,53
 1180 541 1180 541 1092.5 656.5 c 132,-1,54
 1005 772 1005 772 876 819 c 5,43,44
EndSplineSet
LCarets2: 2 0 0
Ligature2: "'akhn' Akhand in Malay+AQEA-lam2 lookup 0 subtable" r3 xx ZWJ
Ligature2: "'akhn' Akhand in Malay+AQEA-lam lookup 0 subtable" r3 xx ZWJ
Ligature2: "'half' Half Forms in Malay+AQEA-lam lookup 1 subtable" r3 xx ZWJ
Ligature2: "'haln' Halant Forms in Malay+AQEA-lam lookup 6 subtable" r3 xx ZWJ
EndChar

StartChar: k1u1
Encoding: 123 -1 123
Width: 1894
GlyphClass: 3
LigCaretCntFixed: 1
Flags: MW
LayerCount: 2
Back
Fore
SplineSet
798 953 m 0,0,1
 973 1046 973 1046 1149 957 c 0,2,3
 1228 917 1228 917 1292 838.5 c 128,-1,4
 1356 760 1356 760 1386 644 c 1,5,6
 1469 646 1469 646 1553.5 638 c 128,-1,7
 1638 630 1638 630 1695 587 c 0,8,9
 1814 498 1814 498 1791 379 c 0,10,11
 1781 324 1781 324 1739 282 c 1,12,13
 1803 222 1803 222 1793 133 c 0,14,15
 1787 77 1787 77 1742.5 37 c 128,-1,16
 1698 -3 1698 -3 1641 -19 c 0,17,18
 1541 -48 1541 -48 1442 -14 c 0,19,20
 1422 -7 1422 -7 1408 12 c 128,-1,21
 1394 31 1394 31 1394 51 c 128,-1,22
 1394 71 1394 71 1403 87 c 0,23,24
 1423 122 1423 122 1464 122 c 0,25,26
 1476 122 1476 122 1510.5 110.5 c 128,-1,27
 1545 99 1545 99 1598.5 114.5 c 128,-1,28
 1652 130 1652 130 1655 155 c 0,29,30
 1657 171 1657 171 1633 188 c 128,-1,31
 1609 205 1609 205 1569.5 206.5 c 128,-1,32
 1530 208 1530 208 1507.5 210 c 128,-1,33
 1485 212 1485 212 1466 232.5 c 128,-1,34
 1447 253 1447 253 1447 280.5 c 128,-1,35
 1447 308 1447 308 1467 328.5 c 128,-1,36
 1487 349 1487 349 1510 349.5 c 128,-1,37
 1533 350 1533 350 1564.5 349.5 c 128,-1,38
 1596 349 1596 349 1623 367 c 0,39,40
 1667 396 1667 396 1648 435 c 0,41,42
 1622 490 1622 490 1516 501 c 0,43,44
 1471 505 1471 505 1405 504 c 1,45,46
 1410 307 1410 307 1306 164 c 0,47,48
 1245 80 1245 80 1154.5 32 c 128,-1,49
 1064 -16 1064 -16 963 -13 c 0,50,51
 789 -7 789 -7 669 134 c 1,52,53
 606 30 606 30 490 -3 c 0,54,55
 421 -23 421 -23 350 -11 c 0,56,57
 232 10 232 10 159.5 105.5 c 128,-1,58
 87 201 87 201 103 311 c 128,-1,59
 119 421 119 421 190 492 c 0,60,61
 320 620 320 620 565 633 c 1,62,63
 593 753 593 753 657 832.5 c 128,-1,64
 721 912 721 912 798 953 c 0,0,1
711 636 m 1,65,-1
 1221 639 l 1,66,67
 1241 639 l 1,68,69
 1196 776 1196 776 1085 832.5 c 128,-1,70
 974 889 974 889 864.5 830.5 c 128,-1,71
 755 772 755 772 711 636 c 1,65,-1
696 496 m 1,72,73
 689 496 l 1,74,75
 686 354 686 354 753 254 c 0,76,77
 835 132 835 132 966 127 c 0,78,79
 1031 125 1031 125 1091 157 c 128,-1,80
 1151 189 1151 189 1193 246 c 0,81,82
 1268 349 1268 349 1265 499 c 1,83,84
 1241 498 1241 498 1222 499 c 1,85,-1
 696 496 l 1,72,73
549 491 m 1,86,87
 376 477 376 477 296 399 c 0,88,89
 251 355 251 355 242.5 297 c 128,-1,90
 234 239 234 239 272 188.5 c 128,-1,91
 310 138 310 138 361 129 c 0,92,93
 456 112 456 112 518 168 c 128,-1,94
 580 224 580 224 574 307 c 1,95,-1
 574 308 l 1,96,97
 548 394 548 394 549 491 c 1,86,87
EndSplineSet
Ligature2: "'psts' Post Base Substitutions in Malay+AQEA-lam/Malay+AQEA-lam2 lookup 5 subtable" k1 u1
LCarets2: 1 0
EndChar

StartChar: k1u2
Encoding: 124 -1 124
Width: 1933
GlyphClass: 3
LigCaretCntFixed: 1
Flags: MW
LayerCount: 2
Back
Fore
SplineSet
1564 350 m 1,0,1
 1619 360 1619 360 1638 377 c 1,2,-1
 1639 376 l 1,3,4
 1642 383 1642 383 1651 395 c 128,-1,5
 1660 407 1660 407 1646.5 437.5 c 128,-1,6
 1633 468 1633 468 1599 480 c 1,7,8
 1598 480 l 1,9,10
 1530 506 1530 506 1405 503 c 1,11,12
 1409 360 1409 360 1349.5 234.5 c 128,-1,13
 1290 109 1290 109 1168 38 c 128,-1,14
 1046 -33 1046 -33 902.5 -6 c 128,-1,15
 759 21 759 21 671 131 c 0,16,17
 670 132 670 132 670 133 c 1,18,19
 623 56 623 56 541 15 c 128,-1,20
 459 -26 459 -26 368 -14 c 1,21,22
 256 -4 256 -4 181 78 c 0,23,24
 62 208 62 208 117 373 c 0,25,26
 162 498 162 498 284 562 c 128,-1,27
 406 626 406 626 550 631 c 0,28,29
 561 631 561 631 565 632 c 0,30,31
 620 853 620 853 791 950 c 0,32,33
 876 998 876 998 962 999 c 0,34,35
 1127 1001 1127 1001 1239.5 895.5 c 128,-1,36
 1352 790 1352 790 1385 645 c 1,37,38
 1700.08340573 657.118592528 1700.08340573 657.118592528 1776 492 c 0,39,40
 1795 454 1795 454 1792.5 402.5 c 128,-1,41
 1790 351 1790 351 1762 310 c 0,42,43
 1751 289 1751 289 1734 273 c 1,44,45
 1784 225 1784 225 1806 159 c 128,-1,46
 1828 93 1828 93 1815 32 c 0,47,48
 1791 -83 1791 -83 1700 -139 c 128,-1,49
 1609 -195 1609 -195 1508 -190 c 1,50,51
 1400 -191 1400 -191 1018.5 -194 c 128,-1,52
 637 -197 637 -197 430 -201 c 0,53,54
 357 -202 357 -202 304 -235 c 128,-1,55
 251 -268 251 -268 248 -312.5 c 128,-1,56
 245 -357 245 -357 288 -389.5 c 128,-1,57
 331 -422 331 -422 393 -426 c 0,58,59
 538 -430 538 -430 693.5 -426.5 c 128,-1,60
 849 -423 849 -423 910 -423 c 2,61,-1
 1761 -410 l 1,62,-1
 1777 -410 l 2,63,64
 1792 -410 1792 -410 1812.5 -430.5 c 128,-1,65
 1833 -451 1833 -451 1833 -480 c 128,-1,66
 1833 -509 1833 -509 1812.5 -529.5 c 128,-1,67
 1792 -550 1792 -550 1764 -550 c 2,68,-1
 912 -563 l 1,69,-1
 882.5 -563 l 2,70,71
 853 -563 853 -563 670.5 -567 c 128,-1,72
 488 -571 488 -571 384.5 -565.5 c 128,-1,73
 281 -560 281 -560 201 -500 c 0,74,75
 157 -467 157 -467 129.5 -414.5 c 128,-1,76
 102 -362 102 -362 107 -304 c 0,77,78
 118 -186 118 -186 230 -117 c 0,79,80
 317 -64 317 -64 427 -61 c 0,81,82
 635 -57 635 -57 1017 -54 c 128,-1,83
 1399 -51 1399 -51 1453 -50.5 c 128,-1,84
 1507 -50 1507 -50 1508 -50 c 2,85,-1
 1511 -50 l 1,86,87
 1571 -53 1571 -53 1618.5 -24 c 128,-1,88
 1666 5 1666 5 1674 51 c 0,89,90
 1674 53 1674 53 1675 54 c 0,91,92
 1686 103 1686 103 1650.5 150.5 c 128,-1,93
 1615 198 1615 198 1564 208 c 1,94,95
 1516 203 1516 203 1491 221 c 128,-1,96
 1466 239 1466 239 1462 269 c 128,-1,97
 1458 299 1458 299 1471 316 c 128,-1,98
 1484 333 1484 333 1502 343 c 128,-1,99
 1520 353 1520 353 1564 350 c 1,0,1
713 635 m 1,100,101
 889 638 889 638 1043 638 c 0,102,103
 1142.5 638 1142.5 638 1242 638 c 1,104,105
 1212 731 1212 731 1137 795.5 c 128,-1,106
 1062 860 1062 860 974 859 c 1,107,-1
 973 859 l 1,108,109
 914 858 914 858 858 826 c 0,110,111
 756 768 756 768 713 635 c 1,100,101
1265 498 m 1,112,113
 1224 497 1224 497 1001.5 497 c 128,-1,114
 779 497 779 497 689 495 c 1,115,116
 686 330 686 330 780 220 c 1,117,-1
 780 219 l 1,118,119
 836 151 836 151 929.5 133 c 128,-1,120
 1023 115 1023 115 1097 160 c 0,121,122
 1098 161 1098 161 1099 161 c 0,123,124
 1180 208 1180 208 1223.5 300 c 128,-1,125
 1267 392 1267 392 1265 498 c 1,112,113
547 491 m 1,126,-1
 544 491 l 1,127,128
 443 488 443 488 359 444 c 128,-1,129
 275 400 275 400 249 326 c 0,130,131
 249 325 249 325 249 324 c 0,132,133
 234 284 234 284 249 238 c 128,-1,134
 264 192 264 192 301 160.5 c 128,-1,135
 338 129 338 129 381 126 c 0,136,137
 383 126 383 126 386 125 c 0,138,139
 433 118 433 118 479 143 c 128,-1,140
 525 168 525 168 552 213 c 128,-1,141
 579 258 579 258 575 305 c 1,142,-1
 575 306 l 1,143,144
 546 395 546 395 547 491 c 1,126,-1
EndSplineSet
Ligature2: "'psts' Post Base Substitutions in Malay+AQEA-lam/Malay+AQEA-lam2 lookup 5 subtable" k1 u2
LCarets2: 1 0
EndChar

StartChar: k1r1
Encoding: 125 -1 125
Width: 1865
GlyphClass: 3
LigCaretCntFixed: 1
Flags: MW
LayerCount: 2
Back
Fore
SplineSet
774 948 m 0,0,1
 949 1041 949 1041 1125 951 c 0,2,3
 1204 911 1204 911 1270.5 829.5 c 128,-1,4
 1337 748 1337 748 1365 624 c 1,5,6
 1556 594 1556 594 1666 453 c 0,7,8
 1723 380 1723 380 1749 282 c 0,9,10
 1803 78 1803 78 1695.5 -109 c 128,-1,11
 1588 -296 1588 -296 1390 -403 c 0,12,13
 1151 -533 1151 -533 887 -511 c 0,14,15
 679 -493 679 -493 612 -359 c 0,16,17
 581 -296 581 -296 594.5 -227.5 c 128,-1,18
 608 -159 608 -159 664 -116 c 0,19,20
 797 -11 797 -11 1007 -107 c 0,21,22
 1163 -178 1163 -178 1285 -300 c 1,23,24
 1477 -209 1477 -209 1565 -55 c 128,-1,25
 1653 99 1653 99 1612 255 c 0,26,27
 1595 315 1595 315 1556 366 c 0,28,29
 1491 450 1491 450 1381 478 c 1,30,31
 1380 293 1380 293 1282 158 c 0,32,33
 1221 74 1221 74 1130.5 26 c 128,-1,34
 1040 -22 1040 -22 939 -19 c 0,35,36
 765 -13 765 -13 646 128 c 1,37,38
 583 24 583 24 466 -9 c 0,39,40
 397 -29 397 -29 327 -17 c 0,41,42
 209 4 209 4 136 100 c 128,-1,43
 63 196 63 196 79 305.5 c 128,-1,44
 95 415 95 415 167 486 c 0,45,46
 297 614 297 614 542 627 c 1,47,48
 570 747 570 747 633.5 827 c 128,-1,49
 697 907 697 907 774 948 c 0,0,1
688 630 m 1,50,-1
 1197 633 l 1,51,52
 1218 633 l 1,53,54
 1173 770 1173 770 1061.5 826.5 c 128,-1,55
 950 883 950 883 841 824.5 c 128,-1,56
 732 766 732 766 688 630 c 1,50,-1
672 490 m 1,57,58
 665 490 l 1,59,60
 662 348 662 348 730 248 c 0,61,62
 812 126 812 126 942 121 c 0,63,64
 1007 119 1007 119 1067 151 c 128,-1,65
 1127 183 1127 183 1169 240 c 0,66,67
 1244 343 1244 343 1241 492 c 1,68,69
 1220 493 1220 493 1198 493 c 2,70,-1
 672 490 l 1,57,58
525 485 m 1,71,72
 352 471 352 471 272 393 c 0,73,74
 227 349 227 349 218.5 291 c 128,-1,75
 210 233 210 233 248.5 182.5 c 128,-1,76
 287 132 287 132 337 123 c 0,77,78
 432 106 432 106 494 162 c 128,-1,79
 556 218 556 218 551 301 c 1,80,-1
 551 302 l 1,81,82
 524 388 524 388 525 485 c 1,71,72
1136 -352 m 1,83,84
 1050 -280 1050 -280 956 -237 c 0,85,86
 816 -173 816 -173 755 -222 c 0,87,88
 716 -253 716 -253 738 -297 c 0,89,90
 769 -361 769 -361 892.5 -371 c 128,-1,91
 1016 -381 1016 -381 1136 -352 c 1,83,84
EndSplineSet
Ligature2: "'psts' Post Base Substitutions in Malay+AQEA-lam/Malay+AQEA-lam2 lookup 5 subtable" k1 r1
LCarets2: 1 0
EndChar

StartChar: k1k1
Encoding: 127 -1 127
Width: 2449
GlyphClass: 3
LigCaretCntFixed: 1
Flags: MW
LayerCount: 2
Back
Fore
SplineSet
798 956 m 0,0,1
 973 1049 973 1049 1149 959 c 0,2,3
 1294 885 1294 885 1361 721 c 1,4,5
 1477 903 1477 903 1679 964 c 0,6,7
 1792 999 1792 999 1907 983 c 0,8,9
 2080 958 2080 958 2202.5 833 c 128,-1,10
 2325 708 2325 708 2346 535 c 128,-1,11
 2367 362 2367 362 2278 211.5 c 128,-1,12
 2189 61 2189 61 2026 -4 c 0,13,14
 1982 -21 1982 -21 1955.5 5 c 128,-1,15
 1929 31 1929 31 1929 55.5 c 128,-1,16
 1929 80 1929 80 1942.5 99 c 128,-1,17
 1956 118 1956 118 1993.5 133 c 128,-1,18
 2031 148 2031 148 2078.5 189 c 128,-1,19
 2126 230 2126 230 2157 282 c 0,20,21
 2222 391 2222 391 2206.5 517.5 c 128,-1,22
 2191 644 2191 644 2102 735 c 128,-1,23
 2013 826 2013 826 1887 844 c 0,24,25
 1804 856 1804 856 1719 830 c 0,26,27
 1558 781 1558 781 1469 629 c 1,28,29
 1661 603 1661 603 1759 510 c 0,30,31
 1913 364 1913 364 1864 190 c 0,32,33
 1829 69 1829 69 1717 12 c 0,34,35
 1663 -15 1663 -15 1587.5 -17.5 c 128,-1,36
 1512 -20 1512 -20 1432.5 29.5 c 128,-1,37
 1353 79 1353 79 1307 169 c 1,38,39
 1250 86 1250 86 1156.5 36 c 128,-1,40
 1063 -14 1063 -14 963 -10 c 0,41,42
 789 -4 789 -4 669 136 c 1,43,44
 606 32 606 32 490 -1 c 0,45,46
 421 -21 421 -21 350 -9 c 0,47,48
 232 12 232 12 159.5 108 c 128,-1,49
 87 204 87 204 103 314 c 128,-1,50
 119 424 119 424 190 494 c 0,51,52
 320 623 320 623 565 636 c 1,53,54
 593 755 593 755 657 835 c 128,-1,55
 721 915 721 915 798 956 c 0,0,1
1085.5 834.5 m 128,-1,57
 974 891 974 891 864.5 833 c 128,-1,58
 755 775 755 775 711 638 c 1,59,-1
 1221 639 l 1,60,61
 1242 639 l 1,62,56
 1197 778 1197 778 1085.5 834.5 c 128,-1,57
696 498 m 2,63,64
 692 498 692 498 688 498 c 0,65,66
 685 356 685 356 753 256 c 0,67,68
 835 134 835 134 966 130 c 0,69,70
 1031 128 1031 128 1091 159.5 c 128,-1,71
 1151 191 1151 191 1193 249 c 0,72,73
 1267 351 1267 351 1265 499 c 1,74,75
 1243 499 1243 499 1221 499 c 2,76,-1
 696 498 l 2,63,64
548 494 m 1,77,78
 375 481 375 481 296 402 c 0,79,80
 251 357 251 357 242.5 299.5 c 128,-1,81
 234 242 234 242 272.5 191.5 c 128,-1,82
 311 141 311 141 361 132 c 0,83,84
 491 109 491 109 550 210 c 0,85,86
 578 258 578 258 574 309 c 0,87,88
 574 310 574 310 574 311 c 0,89,90
 547 397 547 397 548 494 c 1,77,78
1415 493 m 1,91,92
 1375 331 1375 331 1438 222 c 0,93,94
 1465 175 1465 175 1507.5 148 c 128,-1,95
 1550 121 1550 121 1588 123 c 0,96,97
 1660 126 1660 126 1701 175 c 128,-1,98
 1742 224 1742 224 1733.5 286.5 c 128,-1,99
 1725 349 1725 349 1675 397 c 0,100,101
 1590 477 1590 477 1415 493 c 1,91,92
EndSplineSet
Ligature2: "'akhn' Akhand in Malay+AQEA-lam lookup 0 subtable" k1 xx k1
Ligature2: "'akhn' Akhand in Malay+AQEA-lam2 lookup 0 subtable" k1 xx k1
LCarets2: 2 0 0
EndChar

StartChar: k1k1u1
Encoding: 128 -1 128
Width: 2489
GlyphClass: 3
LigCaretCntFixed: 1
Flags: MW
LayerCount: 2
Back
Fore
SplineSet
797 970 m 0,0,1
 972 1063 972 1063 1149 974 c 0,2,3
 1299 898 1299 898 1365 725 c 1,4,5
 1502 929 1502 929 1742 991 c 0,6,7
 1864 1022 1864 1022 1993 1006 c 0,8,9
 2177 984 2177 984 2281 863 c 0,10,11
 2343 791 2343 791 2358.5 678 c 128,-1,12
 2374 565 2374 565 2281 464 c 1,13,14
 2362 405 2362 405 2383 311.5 c 128,-1,15
 2404 218 2404 218 2362.5 134.5 c 128,-1,16
 2321 51 2321 51 2239.5 16.5 c 128,-1,17
 2158 -18 2158 -18 2076.5 2 c 128,-1,18
 1995 22 1995 22 1943 87 c 0,19,20
 1927 107 1927 107 1926.5 134 c 128,-1,21
 1926 161 1926 161 1946.5 181.5 c 128,-1,22
 1967 202 1967 202 1998.5 202 c 128,-1,23
 2030 202 2030 202 2052.5 174.5 c 128,-1,24
 2075 147 2075 147 2110.5 138 c 128,-1,25
 2146 129 2146 129 2182 144.5 c 128,-1,26
 2218 160 2218 160 2237 197.5 c 128,-1,27
 2256 235 2256 235 2246 280 c 128,-1,28
 2236 325 2236 325 2196.5 352.5 c 128,-1,29
 2157 380 2157 380 2118 373 c 0,30,31
 2079 366 2079 366 2055 390 c 128,-1,32
 2031 414 2031 414 2031 440.5 c 128,-1,33
 2031 467 2031 467 2048 487.5 c 128,-1,34
 2065 508 2065 508 2090 512 c 0,35,36
 2151 521 2151 521 2188 571 c 0,37,38
 2252 656 2252 656 2188.5 752.5 c 128,-1,39
 2125 849 2125 849 1970 868 c 0,40,41
 1768 894 1768 894 1603 774 c 0,42,43
 1530 721 1530 721 1478 642 c 1,44,45
 1664 615 1664 615 1761 523 c 0,46,47
 1914 379 1914 379 1863 204 c 0,48,49
 1828 83 1828 83 1716 27 c 0,50,51
 1662 0 1662 0 1587 -3 c 128,-1,52
 1512 -6 1512 -6 1432 43 c 128,-1,53
 1352 92 1352 92 1305 181 c 1,54,55
 1244 97 1244 97 1153.5 48.5 c 128,-1,56
 1063 0 1063 0 963 4 c 0,57,58
 789 10 789 10 669 150 c 1,59,60
 606 46 606 46 489 13 c 0,61,62
 420 -7 420 -7 350 6 c 0,63,64
 232 27 232 27 159.5 122.5 c 128,-1,65
 87 218 87 218 103 328 c 128,-1,66
 119 438 119 438 190 509 c 0,67,68
 320 638 320 638 565 650 c 1,69,70
 593 769 593 769 656.5 849 c 128,-1,71
 720 929 720 929 797 970 c 0,0,1
1085 849 m 128,-1,73
 974 906 974 906 864.5 847.5 c 128,-1,74
 755 789 755 789 711 653 c 1,75,76
 1242 653 l 1,77,72
 1196 792 1196 792 1085 849 c 128,-1,73
695 513 m 5,78,-1
 688 512 l 5,79,80
 685 370 685 370 753 271 c 0,81,82
 835 149 835 149 966 144 c 0,83,84
 1031 142 1031 142 1090.5 173.5 c 128,-1,85
 1150 205 1150 205 1192 263 c 0,86,87
 1266 365 1266 365 1264 513 c 1,88,89
 695 513 l 5,78,-1
548 508 m 1,90,91
 375 495 375 495 295 416 c 0,92,93
 250 371 250 371 242 313.5 c 128,-1,94
 234 256 234 256 272 205.5 c 128,-1,95
 310 155 310 155 361 146 c 0,96,97
 456 129 456 129 518 185 c 128,-1,98
 580 241 580 241 574 324 c 1,99,-1
 574 325 l 1,100,101
 547 411 547 411 548 508 c 1,90,91
1416 508 m 1,102,103
 1370 348 1370 348 1435 235 c 0,104,105
 1462 188 1462 188 1505.5 161.5 c 128,-1,106
 1549 135 1549 135 1580 137 c 0,107,108
 1700 142 1700 142 1727.5 239 c 128,-1,109
 1755 336 1755 336 1672.5 414 c 128,-1,110
 1590 492 1590 492 1416 508 c 1,102,103
EndSplineSet
Ligature2: "'psts' Post Base Substitutions in Malay+AQEA-lam/Malay+AQEA-lam2 lookup 5 subtable" k1k1 u1
LCarets2: 1 0
EndChar

StartChar: k1k1u2
Encoding: 129 -1 129
Width: 2524
GlyphClass: 3
LigCaretCntFixed: 1
Flags: MW
LayerCount: 2
Back
Fore
SplineSet
411 -115 m 5,0,-1
 514 -116 l 5,1,-1
 1937 -121 l 6,2,3
 2032 -121 2032 -121 2089.5 -110.5 c 132,-1,4
 2147 -100 2147 -100 2196 -65.5 c 132,-1,5
 2245 -31 2245 -31 2268.5 23 c 132,-1,6
 2292 77 2292 77 2281 139.5 c 132,-1,7
 2270 202 2270 202 2218 247.5 c 132,-1,8
 2166 293 2166 293 2098 295 c 4,9,10
 2070 296 2070 296 2050.5 317 c 132,-1,11
 2031 338 2031 338 2031 362.5 c 132,-1,12
 2031 387 2031 387 2045.5 407 c 132,-1,13
 2060 427 2060 427 2088.5 435 c 132,-1,14
 2117 443 2117 443 2148 467 c 132,-1,15
 2179 491 2179 491 2198 523 c 4,16,17
 2238 592 2238 592 2218.5 668.5 c 132,-1,18
 2199 745 2199 745 2130.5 796 c 132,-1,19
 2062 847 2062 847 1967 862.5 c 132,-1,20
 1872 878 1872 878 1775 855 c 4,21,22
 1581 808 1581 808 1475 637 c 5,23,24
 1663 610 1663 610 1760 518 c 4,25,26
 1893 392 1893 392 1872 238 c 4,27,28
 1861 158 1861 158 1815 103 c 4,29,30
 1728 -2 1728 -2 1602 -8 c 4,31,32
 1512 -12 1512 -12 1432.5 37.5 c 132,-1,33
 1353 87 1353 87 1306 176 c 5,34,35
 1245 92 1245 92 1154 43.5 c 132,-1,36
 1063 -5 1063 -5 963 -1 c 4,37,38
 789 5 789 5 669 145 c 5,39,40
 606 41 606 41 490 8 c 4,41,42
 421 -12 421 -12 350 1 c 4,43,44
 232 22 232 22 159.5 117.5 c 132,-1,45
 87 213 87 213 103 323 c 132,-1,46
 119 433 119 433 190 504 c 4,47,48
 320 633 320 633 565 645 c 5,49,50
 593 764 593 764 657 844 c 132,-1,51
 721 924 721 924 798 965 c 4,52,53
 973 1058 973 1058 1149 968 c 4,54,55
 1297 893 1297 893 1364 724 c 5,56,57
 1501 933 1501 933 1742 991 c 4,58,59
 1866 1021 1866 1021 1992.5 1000.5 c 132,-1,60
 2119 980 2119 980 2221 904 c 132,-1,61
 2323 828 2323 828 2355 699.5 c 132,-1,62
 2387 571 2387 571 2319 453 c 4,63,64
 2298 416 2298 416 2267 385 c 5,65,66
 2394 306 2394 306 2419 159 c 4,67,68
 2436 60 2436 60 2397 -31.5 c 132,-1,69
 2358 -123 2358 -123 2280 -177.5 c 132,-1,70
 2202 -232 2202 -232 2123 -246.5 c 132,-1,71
 2044 -261 2044 -261 1936 -261 c 6,72,-1
 514 -256 l 5,73,-1
 413 -255 l 5,74,75
 278 -256 278 -256 254 -303 c 4,76,77
 244 -324 244 -324 267.5 -340.5 c 4,78,79
 300.967741935 -363.998627316 300.967741935 -363.998627316 347.483870968 -365.999313658 c 132,-1,80
 394 -368 394 -368 429 -367 c 132,-1,81
 464 -366 464 -366 510 -366 c 6,82,-1
 2301 -355 l 5,83,-1
 2316 -355 l 6,84,85
 2330 -355 2330 -355 2351 -375.5 c 132,-1,86
 2372 -396 2372 -396 2372 -425 c 132,-1,87
 2372 -454 2372 -454 2351.5 -474.5 c 132,-1,88
 2331 -495 2331 -495 2302 -495 c 6,89,-1
 511 -506 l 5,90,-1
 413 -508 l 5,91,92
 205 -510 205 -510 137 -402 c 4,93,94
 87 -323 87 -323 129 -240 c 4,95,96
 192 -116 192 -116 411 -115 c 5,0,-1
1085.5 843.5 m 132,-1,98
 974 900 974 900 864.5 842 c 132,-1,99
 755 784 755 784 711 647 c 5,100,-1
 1221 648 l 5,101,-1
 1242 648 l 5,102,97
 1197 787 1197 787 1085.5 843.5 c 132,-1,98
696 507 m 6,103,104
 692 507 692 507 688 507 c 4,105,106
 685 365 685 365 753 266 c 4,107,108
 835 144 835 144 966 139 c 4,109,110
 1031 137 1031 137 1091 168.5 c 132,-1,111
 1151 200 1151 200 1193 258 c 4,112,113
 1267 360 1267 360 1265 508 c 5,114,115
 1243 508 1243 508 1221 508 c 6,116,-1
 696 507 l 6,103,104
548 503 m 5,117,118
 375 490 375 490 296 411 c 4,119,120
 251 366 251 366 242.5 308.5 c 132,-1,121
 234 251 234 251 272 200 c 4,122,123
 339 111 339 111 451 143 c 4,124,125
 530 165 530 165 562 243 c 4,126,127
 577 281 577 281 575.5 300 c 132,-1,128
 574 319 574 319 574 320 c 4,129,130
 547 406 547 406 548 503 c 5,117,118
1416 503 m 5,131,132
 1372 342 1372 342 1436 230 c 4,133,134
 1463 183 1463 183 1506 156.5 c 132,-1,135
 1549 130 1549 130 1588 132 c 4,136,137
 1661 135 1661 135 1701.5 184.5 c 132,-1,138
 1742 234 1742 234 1733.5 296.5 c 132,-1,139
 1725 359 1725 359 1675 406 c 4,140,141
 1590 487 1590 487 1416 503 c 5,131,132
EndSplineSet
Ligature2: "'psts' Post Base Substitutions in Malay+AQEA-lam/Malay+AQEA-lam2 lookup 5 subtable" k1k1 u2
LCarets2: 1 3
EndChar

StartChar: k1k1r1
Encoding: 130 -1 130
Width: 2447
GlyphClass: 3
LigCaretCntFixed: 1
Flags: MW
LayerCount: 2
Back
Fore
SplineSet
1357 730 m 5,0,1
 1456 895 1456 895 1642 972 c 4,2,3
 1752 1018 1752 1018 1895 999 c 132,-1,4
 2038 980 2038 980 2154.5 872 c 132,-1,5
 2271 764 2271 764 2323 595.5 c 132,-1,6
 2375 427 2375 427 2317.5 218.5 c 132,-1,7
 2260 10 2260 10 2099 -163.5 c 132,-1,8
 1938 -337 1938 -337 1706 -442 c 4,9,10
 1398 -581 1398 -581 1161 -497 c 4,11,12
 1065 -463 1065 -463 1023 -411 c 4,13,14
 938 -307 938 -307 970 -202 c 4,15,16
 990 -140 990 -140 1041 -104 c 4,17,18
 1159 -19 1159 -19 1350 -87.5 c 132,-1,19
 1541 -156 1541 -156 1693 -292 c 5,20,21
 1985 -145 1985 -145 2116.5 97 c 132,-1,22
 2248 339 2248 339 2184 570 c 4,23,24
 2148 687 2148 687 2062 767 c 132,-1,25
 1976 847 1976 847 1879 860 c 4,26,27
 1690 885 1690 885 1553 754 c 4,28,29
 1498 702 1498 702 1461 629 c 5,30,31
 1659 604 1659 604 1758 510 c 4,32,33
 1913 363 1913 363 1864 189 c 4,34,35
 1830 67 1830 67 1716 11 c 4,36,37
 1662 -16 1662 -16 1587 -18 c 132,-1,38
 1512 -20 1512 -20 1433 30 c 132,-1,39
 1354 80 1354 80 1309 170 c 5,40,41
 1309 169 1309 169 1307 168 c 4,42,43
 1252 86 1252 86 1157.5 35.5 c 132,-1,44
 1063 -15 1063 -15 963 -11 c 4,45,46
 789 -5 789 -5 669 135 c 5,47,48
 606 31 606 31 490 -2 c 4,49,50
 421 -22 421 -22 350 -10 c 4,51,52
 232 11 232 11 159.5 107 c 132,-1,53
 87 203 87 203 103 313 c 132,-1,54
 119 423 119 423 190 493 c 4,55,56
 320 622 320 622 565 635 c 5,57,58
 593 754 593 754 657 834 c 4,59,60
 788 998 788 998 972 1000 c 4,61,62
 1064 1001 1064 1001 1146 960 c 4,63,64
 1289 887 1289 887 1357 730 c 5,0,1
1085.5 833.5 m 132,-1,66
 974 890 974 890 864.5 832 c 132,-1,67
 755 774 755 774 711 637 c 5,68,-1
 1221 638 l 5,69,70
 1242 638 l 5,71,65
 1197 777 1197 777 1085.5 833.5 c 132,-1,66
696 497 m 6,72,73
 692 497 692 497 688 497 c 4,74,75
 685 355 685 355 753 255 c 4,76,77
 835 133 835 133 966 129 c 4,78,79
 1031 127 1031 127 1091 158.5 c 132,-1,80
 1151 190 1151 190 1193 248 c 4,81,82
 1267 350 1267 350 1265 498 c 5,83,84
 1243 498 1243 498 1221 498 c 6,85,-1
 696 497 l 6,72,73
548 493 m 5,86,87
 375 480 375 480 296 401 c 4,88,89
 251 356 251 356 242.5 298.5 c 132,-1,90
 234 241 234 241 272.5 190.5 c 132,-1,91
 311 140 311 140 361 131 c 4,92,93
 483 110 483 110 543 198 c 4,94,95
 578 250 578 250 574 308 c 4,96,97
 574 309 574 309 574 310 c 4,98,99
 547 396 547 396 548 493 c 5,86,87
1413 492 m 5,100,101
 1379 328 1379 328 1440 222 c 4,102,103
 1467 175 1467 175 1509 148 c 132,-1,104
 1551 121 1551 121 1589 122 c 4,105,106
 1661 124 1661 124 1701.5 173.5 c 132,-1,107
 1742 223 1742 223 1733.5 285.5 c 132,-1,108
 1725 348 1725 348 1675 395 c 4,109,110
 1589 476 1589 476 1413 492 c 5,100,101
1548 -353 m 5,111,112
 1435 -266 1435 -266 1328.5 -228 c 132,-1,113
 1222 -190 1222 -190 1184 -195 c 4,114,115
 1087 -209 1087 -209 1103 -276 c 4,116,117
 1117 -333 1117 -333 1212 -366 c 4,118,119
 1355 -417 1355 -417 1548 -353 c 5,111,112
EndSplineSet
Ligature2: "'psts' Post Base Substitutions in Malay+AQEA-lam/Malay+AQEA-lam2 lookup 5 subtable" k1k1 r1
LCarets2: 1 0
EndChar

StartChar: k1k1r3
Encoding: 131 -1 131
Width: 2894
GlyphClass: 3
LigCaretCntFixed: 1
Flags: MW
LayerCount: 2
Back
Fore
SplineSet
1219 958 m 4,0,1
 1394 1051 1394 1051 1570 962 c 4,2,3
 1714 889 1714 889 1781 726 c 5,4,5
 1902 919 1902 919 2115 978 c 4,6,7
 2233 1011 2233 1011 2341 990 c 4,8,9
 2552 949 2552 949 2673.5 784 c 132,-1,10
 2795 619 2795 619 2794 413 c 4,11,12
 2794 159 2794 159 2631 -40 c 4,13,14
 2400 -322 2400 -322 1991 -411 c 4,15,16
 1706 -473 1706 -473 1284 -452 c 5,17,18
 1019 -444 1019 -444 917 -427 c 132,-1,19
 815 -410 815 -410 751 -394 c 4,20,21
 441 -315 441 -315 271 -115 c 4,22,23
 164 11 164 11 122.5 175 c 132,-1,24
 81 339 81 339 116.5 501 c 132,-1,25
 152 663 152 663 258 794.5 c 132,-1,26
 364 926 364 926 514 996 c 4,27,28
 528 1003 528 1003 550.5 1003 c 132,-1,29
 573 1003 573 1003 593.5 982.5 c 132,-1,30
 614 962 614 962 614 941 c 4,31,32
 614 887 614 887 573 869 c 4,33,34
 454 814 454 814 368 706 c 4,35,36
 190 485 190 485 259 209 c 4,37,38
 377 -263 377 -263 1132 -306 c 4,39,40
 1672 -337 1672 -337 1961 -274 c 4,41,42
 2322 -196 2322 -196 2511 34 c 4,43,44
 2654 208 2654 208 2654 413 c 4,45,46
 2654 574 2654 574 2562.5 698 c 132,-1,47
 2471 822 2471 822 2324 850 c 4,48,49
 2240 866 2240 866 2151 842 c 4,50,51
 1980 794 1980 794 1889 632 c 5,52,53
 2083 606 2083 606 2181 512.5 c 132,-1,54
 2279 419 2279 419 2294.5 302 c 132,-1,55
 2310 185 2310 185 2230 87.5 c 132,-1,56
 2150 -10 2150 -10 2023 -14 c 4,57,58
 1934 -17 1934 -17 1854.5 32.5 c 132,-1,59
 1775 82 1775 82 1729 172 c 5,60,61
 1728 170 l 5,62,63
 1673 89 1673 89 1579 39 c 132,-1,64
 1485 -11 1485 -11 1384 -8 c 4,65,66
 1210 -2 1210 -2 1091 138 c 5,67,68
 1028 34 1028 34 911 1 c 4,69,70
 842 -19 842 -19 772 -6 c 4,71,72
 654 15 654 15 581 110.5 c 132,-1,73
 508 206 508 206 524 316 c 132,-1,74
 540 426 540 426 612 497 c 4,75,76
 742 626 742 626 987 638 c 5,77,78
 1015 757 1015 757 1078.5 837 c 132,-1,79
 1142 917 1142 917 1219 958 c 4,0,1
1506.5 837 m 132,-1,81
 1395 894 1395 894 1286 835.5 c 132,-1,82
 1177 777 1177 777 1133 641 c 5,83,84
 1398 641 1398 641 1663 641 c 5,85,80
 1618 780 1618 780 1506.5 837 c 132,-1,81
1686 501 m 5,86,87
 1398 501 1398 501 1110 501 c 5,88,89
 1107 359 1107 359 1175 259 c 4,90,91
 1257 137 1257 137 1387 132 c 4,92,93
 1452 130 1452 130 1512 162 c 132,-1,94
 1572 194 1572 194 1614 251 c 4,95,96
 1688 353 1688 353 1686 501 c 5,86,87
970 497 m 5,97,98
 797 484 797 484 717 404 c 4,99,100
 672 359 672 359 663.5 301.5 c 132,-1,101
 655 244 655 244 693.5 193.5 c 132,-1,102
 732 143 732 143 783 134 c 4,103,104
 913 111 913 111 972 213 c 4,105,106
 1000 261 1000 261 996 312 c 5,107,-1
 996 313 l 5,108,109
 969 400 969 400 970 497 c 5,97,98
1836 496 m 5,110,111
 1798 333 1798 333 1860 225 c 4,112,113
 1887 178 1887 178 1929.5 151 c 132,-1,114
 1972 124 1972 124 2010 125 c 4,115,116
 2082 127 2082 127 2123 177 c 132,-1,117
 2164 227 2164 227 2155.5 289.5 c 132,-1,118
 2147 352 2147 352 2097 399 c 4,119,120
 2011 480 2011 480 1836 496 c 5,110,111
EndSplineSet
Ligature2: "'pres' Pre Base Substitutions in Malay+AQEA-lam lookup 4 subtable" k1k1 r4
Ligature2: "'pres' Pre Base Substitutions in Malay+AQEA-lam2 lookup 4 subtable" r4 k1k1
Ligature2: "'pres' Pre Base Substitutions in Malay+AQEA-lam lookup 4 subtable" k1k1 xx r3
LCarets2: 1 0
EndChar

StartChar: k1th1
Encoding: 137 -1 137
Width: 3273
GlyphClass: 3
LigCaretCntFixed: 1
Flags: MW
LayerCount: 2
Back
Fore
SplineSet
798 959 m 0,0,1
 973 1052 973 1052 1149 963 c 0,2,3
 1228 923 1228 923 1294.5 841.5 c 128,-1,4
 1361 760 1361 760 1389 636 c 1,5,6
 1494 622 1494 622 1581 576 c 1,7,8
 1611 707 1611 707 1692 799 c 0,9,10
 1853 981 1853 981 2088 992 c 0,11,12
 2220 998 2220 998 2344 944 c 1,13,14
 2579 1042 2579 1042 2815 952 c 0,15,16
 2956 898 2956 898 3039 800 c 0,17,18
 3206 603 3206 603 3166 376 c 0,19,20
 3140 230 3140 230 3034.5 125 c 128,-1,21
 2929 20 2929 20 2782 -5 c 0,22,23
 2776 -6 2776 -6 2758.5 -6 c 128,-1,24
 2741 -6 2741 -6 2720.5 14.5 c 128,-1,25
 2700 35 2700 35 2700 57 c 0,26,27
 2700 123 2700 123 2759 133 c 0,28,29
 2862 150 2862 150 2936 223.5 c 128,-1,30
 3010 297 3010 297 3027.5 401 c 128,-1,31
 3045 505 3045 505 2994.5 617.5 c 128,-1,32
 2944 730 2944 730 2806 803 c 128,-1,33
 2668 876 2668 876 2499 845 c 1,34,35
 2655 706 2655 706 2687.5 509 c 128,-1,36
 2720 312 2720 312 2635 169 c 0,37,38
 2587 89 2587 89 2509 39.5 c 128,-1,39
 2431 -10 2431 -10 2338 -11.5 c 128,-1,40
 2245 -13 2245 -13 2165.5 35 c 128,-1,41
 2086 83 2086 83 2039 158.5 c 128,-1,42
 1992 234 1992 234 1978 323 c 128,-1,43
 1964 412 1964 412 1980.5 503.5 c 128,-1,44
 1997 595 1997 595 2050.5 687 c 128,-1,45
 2104 779 2104 779 2184 847 c 1,46,47
 2055 869 2055 869 1935 812 c 0,48,49
 1789 743 1789 743 1733 596 c 0,50,51
 1708 528 1708 528 1708 492 c 2,52,-1
 1708 452 l 2,53,54
 1708 337 1708 337 1772 249.5 c 128,-1,55
 1836 162 1836 162 1924 121 c 0,56,57
 1966 103 1966 103 1966 52 c 0,58,59
 1966 28 1966 28 1945.5 7.5 c 128,-1,60
 1925 -13 1925 -13 1902.5 -13 c 128,-1,61
 1880 -13 1880 -13 1866 -6 c 0,62,63
 1745 49 1745 49 1663 161 c 128,-1,64
 1581 273 1581 273 1569 418 c 1,65,66
 1497 473 1497 473 1405 492 c 1,67,68
 1404 305 1404 305 1306 170 c 0,69,70
 1245 86 1245 86 1154.5 38 c 128,-1,71
 1064 -10 1064 -10 963 -7 c 0,72,73
 789 -1 789 -1 669 140 c 1,74,75
 606 36 606 36 490 3 c 0,76,77
 421 -17 421 -17 350 -5 c 0,78,79
 232 16 232 16 159.5 111.5 c 128,-1,80
 87 207 87 207 103 317 c 128,-1,81
 119 427 119 427 190 498 c 0,82,83
 320 626 320 626 565 639 c 1,84,85
 593 759 593 759 657 838.5 c 128,-1,86
 721 918 721 918 798 959 c 0,0,1
1178 762 m 0,87,88
 1093 867 1093 867 974.5 865 c 128,-1,89
 856 863 856 863 773 759 c 0,90,91
 733 709 733 709 711 642 c 1,92,-1
 1221 644 l 2,93,94
 1231 644 1231 644 1241 644 c 1,95,96
 1218 713 1218 713 1178 762 c 0,87,88
2342 788 m 1,97,98
 2245 732 2245 732 2189 644.5 c 128,-1,99
 2133 557 2133 557 2120 482 c 0,100,101
 2094 335 2094 335 2156 236 c 0,102,103
 2187 186 2187 186 2235 156 c 0,104,105
 2337 95 2337 95 2438 159 c 0,106,107
 2485 189 2485 189 2515 240 c 0,108,109
 2590 367 2590 367 2536.5 534.5 c 128,-1,110
 2483 702 2483 702 2342 788 c 1,97,98
696 502 m 1,111,112
 689 502 l 1,113,114
 686 360 686 360 753 260 c 0,115,116
 835 138 835 138 966 133 c 0,117,118
 1031 131 1031 131 1091 163 c 128,-1,119
 1151 195 1151 195 1193 252 c 0,120,121
 1268 355 1268 355 1265 504 c 1,122,-1
 1222 504 l 1,123,-1
 696 502 l 1,111,112
548 497 m 1,124,125
 375 483 375 483 296 405 c 0,126,127
 251 361 251 361 242.5 303 c 128,-1,128
 234 245 234 245 272 194.5 c 128,-1,129
 310 144 310 144 361 135 c 0,130,131
 491 112 491 112 550 214 c 0,132,133
 578 262 578 262 574 313 c 1,134,-1
 574 314 l 1,135,136
 547 400 547 400 548 497 c 1,124,125
EndSplineSet
Ligature2: "'akhn' Akhand in Malay+AQEA-lam lookup 0 subtable" k1 xx th1
Ligature2: "'akhn' Akhand in Malay+AQEA-lam2 lookup 0 subtable" k1 xx th1
LCarets2: 1 3
EndChar

StartChar: k1th1u1
Encoding: 138 -1 138
Width: 3268
GlyphClass: 3
LigCaretCntFixed: 1
Flags: MW
LayerCount: 2
Back
Fore
SplineSet
798 962 m 4,0,1
 973 1055 973 1055 1149 966 c 4,2,3
 1228 926 1228 926 1294.5 844.5 c 132,-1,4
 1361 763 1361 763 1389 639 c 5,5,6
 1562 615 1562 615 1684 508 c 4,7,8
 1708 487 1708 487 1708 456.5 c 132,-1,9
 1708 426 1708 426 1687.5 405.5 c 132,-1,10
 1667 385 1667 385 1639 385 c 132,-1,11
 1611 385 1611 385 1591 403 c 4,12,13
 1512 472 1512 472 1405 495 c 5,14,15
 1404 308 1404 308 1306 173 c 4,16,17
 1245 89 1245 89 1154.5 41 c 132,-1,18
 1064 -7 1064 -7 963 -4 c 4,19,20
 789 2 789 2 669 143 c 5,21,22
 606 39 606 39 490 6 c 4,23,24
 421 -14 421 -14 350 -2 c 4,25,26
 232 19 232 19 159.5 114.5 c 132,-1,27
 87 210 87 210 103 320 c 132,-1,28
 119 430 119 430 190 501 c 4,29,30
 320 629 320 629 565 642 c 5,31,32
 593 762 593 762 657 841.5 c 132,-1,33
 721 921 721 921 798 962 c 4,0,1
711 645 m 5,34,-1
 1221 647 l 6,35,36
 1231 647 1231 647 1241 647 c 5,37,38
 1196 784 1196 784 1085 841 c 132,-1,39
 974 898 974 898 864.5 839.5 c 132,-1,40
 755 781 755 781 711 645 c 5,34,-1
696 505 m 5,41,42
 689 505 l 5,43,44
 686 363 686 363 753 263 c 4,45,46
 835 141 835 141 966 136 c 4,47,48
 1031 134 1031 134 1091 166 c 132,-1,49
 1151 198 1151 198 1193 255 c 4,50,51
 1268 358 1268 358 1265 507 c 5,52,-1
 1222 507 l 5,53,-1
 696 505 l 5,41,42
549 500 m 5,54,55
 376 486 376 486 296 408 c 4,56,57
 251 364 251 364 242.5 306 c 132,-1,58
 234 248 234 248 272 197.5 c 132,-1,59
 310 147 310 147 361 138 c 4,60,61
 456 121 456 121 518 177 c 132,-1,62
 580 233 580 233 574 316 c 5,63,-1
 574 317 l 5,64,65
 548 403 548 403 549 500 c 5,54,55
2333 952 m 5,66,67
 2502 1025 2502 1025 2698 986.5 c 132,-1,68
 2894 948 2894 948 3030.5 778.5 c 132,-1,69
 3167 609 3167 609 3167 391 c 4,70,71
 3167 248 3167 248 3104 123 c 132,-1,72
 3041 -2 3041 -2 2929.5 -81.5 c 132,-1,73
 2818 -161 2818 -161 2701.5 -184.5 c 132,-1,74
 2585 -208 2585 -208 2420 -210 c 6,75,-1
 2025 -217 l 6,76,77
 1971 -217 1971 -217 1889 -219 c 4,78,79
 1744 -226 1744 -226 1711 -288 c 4,80,81
 1691 -325 1691 -325 1724 -353.5 c 132,-1,82
 1757 -382 1757 -382 1814 -395 c 132,-1,83
 1871 -408 1871 -408 2019 -403 c 5,84,-1
 3097 -400 l 5,85,-1
 3112 -400 l 6,86,87
 3126 -400 3126 -400 3147 -420.5 c 132,-1,88
 3168 -441 3168 -441 3168 -470 c 132,-1,89
 3168 -499 3168 -499 3147.5 -519.5 c 132,-1,90
 3127 -540 3127 -540 3098 -540 c 6,91,-1
 2020 -543 l 6,92,93
 2009 -543 2009 -543 1967 -543.5 c 132,-1,94
 1925 -544 1925 -544 1878 -543 c 4,95,96
 1656 -534 1656 -534 1586 -399 c 4,97,98
 1541 -311 1541 -311 1588 -222 c 4,99,100
 1659 -87 1659 -87 1901 -78 c 4,101,102
 1922 -77 1922 -77 1968 -77 c 6,103,-1
 2023 -77 l 5,104,-1
 2417 -71 l 6,105,106
 2569 -69 2569 -69 2665 -49 c 132,-1,107
 2761 -29 2761 -29 2846.5 31.5 c 132,-1,108
 2932 92 2932 92 2979.5 186.5 c 132,-1,109
 3027 281 3027 281 3027 376 c 4,110,111
 3027 559 3027 559 2922 690 c 132,-1,112
 2817 821 2817 821 2654 852 c 4,113,114
 2575 867 2575 867 2492 854 c 5,115,116
 2653 714 2653 714 2687 514 c 132,-1,117
 2721 314 2721 314 2636 171.5 c 132,-1,118
 2551 29 2551 29 2413 0.5 c 132,-1,119
 2275 -28 2275 -28 2163 41 c 4,120,121
 2087 87 2087 87 2038 166 c 4,122,123
 1951 308 1951 308 1982 507.5 c 132,-1,124
 2013 707 2013 707 2175 851 c 5,125,126
 2051 869 2051 869 1954.5 824 c 132,-1,127
 1858 779 1858 779 1804.5 718 c 132,-1,128
 1751 657 1751 657 1725.5 576 c 132,-1,129
 1700 495 1700 495 1711 407.5 c 132,-1,130
 1722 320 1722 320 1779.5 242.5 c 132,-1,131
 1837 165 1837 165 1924 124 c 4,132,133
 1966 106 1966 106 1966 55 c 4,134,135
 1966 31 1966 31 1945.5 10.5 c 132,-1,136
 1925 -10 1925 -10 1902.5 -10 c 132,-1,137
 1880 -10 1880 -10 1866 -3 c 4,138,139
 1745 52 1745 52 1666.5 159 c 132,-1,140
 1588 266 1588 266 1573 388 c 4,141,142
 1542 632 1542 632 1700 810 c 4,143,144
 1773 893 1773 893 1875 942 c 4,145,146
 2100 1048 2100 1048 2333 952 c 5,66,67
2334 795 m 5,147,148
 2213 723 2213 723 2153 589 c 4,149,150
 2128 532 2128 532 2118 473 c 4,151,152
 2097 338 2097 338 2157 239 c 4,153,154
 2188 189 2188 189 2236 160 c 4,155,156
 2337 99 2337 99 2438 162 c 4,157,158
 2485 192 2485 192 2515 243 c 4,159,160
 2574 342 2574 342 2551 478 c 4,161,162
 2515 690 2515 690 2334 795 c 5,147,148
EndSplineSet
Ligature2: "'psts' Post Base Substitutions in Malay+AQEA-lam/Malay+AQEA-lam2 lookup 5 subtable" k1th1 u1
LCarets2: 1 0
EndChar

